<?xml version="1.0" standalone="no"?>
<!DOCTYPE svg PUBLIC "-//W3C//DTD SVG 1.1//EN" "http://www.w3.org/Graphics/SVG/1.1/DTD/svg11.dtd" >
<svg xmlns="http://www.w3.org/2000/svg" xmlns:xlink="http://www.w3.org/1999/xlink" version="1.1">
<metadata>
Created by FontForge 20161003 at Sat Mar  3 11:06:14 2018
 By www-data
Copyright 2015 Nissan Motors Co., Ltd. All rights reserved.
</metadata>
<defs>
<font id="NissanBrand-Italic" horiz-adv-x="400" >
  <font-face 
    font-family="Nissan Brand"
    font-weight="400"
    font-style="italic"
    font-stretch="normal"
    units-per-em="1000"
    panose-1="2 11 5 4 2 2 4 10 2 4"
    ascent="746"
    descent="-254"
    x-height="513"
    cap-height="650"
    bbox="-193 -300 1296 1064"
    underline-thickness="50"
    underline-position="-100"
    slope="-12"
    stemh="86"
    stemv="94"
    unicode-range="U+000D-FEFF"
  />
<missing-glyph horiz-adv-x="511" 
d="M511 750v-750h-511v750h511zM424 85v580h-337v-580h337z" />
    <glyph glyph-name="f_i.liga" unicode="fi" horiz-adv-x="578" 
d="M360 711c32 0 68 -8 86 -14l-17 -77c-15 5 -47 12 -80 12c-49 0 -77 -16 -89 -75l-9 -44h161l-15 -76h-161l-99 -479c-25 -123 -78 -170 -177 -170c-26 0 -60 6 -78 11l17 75c18 -3 47 -8 65 -8c58 0 74 46 86 104l96 467h-93l15 76h94l11 50c26 121 94 148 187 148z
M487 601l19 90h98l-19 -90h-98zM366 0l107 513h89l-106 -513h-90z" />
    <glyph glyph-name="f_l.liga" unicode="fl" horiz-adv-x="577" 
d="M360 711c32 0 68 -8 86 -14l-17 -77c-15 5 -47 12 -80 12c-49 0 -77 -16 -89 -75l-9 -44h161l-15 -76h-161l-99 -479c-25 -123 -78 -170 -177 -170c-26 0 -60 6 -78 11l17 75c18 -3 47 -8 65 -8c58 0 74 46 86 104l96 467h-93l15 76h94l11 50c26 121 94 148 187 148z
M366 0l143 691h90l-143 -691h-90z" />
    <glyph glyph-name="f_f.liga" unicode="ff" horiz-adv-x="666" 
d="M682 632c-49 0 -77 -16 -89 -75l-9 -44h161l-15 -76h-161l-99 -479c-25 -123 -78 -170 -177 -170c-26 0 -60 6 -78 11l17 75c18 -3 47 -8 65 -8c58 0 74 46 86 104l96 467h-243l-99 -479c-25 -123 -78 -170 -177 -170c-26 0 -60 6 -78 11l17 75c18 -3 47 -8 65 -8
c58 0 74 46 86 104l96 467h-93l15 76h94l11 50c26 121 94 148 187 148c32 0 68 -8 86 -14l-17 -77c-15 5 -47 12 -80 12c-49 0 -77 -16 -89 -75l-9 -44h244l11 50c26 121 94 148 187 148c32 0 68 -8 86 -14l-17 -77c-15 5 -47 12 -80 12z" />
    <glyph glyph-name="f_f_i.liga" unicode="ffi" horiz-adv-x="911" 
d="M745 513l-15 -76h-161l-99 -479c-25 -123 -78 -170 -177 -170c-26 0 -60 6 -78 11l17 75c18 -3 47 -8 65 -8c58 0 74 46 86 104l96 467h-243l-99 -479c-25 -123 -78 -170 -177 -170c-26 0 -60 6 -78 11l17 75c18 -3 47 -8 65 -8c58 0 74 46 86 104l96 467h-93l15 76h94
l11 50c26 121 94 148 187 148c32 0 68 -8 86 -14l-17 -77c-15 5 -47 12 -80 12c-49 0 -77 -16 -89 -75l-9 -44h244l11 50c26 121 94 148 187 148c32 0 68 -8 86 -14l-17 -77c-15 5 -47 12 -80 12c-49 0 -77 -16 -89 -75l-9 -44h161zM839 691h98l-19 -90h-98zM699 0l107 513
h89l-106 -513h-90z" />
    <glyph glyph-name="f_f_l.liga" unicode="ffl" horiz-adv-x="910" 
d="M745 513l-15 -76h-161l-99 -479c-25 -123 -78 -170 -177 -170c-26 0 -60 6 -78 11l17 75c18 -3 47 -8 65 -8c58 0 74 46 86 104l96 467h-243l-99 -479c-25 -123 -78 -170 -177 -170c-26 0 -60 6 -78 11l17 75c18 -3 47 -8 65 -8c58 0 74 46 86 104l96 467h-93l15 76h94
l11 50c26 121 94 148 187 148c32 0 68 -8 86 -14l-17 -77c-15 5 -47 12 -80 12c-49 0 -77 -16 -89 -75l-9 -44h244l11 50c26 121 94 148 187 148c32 0 68 -8 86 -14l-17 -77c-15 5 -47 12 -80 12c-49 0 -77 -16 -89 -75l-9 -44h161zM842 691h90l-143 -691h-90z" />
    <glyph glyph-name=".notdef" horiz-adv-x="511" 
d="M511 750v-750h-511v750h511zM424 85v580h-337v-580h337z" />
    <glyph glyph-name="NULL" horiz-adv-x="600" 
 />
    <glyph glyph-name="CR" unicode="&#xd;" horiz-adv-x="251" 
 />
    <glyph glyph-name="space" unicode=" " horiz-adv-x="251" 
 />
    <glyph glyph-name="exclam" unicode="!" horiz-adv-x="200" 
d="M235 650l-110 -473h-74l86 473h98zM100 0h-100l20 97h100z" />
    <glyph glyph-name="quotedbl" unicode="&#x22;" horiz-adv-x="340" 
d="M164 493h-66l35 230h92zM325 493h-67l36 230h91z" />
    <glyph glyph-name="numbersign" unicode="#" horiz-adv-x="600" 
d="M531 506h104l-15 -70h-116l-60 -157h105l-15 -71h-117l-80 -208h-77l79 208h-123l-80 -208h-77l80 208h-105l15 71h118l60 157h-105l15 70h117l84 217h77l-84 -217h123l84 217h77zM304 436l-61 -157h124l60 157h-123z" />
    <glyph glyph-name="dollar" unicode="$" horiz-adv-x="547" 
d="M577 630l-19 -91s-77 30 -174 35l-43 -205c86 -26 172 -61 172 -169c0 -116 -97 -196 -250 -210l-19 -90h-76l18 89c-117 5 -211 42 -211 42l20 91s101 -41 210 -45l46 222c-87 25 -177 57 -177 168c0 128 114 185 252 194l18 89h76l-18 -89c98 -6 175 -31 175 -31z
M172 478c0 -48 42 -70 97 -88l38 182c-69 -8 -135 -35 -135 -94zM413 189c0 49 -39 71 -90 89l-41 -196c78 13 131 51 131 107z" />
    <glyph glyph-name="percent" unicode="%" horiz-adv-x="882" 
d="M284 662c91 0 139 -55 139 -132c0 -103 -55 -249 -209 -249c-94 0 -140 58 -140 136c0 105 54 245 210 245zM276 0h-99l471 650h97zM274 592c-82 0 -112 -106 -112 -171c0 -43 21 -69 61 -69c81 0 108 106 108 167c0 46 -18 73 -57 73zM710 369c91 0 139 -55 139 -132
c0 -103 -55 -249 -209 -249c-94 0 -140 58 -140 136c0 105 54 245 210 245zM700 299c-82 0 -112 -106 -112 -171c0 -43 21 -69 61 -69c81 0 108 106 108 167c0 46 -18 73 -57 73z" />
    <glyph glyph-name="ampersand" unicode="&#x26;" horiz-adv-x="704" 
d="M522 143c56 -57 111 -108 148 -143h-136c-25 24 -55 53 -85 84c-82 -58 -169 -96 -262 -96c-107 0 -160 64 -160 134c0 71 33 152 203 233c-26 46 -42 89 -42 124c0 82 55 185 226 185c78 0 149 -18 177 -33l-18 -90c-35 18 -95 42 -163 42c-74 0 -127 -37 -126 -102
c1 -67 90 -180 187 -284c50 45 92 94 120 132h107c-54 -65 -113 -130 -176 -186zM212 71c63 0 127 28 185 68c-46 50 -92 105 -129 158c-95 -46 -141 -93 -141 -152c0 -39 24 -74 85 -74z" />
    <glyph glyph-name="quotesingle" unicode="'" horiz-adv-x="180" 
d="M164 493h-66l35 230h92z" />
    <glyph glyph-name="parenleft" unicode="(" horiz-adv-x="294" 
d="M321 708h93c-141 -185 -245 -321 -245 -564c0 -144 46 -236 69 -290h-92c-36 98 -59 191 -59 289c0 193 71 361 234 565z" />
    <glyph glyph-name="parenright" unicode=")" horiz-adv-x="294" 
d="M-1 -146h-93c141 185 245 321 245 564c0 144 -46 236 -69 290h92c36 -98 59 -191 59 -289c0 -193 -71 -361 -234 -565z" />
    <glyph glyph-name="asterisk" unicode="*" horiz-adv-x="378" 
d="M360 612l-77 -85l115 -1l-6 -57l-111 25l56 -104l-53 -19l-35 107l-59 -99l-45 32l77 88h-116l6 57l114 -23l-59 100l52 21l38 -107l57 97z" />
    <glyph glyph-name="plus" unicode="+" horiz-adv-x="539" 
d="M317 84h-85v172h-172v85h172v172h85v-172h172v-85h-172v-172z" />
    <glyph glyph-name="comma" unicode="," horiz-adv-x="191" 
d="M8 -129h-86l109 226h106z" />
    <glyph glyph-name="hyphen" unicode="-" horiz-adv-x="441" 
d="M392 262h-330l18 85h330z" />
    <glyph glyph-name="period" unicode="." horiz-adv-x="188" 
d="M100 0h-100l20 97h100z" />
    <glyph glyph-name="slash" unicode="/" horiz-adv-x="504" 
d="M60 -80h-102l522 764h104z" />
    <glyph glyph-name="zero" unicode="0" horiz-adv-x="666" 
d="M420 662c139 0 220 -105 220 -252c0 -245 -160 -422 -355 -422c-141 0 -227 106 -227 255c0 237 148 419 362 419zM399 576c-113 0 -247 -100 -247 -332c0 -102 62 -168 145 -168c106 0 250 106 250 331c0 109 -70 169 -148 169z" />
    <glyph glyph-name="one" unicode="1" horiz-adv-x="373" 
d="M233 552l-173 -44l18 82l268 72l-138 -662h-91z" />
    <glyph glyph-name="two" unicode="2" horiz-adv-x="568" 
d="M359 662c128 0 200 -61 200 -158c0 -169 -222 -315 -400 -418h327l-18 -86h-466l15 81c155 101 441 269 441 406c0 58 -34 89 -128 89c-59 0 -130 -19 -199 -49l19 93c64 24 138 42 209 42z" />
    <glyph glyph-name="three" unicode="3" horiz-adv-x="567" 
d="M566 582l-244 -192c87 -5 195 -39 195 -163c0 -152 -132 -239 -318 -239c-67 0 -149 21 -192 36l19 90c41 -16 119 -38 185 -38c133 0 212 52 212 142c0 89 -94 96 -199 96h-35l20 74l219 176h-307l18 86h442z" />
    <glyph glyph-name="four" unicode="4" horiz-adv-x="614" 
d="M466 148l-30 -148h-94l31 148h-356v62c119 135 302 314 460 440h121c-147 -119 -333 -293 -443 -421h235l33 157h93l-33 -157h96l-17 -81h-96z" />
    <glyph glyph-name="five" unicode="5" horiz-adv-x="570" 
d="M245 564l-47 -159c21 6 64 13 108 13c133 0 222 -73 222 -190c0 -119 -109 -240 -316 -240c-84 0 -167 21 -207 37l19 91c40 -17 122 -40 201 -40c129 0 210 61 210 153c0 59 -43 111 -154 111c-74 0 -159 -23 -202 -40l102 350h394l-19 -86h-311z" />
    <glyph glyph-name="six" unicode="6" horiz-adv-x="600" 
d="M264 -12c-141 0 -226 80 -226 209c0 261 230 424 502 463l-13 -87c-122 -16 -283 -86 -351 -192c0 0 67 59 163 59c137 0 211 -85 211 -200c0 -126 -106 -252 -286 -252zM267 70c103 0 189 72 189 170c0 79 -64 121 -140 121c-102 0 -183 -67 -183 -163
c0 -69 45 -128 134 -128z" />
    <glyph glyph-name="seven" unicode="7" horiz-adv-x="535" 
d="M590 650v-58c-165 -190 -335 -400 -447 -592h-108c113 192 251 370 418 564h-371l17 86h491z" />
    <glyph glyph-name="eight" unicode="8" horiz-adv-x="612" 
d="M376 661c137 0 226 -46 226 -144c0 -102 -82 -156 -145 -174c48 -14 101 -62 101 -137c0 -138 -130 -218 -289 -218c-157 0 -241 56 -241 174c0 94 92 165 171 181c-42 20 -79 64 -79 120c0 129 134 198 256 198zM375 583c-95 0 -160 -48 -160 -117c0 -45 41 -92 118 -92
c98 0 171 60 171 122c0 54 -48 87 -129 87zM320 303c-133 0 -196 -72 -196 -140s67 -95 145 -95c88 0 193 37 193 133c0 52 -42 102 -142 102z" />
    <glyph glyph-name="nine" unicode="9" horiz-adv-x="600" 
d="M361 662c141 0 226 -80 226 -209c0 -261 -230 -424 -502 -463l13 89c122 16 273 77 342 183c0 0 -57 -52 -153 -52c-138 0 -211 85 -211 200c0 126 106 252 285 252zM358 580c-103 0 -186 -72 -186 -170c0 -79 62 -121 137 -121c102 0 183 67 183 163
c0 69 -44 128 -134 128z" />
    <glyph glyph-name="colon" unicode=":" horiz-adv-x="227" 
d="M177 364h-100l20 97h100zM100 0h-100l20 97h100z" />
    <glyph glyph-name="semicolon" unicode=";" horiz-adv-x="230" 
d="M180 364h-100l20 97h100zM8 -129h-86l109 226h106z" />
    <glyph glyph-name="less" unicode="&#x3c;" horiz-adv-x="589" 
d="M566 487l-416 -162l416 -159v-86l-509 200v92l509 201v-86z" />
    <glyph glyph-name="equal" unicode="=" horiz-adv-x="537" 
d="M500 347h-430v85h430v-85zM500 155h-430v85h430v-85z" />
    <glyph glyph-name="greater" unicode="&#x3e;" horiz-adv-x="589" 
d="M563 372v-92l-509 -200v86l416 159l-416 162v86z" />
    <glyph glyph-name="question" unicode="?" horiz-adv-x="544" 
d="M155 163l9 47c37 193 288 166 288 295c0 52 -53 72 -137 72c-74 0 -172 -27 -225 -48l18 89c44 19 135 44 224 44c118 0 217 -43 217 -144c0 -204 -265 -173 -293 -314l-8 -41h-93zM217 0h-100l20 97h100z" />
    <glyph glyph-name="at" unicode="@" horiz-adv-x="976" 
d="M590 695c203 0 366 -106 366 -307c0 -154 -93 -366 -267 -366c-61 0 -90 33 -102 57c-31 -24 -80 -42 -137 -42c-108 0 -182 66 -182 172c0 113 74 253 257 253c48 0 96 -17 124 -36l14 30h66l-62 -301c-5 -26 1 -51 40 -51c107 0 159 176 159 272
c0 163 -126 235 -285 235c-304 0 -439 -249 -439 -430c0 -158 116 -282 315 -282c50 0 100 7 154 20l-18 -86c-52 -11 -102 -16 -150 -16c-252 0 -392 156 -392 356c0 234 160 522 539 522zM518 381c-116 0 -162 -97 -162 -165c0 -63 43 -101 114 -101c56 0 91 22 110 35
l41 197c-20 17 -58 34 -103 34z" />
    <glyph glyph-name="A" unicode="A" horiz-adv-x="664" 
d="M618 0h-95c-5 32 -17 103 -32 181h-322c-33 -60 -64 -121 -96 -181h-105c107 214 241 448 401 650h101c65 -216 115 -432 148 -650zM403 556c-53 -67 -114 -163 -185 -288h256c-19 90 -43 191 -71 288z" />
    <glyph glyph-name="B" unicode="B" horiz-adv-x="654" 
d="M168 650h251c132 0 217 -35 217 -147c0 -83 -75 -154 -133 -170c46 -11 93 -64 93 -135c0 -135 -126 -198 -298 -198h-265zM205 377h180c85 0 151 49 151 113c0 71 -73 72 -138 72h-154zM145 88h162c101 0 190 21 190 110c0 62 -45 92 -133 92h-177z" />
    <glyph glyph-name="C" unicode="C" horiz-adv-x="699" 
d="M500 662c73 0 146 -12 219 -42l-20 -92c-69 28 -138 44 -207 44c-173 0 -334 -105 -334 -302c0 -144 124 -192 243 -192c73 0 145 15 218 44l-20 -94c-74 -29 -149 -40 -223 -40c-153 0 -314 75 -314 275c0 269 222 399 438 399z" />
    <glyph glyph-name="D" unicode="D" horiz-adv-x="711" 
d="M168 650h211c165 0 302 -72 302 -252c0 -287 -220 -398 -436 -398h-212zM145 88h98c224 0 344 120 344 292c0 116 -76 182 -221 182h-122z" />
    <glyph glyph-name="E" unicode="E" horiz-adv-x="590" 
d="M244 564l-39 -187h332l-18 -85h-332l-42 -206h360l-18 -86h-454l135 650h454l-17 -86h-361z" />
    <glyph glyph-name="F" unicode="F" horiz-adv-x="569" 
d="M244 564l-42 -204h331l-18 -88h-331l-57 -272h-94l135 650h454l-17 -86h-361z" />
    <glyph glyph-name="G" unicode="G" horiz-adv-x="714" 
d="M503 662c121 0 215 -43 215 -43l-19 -89s-96 42 -207 42c-171 0 -334 -99 -334 -301c0 -138 108 -194 230 -194c72 0 131 17 131 17l46 225h94l-61 -296s-94 -35 -228 -35c-159 0 -308 80 -308 275c0 265 216 399 441 399z" />
    <glyph glyph-name="H" unicode="H" horiz-adv-x="719" 
d="M493 0l60 290h-366l-60 -290h-94l135 650h94l-56 -271h366l56 271h94l-135 -650h-94z" />
    <glyph glyph-name="I" unicode="I" horiz-adv-x="259" 
d="M33 0l135 650h94l-135 -650h-94z" />
    <glyph glyph-name="J" unicode="J" horiz-adv-x="447" 
d="M453 650l-97 -467c-29 -138 -119 -195 -244 -195c-57 0 -122 16 -156 28l19 88c29 -11 90 -25 152 -25c65 0 121 39 139 126l93 445h94z" />
    <glyph glyph-name="K" unicode="K" horiz-adv-x="610" 
d="M33 0l135 650h94l-135 -650h-94zM211 325c123 128 274 261 354 325h139c-95 -74 -263 -214 -378 -327c82 -88 196 -236 259 -323h-123c-63 94 -174 247 -251 325z" />
    <glyph glyph-name="L" unicode="L" horiz-adv-x="539" 
d="M262 650l-117 -564h360l-18 -86h-454l135 650h94z" />
    <glyph glyph-name="M" unicode="M" horiz-adv-x="850" 
d="M679 650h111c0 -105 -5 -354 -19 -650h-97c16 221 23 429 23 524c-72 -108 -199 -326 -274 -460h-72c-16 129 -47 344 -75 460c-47 -107 -134 -323 -198 -524h-95c80 253 192 520 254 650h104c20 -98 55 -285 77 -435c94 170 204 348 261 435z" />
    <glyph glyph-name="N" unicode="N" horiz-adv-x="726" 
d="M518 0l-282 524l-109 -524h-94l135 650h103l262 -492l102 492h94l-135 -650h-76z" />
    <glyph glyph-name="O" unicode="O" horiz-adv-x="790" 
d="M464 662c195 0 299 -114 299 -285c0 -235 -168 -389 -393 -389c-194 0 -308 115 -308 289c0 230 162 385 402 385zM451 574c-165 0 -293 -107 -293 -295c0 -133 90 -201 224 -201c157 0 285 113 285 293c0 137 -87 203 -216 203z" />
    <glyph glyph-name="P" unicode="P" horiz-adv-x="642" 
d="M168 650h250c75 0 211 -33 211 -188c0 -209 -190 -251 -289 -251h-169l-44 -211h-94zM190 299h156c96 0 184 43 184 161c0 78 -63 102 -129 102h-157z" />
    <glyph glyph-name="Q" unicode="Q" horiz-adv-x="790" 
d="M464 662c195 0 299 -114 299 -285c0 -198 -119 -338 -291 -377l92 -65l-64 -63l-162 117c-175 12 -276 123 -276 288c0 230 162 385 402 385zM451 574c-165 0 -293 -107 -293 -295c0 -133 90 -201 224 -201c157 0 285 113 285 293c0 137 -87 203 -216 203z" />
    <glyph glyph-name="R" unicode="R" horiz-adv-x="634" 
d="M578 0h-112c-43 79 -91 158 -146 237h-143l-50 -237h-94l135 650h254c91 0 207 -41 207 -186c0 -130 -109 -198 -203 -219c54 -78 104 -159 152 -245zM195 325h154c72 0 184 24 184 138c0 71 -62 99 -122 99h-167z" />
    <glyph glyph-name="S" unicode="S" horiz-adv-x="603" 
d="M394 662c85 0 172 -18 214 -32l-19 -91c-40 15 -124 36 -205 36c-83 0 -181 -25 -181 -97c0 -136 341 -64 341 -278c0 -128 -117 -212 -298 -212c-95 0 -193 25 -240 43l20 91c48 -19 142 -45 226 -45c110 0 192 43 192 112c0 143 -339 63 -339 278
c0 140 136 195 289 195z" />
    <glyph glyph-name="T" unicode="T" horiz-adv-x="598" 
d="M411 564l-117 -564h-94l117 564h-244l18 86h582l-18 -86h-244z" />
    <glyph glyph-name="U" unicode="U" horiz-adv-x="706" 
d="M712 650l-75 -366c-36 -174 -128 -296 -333 -296c-175 0 -226 97 -226 205c0 30 4 59 11 91l76 366h94l-78 -373c-4 -19 -10 -40 -10 -71c0 -86 48 -132 144 -132c109 0 197 70 225 204l78 372h94z" />
    <glyph glyph-name="V" unicode="V" horiz-adv-x="633" 
d="M614 650h106c-121 -231 -247 -452 -398 -650h-94c-71 217 -120 433 -148 650h99c25 -182 63 -363 115 -545c124 180 226 363 320 545z" />
    <glyph glyph-name="W" unicode="W" horiz-adv-x="861" 
d="M831 650h97c-92 -226 -193 -443 -306 -650h-99c-28 128 -50 253 -69 377c-33 -70 -148 -266 -219 -377h-92c-27 214 -38 433 -42 650h92c3 -174 11 -349 24 -523c87 138 160 276 231 415h77c14 -141 35 -282 63 -423c91 178 172 355 243 531z" />
    <glyph glyph-name="X" unicode="X" horiz-adv-x="670" 
d="M604 0h-117l-146 258l-241 -258h-123l308 330l-186 320h115l148 -265l240 265h121l-308 -333z" />
    <glyph glyph-name="Y" unicode="Y" horiz-adv-x="541" 
d="M523 650h113c-99 -146 -201 -293 -320 -439l-41 -211h-95l45 221c-64 143 -118 286 -167 429h99c37 -116 79 -232 129 -347c86 114 165 231 237 347z" />
    <glyph glyph-name="Z" unicode="Z" horiz-adv-x="598" 
d="M148 86h375l-18 -86h-517l18 65l481 499h-377l17 86h521l-18 -65z" />
    <glyph glyph-name="bracketleft" unicode="[" horiz-adv-x="296" 
d="M371 708l-14 -66h-99l-149 -721h99l-14 -67h-184l177 854h184z" />
    <glyph glyph-name="backslash" unicode="\" horiz-adv-x="504" 
d="M62 684l522 -764h-102l-524 764h104z" />
    <glyph glyph-name="bracketright" unicode="]" horiz-adv-x="318" 
d="M131 -146h-184l14 67h99l149 721h-99l14 66h184z" />
    <glyph glyph-name="asciicircum" unicode="^" horiz-adv-x="476" 
d="M444 281h-82l-107 276l-105 -276h-82l151 369h73z" />
    <glyph glyph-name="underscore" unicode="_" horiz-adv-x="498" 
d="M433 -300h-500l18 85h500z" />
    <glyph glyph-name="grave" unicode="`" horiz-adv-x="240" 
d="M78 736l104 -145h-83l-131 145h110z" />
    <glyph glyph-name="a" unicode="a" horiz-adv-x="633" 
d="M511 0h-61l-7 40c-43 -33 -105 -52 -168 -52c-113 0 -227 61 -227 212c0 214 172 324 315 324c76 0 139 -27 165 -47l27 36h62zM139 200c0 -96 70 -135 147 -135c58 0 120 22 161 58l57 277c-20 18 -72 41 -140 41c-112 0 -225 -82 -225 -241z" />
    <glyph glyph-name="b" unicode="b" horiz-adv-x="630" 
d="M388 524c123 0 216 -75 216 -221c0 -210 -166 -315 -321 -315c-66 0 -120 24 -162 51l-26 -39h-62l143 691h90l-45 -217c34 24 97 50 167 50zM287 71c130 0 224 98 224 231c0 89 -57 139 -142 139c-68 0 -126 -26 -166 -56l-55 -266c25 -22 71 -48 139 -48z" />
    <glyph glyph-name="c" unicode="c" horiz-adv-x="540" 
d="M386 524c74 0 144 -19 175 -34l-17 -81c-34 15 -102 34 -166 34c-131 0 -238 -89 -238 -229c0 -92 66 -142 165 -142c74 0 152 23 190 40l-18 -88c-34 -15 -108 -36 -185 -36c-135 0 -244 78 -244 223c0 207 167 313 338 313z" />
    <glyph glyph-name="d" unicode="d" horiz-adv-x="633" 
d="M511 0h-61l-7 40c-43 -33 -105 -52 -168 -52c-113 0 -227 61 -227 212c0 214 172 324 315 324c71 0 131 -24 157 -42l45 209h90zM139 200c0 -96 70 -135 147 -135c58 0 120 22 161 58l57 277c-20 18 -72 41 -140 41c-112 0 -225 -82 -225 -241z" />
    <glyph glyph-name="e" unicode="e" horiz-adv-x="584" 
d="M139 224l-2 -28c0 -109 109 -124 170 -124c77 0 159 22 200 38l-19 -87c-35 -15 -115 -35 -203 -35c-123 0 -237 62 -237 207c0 233 169 329 319 329c127 0 192 -66 192 -179c0 -27 -2 -43 -17 -121h-403zM157 302h308c1 7 3 15 3 32c0 69 -33 108 -111 108
c-82 0 -170 -40 -200 -140z" />
    <glyph glyph-name="f" unicode="f" horiz-adv-x="333" 
d="M360 711c32 0 68 -8 86 -14l-17 -77c-15 5 -47 12 -80 12c-49 0 -77 -16 -89 -75l-9 -44h161l-15 -76h-161l-99 -479c-25 -123 -78 -170 -177 -170c-26 0 -60 6 -78 11l17 75c18 -3 47 -8 65 -8c58 0 74 46 86 104l96 467h-93l15 76h94l11 50c26 121 94 148 187 148z" />
    <glyph glyph-name="g" unicode="g" horiz-adv-x="630" 
d="M617 513l-108 -521c-30 -145 -151 -204 -305 -204c-85 0 -164 27 -201 47l18 88c42 -23 124 -53 196 -53c78 0 183 33 208 140l4 20c-42 -27 -98 -42 -154 -42c-113 0 -227 61 -227 212c0 214 172 324 315 324c76 0 139 -27 165 -47l27 36h62zM139 200
c0 -96 70 -135 147 -135c58 0 120 22 161 58l57 277c-20 18 -72 41 -140 41c-112 0 -225 -82 -225 -241z" />
    <glyph glyph-name="h" unicode="h" horiz-adv-x="630" 
d="M33 0l143 691h90l-46 -223c39 24 119 56 196 56c100 0 167 -33 167 -133c0 -22 -4 -44 -8 -65l-67 -326h-90l65 315c4 17 8 38 8 53c0 46 -28 75 -97 75c-76 0 -155 -37 -193 -65l-78 -378h-90z" />
    <glyph glyph-name="i" unicode="i" horiz-adv-x="245" 
d="M154 601l19 90h98l-19 -90h-98zM33 0l107 513h89l-106 -513h-90z" />
    <glyph glyph-name="j" unicode="j" horiz-adv-x="245" 
d="M154 598l19 90h98l-19 -90h-98zM230 513l-111 -537c-26 -127 -70 -188 -198 -188c-48 0 -93 11 -114 20l20 79c18 -7 58 -16 100 -16c75 0 92 62 101 104l113 538h89z" />
    <glyph glyph-name="k" unicode="k" horiz-adv-x="540" 
d="M33 0l143 691h90l-143 -691h-90zM461 513h128c-63 -48 -182 -147 -281 -241c63 -74 151 -198 200 -272h-112c-38 64 -118 182 -200 272c121 123 222 210 265 241z" />
    <glyph glyph-name="l" unicode="l" horiz-adv-x="244" 
d="M33 0l143 691h90l-143 -691h-90z" />
    <glyph glyph-name="m" unicode="m" horiz-adv-x="989" 
d="M409 0l65 315c4 20 7 43 7 53c0 46 -27 75 -95 75c-78 0 -151 -37 -185 -65l-78 -378h-90l107 513h60l10 -51c37 27 117 62 203 62c69 0 122 -17 148 -66c40 28 127 66 220 66c96 0 161 -31 161 -133c0 -22 -4 -44 -8 -65l-67 -326h-90l65 315c4 17 8 37 8 53
c0 46 -28 75 -97 75c-76 0 -147 -35 -179 -62c-1 -14 -4 -36 -8 -54l-67 -327h-90z" />
    <glyph glyph-name="n" unicode="n" horiz-adv-x="612" 
d="M410 524c100 0 167 -33 167 -133c0 -22 -4 -44 -8 -65l-67 -326h-90l65 315c4 17 8 38 8 53c0 46 -28 75 -97 75c-77 0 -155 -37 -192 -65l-79 -378h-90l106 513h61l10 -51c40 27 124 62 206 62z" />
    <glyph glyph-name="o" unicode="o" horiz-adv-x="633" 
d="M380 524h1c125 0 222 -78 222 -212c0 -208 -159 -319 -333 -324c-125 0 -222 78 -222 212c0 211 159 324 332 324zM289 71c117 0 223 89 223 232c0 73 -45 138 -151 138c-117 0 -222 -89 -222 -232c0 -73 45 -138 150 -138z" />
    <glyph glyph-name="p" unicode="p" horiz-adv-x="630" 
d="M385 524c122 0 219 -75 219 -223c0 -207 -159 -313 -320 -313c-63 0 -126 26 -155 45l-48 -233h-90l150 713h60l7 -42c31 23 100 53 177 53zM292 71c124 0 218 100 218 228c0 89 -60 142 -143 142c-70 0 -136 -32 -166 -58l-54 -261c18 -22 69 -51 145 -51z" />
    <glyph glyph-name="q" unicode="q" horiz-adv-x="633" 
d="M470 -200h-90l46 228c-42 -26 -96 -40 -151 -40c-113 0 -227 61 -227 212c0 214 172 324 315 324c76 0 139 -27 165 -47l27 36h62zM139 200c0 -96 70 -135 147 -135c58 0 120 22 161 58l57 277c-20 18 -72 41 -140 41c-112 0 -225 -82 -225 -241z" />
    <glyph glyph-name="r" unicode="r" horiz-adv-x="408" 
d="M446 524l-19 -91c-97 0 -189 -29 -226 -54l-78 -379h-90l107 513h60l10 -51c54 34 148 62 236 62z" />
    <glyph glyph-name="s" unicode="s" horiz-adv-x="522" 
d="M506 499l-16 -79c-32 11 -99 25 -168 25c-59 0 -146 -14 -146 -69c0 -107 299 -26 299 -214c0 -120 -117 -174 -260 -174c-82 0 -165 23 -205 40l17 80c43 -17 124 -39 193 -39c67 0 162 19 162 83c0 117 -301 31 -301 215c0 127 142 157 250 157c77 0 145 -14 175 -25z
" />
    <glyph glyph-name="t" unicode="t" horiz-adv-x="378" 
d="M416 513l-16 -76h-166l-62 -295c-9 -44 -6 -74 57 -74c34 0 73 7 94 13l-15 -82c-22 -5 -64 -11 -98 -11c-63 0 -132 26 -132 113c0 11 1 21 4 37l64 299h-104l16 76h106l39 112h71l-23 -112h165z" />
    <glyph glyph-name="u" unicode="u" horiz-adv-x="621" 
d="M220 513l-65 -316c-4 -17 -7 -34 -7 -49c0 -49 28 -79 106 -79c77 0 150 37 183 65l78 379h90l-107 -513h-59l-9 51c-32 -27 -107 -63 -196 -63c-101 0 -176 46 -176 141c0 21 2 37 6 58l66 326h90z" />
    <glyph glyph-name="v" unicode="v" horiz-adv-x="526" 
d="M470 513h99c-64 -122 -192 -346 -307 -513h-92c-67 190 -109 404 -121 513h88c15 -111 49 -300 90 -418c91 134 192 317 243 418z" />
    <glyph glyph-name="w" unicode="w" horiz-adv-x="851" 
d="M792 513h89c-46 -114 -152 -333 -277 -513h-95c-29 128 -54 270 -65 367c-52 -101 -130 -247 -209 -367h-86c-61 237 -75 448 -78 513h84c7 -97 27 -273 54 -401c103 155 216 389 221 401h84c0 -12 25 -263 57 -415c88 139 178 319 221 415z" />
    <glyph glyph-name="x" unicode="x" horiz-adv-x="520" 
d="M489 0h-111l-113 187l-185 -187h-121l258 253l-156 260h108l116 -197l194 197h117l-265 -260z" />
    <glyph glyph-name="y" unicode="y" horiz-adv-x="532" 
d="M486 513h99c-65 -121 -195 -344 -311 -513c-96 -140 -180 -212 -285 -212c-31 0 -60 5 -73 9l21 88c12 -4 37 -10 60 -10c76 0 128 58 181 140c-62 183 -104 391 -118 498h90c16 -110 52 -298 91 -413c91 134 193 314 245 413z" />
    <glyph glyph-name="z" unicode="z" horiz-adv-x="506" 
d="M132 81h312l-16 -81h-430l18 84l378 348h-295l17 81h416l-18 -84z" />
    <glyph glyph-name="braceleft" unicode="{" horiz-adv-x="368" 
d="M16 316l-15 -69c37 -1 70 -5 95 -26c21 -19 27 -54 13 -121l-7 -34c-28 -136 0 -204 169 -212l14 66c-107 6 -121 35 -99 142l8 38c11 53 13 91 5 116c-11 36 -44 58 -95 65c54 7 97 29 123 65c18 25 31 63 42 115l7 36c22 107 49 137 158 145l14 66
c-169 -7 -228 -74 -254 -198l-11 -50c-13 -66 -33 -101 -62 -120c-35 -22 -68 -24 -105 -24z" />
    <glyph glyph-name="bar" unicode="|" horiz-adv-x="254" 
d="M192 -250h-94v1000h94v-1000z" />
    <glyph glyph-name="braceright" unicode="}" horiz-adv-x="383" 
d="M374 247l15 69c-37 0 -70 2 -95 24c-21 19 -27 54 -14 120l8 36c29 138 -4 205 -169 212l-14 -66c107 -8 120 -38 98 -145l-7 -36c-11 -52 -14 -90 -6 -115c10 -36 45 -58 95 -65c-53 -7 -96 -29 -121 -65c-18 -25 -32 -63 -43 -116l-8 -38c-22 -107 -48 -136 -157 -142
l-14 -66c173 8 229 76 256 207l8 39c14 67 34 102 63 121c33 21 68 25 105 26z" />
    <glyph glyph-name="asciitilde" unicode="~" horiz-adv-x="484" 
d="M383 357h77c0 -69 -54 -116 -123 -116c-61 0 -111 37 -172 37c-30 0 -58 -12 -59 -37h-77c0 69 54 116 123 116c61 0 111 -37 172 -37c30 0 58 12 59 37z" />
    <glyph glyph-name="Aacute" unicode="&#xc1;" horiz-adv-x="664" 
d="M598 855l-131 -145h-85l104 145h112zM618 0h-95c-5 32 -17 103 -32 181h-322c-33 -60 -64 -121 -96 -181h-105c107 214 241 448 401 650h101c65 -216 115 -432 148 -650zM403 556c-53 -67 -114 -163 -185 -288h256c-19 90 -43 191 -71 288z" />
    <glyph glyph-name="Acircumflex" unicode="&#xc2;" horiz-adv-x="664" 
d="M513 855l71 -145h-76l-57 86l-93 -86h-86l131 145h110zM618 0h-95c-5 32 -17 103 -32 181h-322c-33 -60 -64 -121 -96 -181h-105c107 214 241 448 401 650h101c65 -216 115 -432 148 -650zM403 556c-53 -67 -114 -163 -185 -288h256c-19 90 -43 191 -71 288z" />
    <glyph glyph-name="Adieresis" unicode="&#xc4;" horiz-adv-x="664" 
d="M399 805l-20 -98h-100l20 98h100zM597 805l-20 -98h-100l20 98h100zM618 0h-95c-5 32 -17 103 -32 181h-322c-33 -60 -64 -121 -96 -181h-105c107 214 241 448 401 650h101c65 -216 115 -432 148 -650zM403 556c-53 -67 -114 -163 -185 -288h256c-19 90 -43 191 -71 288z
" />
    <glyph glyph-name="Agrave" unicode="&#xc0;" horiz-adv-x="664" 
d="M245 855h112l104 -145h-85zM618 0h-95c-5 32 -17 103 -32 181h-322c-33 -60 -64 -121 -96 -181h-105c107 214 241 448 401 650h101c65 -216 115 -432 148 -650zM403 556c-53 -67 -114 -163 -185 -288h256c-19 90 -43 191 -71 288z" />
    <glyph glyph-name="Aring" unicode="&#xc5;" horiz-adv-x="664" 
d="M435 711c-57 0 -91 32 -91 75c0 59 44 97 116 97c57 0 90 -31 90 -74c0 -45 -31 -98 -115 -98zM455 837c-41 0 -61 -23 -61 -46c0 -26 19 -34 46 -34c38 0 60 20 60 47c0 24 -21 33 -45 33zM618 0h-95c-5 32 -17 103 -32 181h-322c-33 -60 -64 -121 -96 -181h-105
c107 214 241 448 401 650h101c65 -216 115 -432 148 -650zM403 556c-53 -67 -114 -163 -185 -288h256c-19 90 -43 191 -71 288z" />
    <glyph glyph-name="Atilde" unicode="&#xc3;" horiz-adv-x="664" 
d="M542 834h60c-20 -56 -58 -97 -114 -97c-37 0 -78 27 -109 27c-22 0 -31 -10 -40 -30h-60c20 56 58 97 114 97c42 0 73 -27 108 -27c24 0 34 10 41 30zM618 0h-95c-5 32 -17 103 -32 181h-322c-33 -60 -64 -121 -96 -181h-105c107 214 241 448 401 650h101
c65 -216 115 -432 148 -650zM403 556c-53 -67 -114 -163 -185 -288h256c-19 90 -43 191 -71 288z" />
    <glyph glyph-name="AE" unicode="&#xc6;" horiz-adv-x="963" 
d="M655 564l-39 -187h295l-18 -85h-295l-42 -206h322l-18 -86h-416l37 179h-270c-49 -60 -96 -120 -142 -179h-114c230 298 437 527 572 650h468l-18 -86h-322zM499 265l62 303c-102 -102 -194 -203 -279 -303h217z" />
    <glyph glyph-name="Ccedilla" unicode="&#xc7;" horiz-adv-x="699" 
d="M492 572c-173 0 -334 -105 -334 -302c0 -144 124 -192 243 -192c73 0 145 15 218 44l-20 -94c-74 -29 -149 -40 -223 -40h-6l-10 -29c41 -7 60 -31 60 -66c0 -58 -37 -100 -123 -100c-26 0 -52 3 -94 14l13 61c41 -11 58 -13 85 -13c35 0 49 15 49 33c0 15 -14 24 -43 24
c-16 0 -27 -1 -39 -3l39 84c-129 20 -245 100 -245 270c0 269 222 399 438 399c73 0 146 -12 219 -42l-20 -92c-69 28 -138 44 -207 44z" />
    <glyph glyph-name="Eth" unicode="&#xd0;" horiz-adv-x="711" 
d="M168 650h211c165 0 302 -72 302 -252c0 -287 -220 -398 -436 -398h-212l61 293h-80l17 86h81zM145 88h98c224 0 344 120 344 292c0 116 -76 182 -221 182h-122l-38 -183h205l-17 -86h-206z" />
    <glyph glyph-name="Eacute" unicode="&#xc9;" horiz-adv-x="590" 
d="M570 855l-131 -145h-85l104 145h112zM244 564l-39 -187h332l-18 -85h-332l-42 -206h360l-18 -86h-454l135 650h454l-17 -86h-361z" />
    <glyph glyph-name="Ecircumflex" unicode="&#xca;" horiz-adv-x="590" 
d="M485 855l71 -145h-76l-57 86l-93 -86h-86l131 145h110zM244 564l-39 -187h332l-18 -85h-332l-42 -206h360l-18 -86h-454l135 650h454l-17 -86h-361z" />
    <glyph glyph-name="Edieresis" unicode="&#xcb;" horiz-adv-x="590" 
d="M371 805l-20 -98h-100l20 98h100zM569 805l-20 -98h-100l20 98h100zM244 564l-39 -187h332l-18 -85h-332l-42 -206h360l-18 -86h-454l135 650h454l-17 -86h-361z" />
    <glyph glyph-name="Egrave" unicode="&#xc8;" horiz-adv-x="590" 
d="M217 855h112l104 -145h-85zM244 564l-39 -187h332l-18 -85h-332l-42 -206h360l-18 -86h-454l135 650h454l-17 -86h-361z" />
    <glyph glyph-name="Iacute" unicode="&#xcd;" horiz-adv-x="259" 
d="M397 855l-131 -145h-85l104 145h112zM33 0l135 650h94l-135 -650h-94z" />
    <glyph glyph-name="Icircumflex" unicode="&#xce;" horiz-adv-x="259" 
d="M312 855l71 -145h-76l-57 86l-93 -86h-86l131 145h110zM33 0l135 650h94l-135 -650h-94z" />
    <glyph glyph-name="Idieresis" unicode="&#xcf;" horiz-adv-x="259" 
d="M198 805l-20 -98h-100l20 98h100zM396 805l-20 -98h-100l20 98h100zM33 0l135 650h94l-135 -650h-94z" />
    <glyph glyph-name="Igrave" unicode="&#xcc;" horiz-adv-x="259" 
d="M44 855h112l104 -145h-85zM33 0l135 650h94l-135 -650h-94z" />
    <glyph glyph-name="Lslash" unicode="&#x141;" horiz-adv-x="539" 
d="M145 86h360l-18 -86h-454l65 315l-84 -21l17 84l85 21l52 251h94l-47 -226l217 54l-17 -84l-217 -54z" />
    <glyph glyph-name="Ntilde" unicode="&#xd1;" horiz-adv-x="726" 
d="M577 834h60c-20 -56 -58 -97 -114 -97c-37 0 -78 27 -109 27c-22 0 -31 -10 -40 -30h-60c20 56 58 97 114 97c42 0 73 -27 108 -27c24 0 34 10 41 30zM518 0l-282 524l-109 -524h-94l135 650h103l262 -492l102 492h94l-135 -650h-76z" />
    <glyph glyph-name="Oacute" unicode="&#xd3;" horiz-adv-x="790" 
d="M639 855l-131 -145h-85l104 145h112zM464 662c195 0 299 -114 299 -285c0 -235 -168 -389 -393 -389c-194 0 -308 115 -308 289c0 230 162 385 402 385zM451 574c-165 0 -293 -107 -293 -295c0 -133 90 -201 224 -201c157 0 285 113 285 293c0 137 -87 203 -216 203z" />
    <glyph glyph-name="Ocircumflex" unicode="&#xd4;" horiz-adv-x="790" 
d="M554 855l71 -145h-76l-57 86l-93 -86h-86l131 145h110zM464 662c195 0 299 -114 299 -285c0 -235 -168 -389 -393 -389c-194 0 -308 115 -308 289c0 230 162 385 402 385zM451 574c-165 0 -293 -107 -293 -295c0 -133 90 -201 224 -201c157 0 285 113 285 293
c0 137 -87 203 -216 203z" />
    <glyph glyph-name="Odieresis" unicode="&#xd6;" horiz-adv-x="790" 
d="M440 805l-20 -98h-100l20 98h100zM638 805l-20 -98h-100l20 98h100zM464 662c195 0 299 -114 299 -285c0 -235 -168 -389 -393 -389c-194 0 -308 115 -308 289c0 230 162 385 402 385zM451 574c-165 0 -293 -107 -293 -295c0 -133 90 -201 224 -201
c157 0 285 113 285 293c0 137 -87 203 -216 203z" />
    <glyph glyph-name="Ograve" unicode="&#xd2;" horiz-adv-x="790" 
d="M286 855h112l104 -145h-85zM464 662c195 0 299 -114 299 -285c0 -235 -168 -389 -393 -389c-194 0 -308 115 -308 289c0 230 162 385 402 385zM451 574c-165 0 -293 -107 -293 -295c0 -133 90 -201 224 -201c157 0 285 113 285 293c0 137 -87 203 -216 203z" />
    <glyph glyph-name="Oslash" unicode="&#xd8;" horiz-adv-x="790" 
d="M776 614l-64 -61c34 -47 51 -107 51 -176c0 -235 -168 -389 -393 -389c-78 0 -143 19 -193 52l-72 -68l-55 55l69 67c-37 48 -57 110 -57 183c0 230 162 385 402 385c80 0 144 -19 193 -53l63 60zM158 279c0 -48 11 -87 32 -118l396 379c-36 23 -82 34 -135 34
c-165 0 -293 -107 -293 -295zM667 371c0 45 -10 83 -27 113l-392 -375c36 -21 82 -31 134 -31c157 0 285 113 285 293z" />
    <glyph glyph-name="Otilde" unicode="&#xd5;" horiz-adv-x="790" 
d="M583 834h60c-20 -56 -58 -97 -114 -97c-37 0 -78 27 -109 27c-22 0 -31 -10 -40 -30h-60c20 56 58 97 114 97c42 0 73 -27 108 -27c24 0 34 10 41 30zM464 662c195 0 299 -114 299 -285c0 -235 -168 -389 -393 -389c-194 0 -308 115 -308 289c0 230 162 385 402 385z
M451 574c-165 0 -293 -107 -293 -295c0 -133 90 -201 224 -201c157 0 285 113 285 293c0 137 -87 203 -216 203z" />
    <glyph glyph-name="OE" unicode="&#x152;" horiz-adv-x="1001" 
d="M655 564l-39 -187h332l-18 -85h-332l-42 -206h360l-18 -86h-446c-30 -7 -61 -12 -92 -12c-178 0 -298 115 -298 289c0 230 168 385 402 385c40 0 81 -3 118 -12h451l-17 -86h-361zM462 86l98 473c-31 12 -67 16 -109 16c-159 0 -293 -108 -293 -296
c0 -133 89 -203 213 -203c35 0 64 3 91 10z" />
    <glyph glyph-name="Thorn" unicode="&#xde;" horiz-adv-x="620" 
d="M240 545h156c75 0 211 -33 211 -188c0 -209 -190 -251 -289 -251h-169l-22 -106h-94l135 650h94zM168 194h156c96 0 184 43 184 161c0 78 -63 102 -129 102h-157z" />
    <glyph glyph-name="Scaron" unicode="&#x160;" horiz-adv-x="603" 
d="M580 855l-131 -145h-110l-71 145h76l57 -86l93 86h86zM394 662c85 0 172 -18 214 -32l-19 -91c-40 15 -124 36 -205 36c-83 0 -181 -25 -181 -97c0 -136 341 -64 341 -278c0 -128 -117 -212 -298 -212c-95 0 -193 25 -240 43l20 91c48 -19 142 -45 226 -45
c110 0 192 43 192 112c0 143 -339 63 -339 278c0 140 136 195 289 195z" />
    <glyph glyph-name="Uacute" unicode="&#xda;" horiz-adv-x="706" 
d="M615 855l-131 -145h-85l104 145h112zM712 650l-75 -366c-36 -174 -128 -296 -333 -296c-175 0 -226 97 -226 205c0 30 4 59 11 91l76 366h94l-78 -373c-4 -19 -10 -40 -10 -71c0 -86 48 -132 144 -132c109 0 197 70 225 204l78 372h94z" />
    <glyph glyph-name="Ucircumflex" unicode="&#xdb;" horiz-adv-x="706" 
d="M530 855l71 -145h-76l-57 86l-93 -86h-86l131 145h110zM712 650l-75 -366c-36 -174 -128 -296 -333 -296c-175 0 -226 97 -226 205c0 30 4 59 11 91l76 366h94l-78 -373c-4 -19 -10 -40 -10 -71c0 -86 48 -132 144 -132c109 0 197 70 225 204l78 372h94z" />
    <glyph glyph-name="Udieresis" unicode="&#xdc;" horiz-adv-x="706" 
d="M416 805l-20 -98h-100l20 98h100zM614 805l-20 -98h-100l20 98h100zM712 650l-75 -366c-36 -174 -128 -296 -333 -296c-175 0 -226 97 -226 205c0 30 4 59 11 91l76 366h94l-78 -373c-4 -19 -10 -40 -10 -71c0 -86 48 -132 144 -132c109 0 197 70 225 204l78 372h94z" />
    <glyph glyph-name="Ugrave" unicode="&#xd9;" horiz-adv-x="706" 
d="M262 855h112l104 -145h-85zM712 650l-75 -366c-36 -174 -128 -296 -333 -296c-175 0 -226 97 -226 205c0 30 4 59 11 91l76 366h94l-78 -373c-4 -19 -10 -40 -10 -71c0 -86 48 -132 144 -132c109 0 197 70 225 204l78 372h94z" />
    <glyph glyph-name="Yacute" unicode="&#xdd;" horiz-adv-x="541" 
d="M522 855l-131 -145h-85l104 145h112zM523 650h113c-99 -146 -201 -293 -320 -439l-41 -211h-95l45 221c-64 143 -118 286 -167 429h99c37 -116 79 -232 129 -347c86 114 165 231 237 347z" />
    <glyph glyph-name="Ydieresis" unicode="&#x178;" horiz-adv-x="541" 
d="M323 805l-20 -98h-100l20 98h100zM521 805l-20 -98h-100l20 98h100zM523 650h113c-99 -146 -201 -293 -320 -439l-41 -211h-95l45 221c-64 143 -118 286 -167 429h99c37 -116 79 -232 129 -347c86 114 165 231 237 347z" />
    <glyph glyph-name="Zcaron" unicode="&#x17d;" horiz-adv-x="598" 
d="M571 855l-131 -145h-110l-71 145h76l57 -86l93 86h86zM148 86h375l-18 -86h-517l18 65l481 499h-377l17 86h521l-18 -65z" />
    <glyph glyph-name="aacute" unicode="&#xe1;" horiz-adv-x="633" 
d="M553 736l-131 -145h-83l104 145h110zM511 0h-61l-7 40c-43 -33 -105 -52 -168 -52c-113 0 -227 61 -227 212c0 214 172 324 315 324c76 0 139 -27 165 -47l27 36h62zM139 200c0 -96 70 -135 147 -135c58 0 120 22 161 58l57 277c-20 18 -72 41 -140 41
c-112 0 -225 -82 -225 -241z" />
    <glyph glyph-name="acircumflex" unicode="&#xe2;" horiz-adv-x="633" 
d="M461 591l-57 86l-93 -86h-86l131 145h110l71 -145h-76zM511 0h-61l-7 40c-43 -33 -105 -52 -168 -52c-113 0 -227 61 -227 212c0 214 172 324 315 324c76 0 139 -27 165 -47l27 36h62zM139 200c0 -96 70 -135 147 -135c58 0 120 22 161 58l57 277c-20 18 -72 41 -140 41
c-112 0 -225 -82 -225 -241z" />
    <glyph glyph-name="adieresis" unicode="&#xe4;" horiz-adv-x="633" 
d="M351 684l-20 -96h-98l20 96h98zM549 684l-20 -96h-98l20 96h98zM511 0h-61l-7 40c-43 -33 -105 -52 -168 -52c-113 0 -227 61 -227 212c0 214 172 324 315 324c76 0 139 -27 165 -47l27 36h62zM139 200c0 -96 70 -135 147 -135c58 0 120 22 161 58l57 277
c-20 18 -72 41 -140 41c-112 0 -225 -82 -225 -241z" />
    <glyph glyph-name="agrave" unicode="&#xe0;" horiz-adv-x="633" 
d="M206 736h110l104 -145h-83zM511 0h-61l-7 40c-43 -33 -105 -52 -168 -52c-113 0 -227 61 -227 212c0 214 172 324 315 324c76 0 139 -27 165 -47l27 36h62zM139 200c0 -96 70 -135 147 -135c58 0 120 22 161 58l57 277c-20 18 -72 41 -140 41c-112 0 -225 -82 -225 -241z
" />
    <glyph glyph-name="aring" unicode="&#xe5;" horiz-adv-x="633" 
d="M382 580c-57 0 -91 32 -91 75c0 59 44 97 116 97c57 0 90 -31 90 -74c0 -45 -31 -98 -115 -98zM402 706c-41 0 -61 -23 -61 -46c0 -26 19 -34 46 -34c38 0 60 20 60 47c0 24 -21 33 -45 33zM511 0h-61l-7 40c-43 -33 -105 -52 -168 -52c-113 0 -227 61 -227 212
c0 214 172 324 315 324c76 0 139 -27 165 -47l27 36h62zM139 200c0 -96 70 -135 147 -135c58 0 120 22 161 58l57 277c-20 18 -72 41 -140 41c-112 0 -225 -82 -225 -241z" />
    <glyph glyph-name="atilde" unicode="&#xe3;" horiz-adv-x="633" 
d="M498 714h60c-20 -56 -58 -97 -114 -97c-37 0 -78 27 -109 27c-22 0 -31 -10 -40 -30h-60c20 56 58 97 114 97c42 0 73 -27 108 -27c24 0 34 10 41 30zM511 0h-61l-7 40c-43 -33 -105 -52 -168 -52c-113 0 -227 61 -227 212c0 214 172 324 315 324c76 0 139 -27 165 -47
l27 36h62zM139 200c0 -96 70 -135 147 -135c58 0 120 22 161 58l57 277c-20 18 -72 41 -140 41c-112 0 -225 -82 -225 -241z" />
    <glyph glyph-name="ae" unicode="&#xe6;" horiz-adv-x="977" 
d="M549 224l-2 -28c0 -109 109 -124 170 -124c105 0 200 38 200 38l-19 -87s-82 -35 -203 -35c-71 0 -156 20 -201 88c-104 -68 -188 -88 -267 -88c-108 0 -173 55 -173 144c0 109 85 194 254 194c57 0 120 -17 162 -41l7 32c3 12 4 26 4 36c0 72 -64 87 -141 87
c-66 0 -120 -11 -199 -35l19 89c74 21 143 30 207 30c104 0 169 -24 192 -86c59 59 139 86 218 86c127 0 192 -66 192 -179c0 -27 -2 -43 -17 -121h-403zM767 442c-82 0 -170 -40 -200 -140h308c1 7 3 15 3 32c0 69 -33 108 -111 108zM259 70c86 0 164 42 200 65
c-2 14 -4 29 -4 46c0 10 1 22 2 33c-46 25 -109 37 -153 37c-111 0 -152 -53 -152 -112c0 -53 53 -69 107 -69z" />
    <glyph glyph-name="ccedilla" unicode="&#xe7;" horiz-adv-x="540" 
d="M378 443c-131 0 -238 -89 -238 -229c0 -92 66 -142 165 -142c74 0 152 23 190 40l-18 -88c-32 -14 -99 -33 -171 -36l-10 -29c41 -7 60 -31 60 -66c0 -58 -37 -100 -123 -100c-26 0 -52 3 -94 14l13 61c41 -11 58 -13 85 -13c35 0 49 15 49 33c0 15 -14 24 -43 24
c-16 0 -27 -1 -39 -3l39 83c-112 17 -195 92 -195 219c0 207 167 313 338 313c74 0 144 -19 175 -34l-17 -81c-34 15 -102 34 -166 34z" />
    <glyph glyph-name="eth" unicode="&#xf0;" horiz-adv-x="666" 
d="M636 663l-80 -46c46 -48 75 -115 75 -206c0 -219 -113 -423 -345 -423c-138 0 -238 75 -238 212c0 134 104 284 293 284c70 0 138 -20 199 -66c-2 73 -24 121 -60 156l-84 -49l-28 59l51 30c-33 15 -72 25 -114 33l40 76c57 -13 111 -32 157 -61l105 61zM295 73
c147 0 217 126 238 251c-62 58 -122 76 -195 76c-125 0 -193 -91 -193 -198c0 -64 42 -129 150 -129z" />
    <glyph glyph-name="eacute" unicode="&#xe9;" horiz-adv-x="584" 
d="M532 736l-131 -145h-83l104 145h110zM139 224l-2 -28c0 -109 109 -124 170 -124c77 0 159 22 200 38l-19 -87c-35 -15 -115 -35 -203 -35c-123 0 -237 62 -237 207c0 233 169 329 319 329c127 0 192 -66 192 -179c0 -27 -2 -43 -17 -121h-403zM157 302h308c1 7 3 15 3 32
c0 69 -33 108 -111 108c-82 0 -170 -40 -200 -140z" />
    <glyph glyph-name="ecircumflex" unicode="&#xea;" horiz-adv-x="584" 
d="M440 591l-57 86l-93 -86h-86l131 145h110l71 -145h-76zM139 224l-2 -28c0 -109 109 -124 170 -124c77 0 159 22 200 38l-19 -87c-35 -15 -115 -35 -203 -35c-123 0 -237 62 -237 207c0 233 169 329 319 329c127 0 192 -66 192 -179c0 -27 -2 -43 -17 -121h-403zM157 302
h308c1 7 3 15 3 32c0 69 -33 108 -111 108c-82 0 -170 -40 -200 -140z" />
    <glyph glyph-name="edieresis" unicode="&#xeb;" horiz-adv-x="584" 
d="M330 684l-20 -96h-98l20 96h98zM528 684l-20 -96h-98l20 96h98zM139 224l-2 -28c0 -109 109 -124 170 -124c77 0 159 22 200 38l-19 -87c-35 -15 -115 -35 -203 -35c-123 0 -237 62 -237 207c0 233 169 329 319 329c127 0 192 -66 192 -179c0 -27 -2 -43 -17 -121h-403z
M157 302h308c1 7 3 15 3 32c0 69 -33 108 -111 108c-82 0 -170 -40 -200 -140z" />
    <glyph glyph-name="egrave" unicode="&#xe8;" horiz-adv-x="584" 
d="M185 736h110l104 -145h-83zM139 224l-2 -28c0 -109 109 -124 170 -124c77 0 159 22 200 38l-19 -87c-35 -15 -115 -35 -203 -35c-123 0 -237 62 -237 207c0 233 169 329 319 329c127 0 192 -66 192 -179c0 -27 -2 -43 -17 -121h-403zM157 302h308c1 7 3 15 3 32
c0 69 -33 108 -111 108c-82 0 -170 -40 -200 -140z" />
    <glyph glyph-name="dotlessi" unicode="&#x131;" horiz-adv-x="245" 
d="M123 0h-90l106 513h90z" />
    <glyph glyph-name="iacute" unicode="&#xed;" horiz-adv-x="245" 
d="M241 591h-83l104 145h110zM123 0h-90l106 513h90z" />
    <glyph glyph-name="icircumflex" unicode="&#xee;" horiz-adv-x="245" 
d="M223 677l-93 -86h-86l131 145h110l71 -145h-76zM123 0h-90l106 513h90z" />
    <glyph glyph-name="idieresis" unicode="&#xef;" horiz-adv-x="245" 
d="M150 588h-98l20 96h98zM348 588h-98l20 96h98zM123 0h-90l106 513h90z" />
    <glyph glyph-name="igrave" unicode="&#xec;" horiz-adv-x="245" 
d="M135 736l104 -145h-83l-131 145h110zM123 0h-90l106 513h90z" />
    <glyph glyph-name="lslash" unicode="&#x142;" horiz-adv-x="258" 
d="M321 457l-18 -84l-109 -28l-71 -345h-90l66 320l-111 -29l18 84l111 29l59 287h90l-54 -262z" />
    <glyph glyph-name="ntilde" unicode="&#xf1;" horiz-adv-x="612" 
d="M336 644c-22 0 -31 -10 -40 -30h-60c20 56 58 97 114 97c42 0 73 -27 108 -27c24 0 34 10 41 30h60c-20 -56 -58 -97 -114 -97c-37 0 -78 27 -109 27zM410 524c100 0 167 -33 167 -133c0 -22 -4 -44 -8 -65l-67 -326h-90l65 315c4 17 8 38 8 53c0 46 -28 75 -97 75
c-77 0 -155 -37 -192 -65l-79 -378h-90l106 513h61l10 -51c40 27 124 62 206 62z" />
    <glyph glyph-name="oacute" unicode="&#xf3;" horiz-adv-x="633" 
d="M552 736l-131 -145h-83l104 145h110zM380 524h1c125 0 222 -78 222 -212c0 -208 -159 -319 -333 -324c-125 0 -222 78 -222 212c0 211 159 324 332 324zM289 71c117 0 223 89 223 232c0 73 -45 138 -151 138c-117 0 -222 -89 -222 -232c0 -73 45 -138 150 -138z" />
    <glyph glyph-name="ocircumflex" unicode="&#xf4;" horiz-adv-x="633" 
d="M460 591l-57 86l-93 -86h-86l131 145h110l71 -145h-76zM380 524h1c125 0 222 -78 222 -212c0 -208 -159 -319 -333 -324c-125 0 -222 78 -222 212c0 211 159 324 332 324zM289 71c117 0 223 89 223 232c0 73 -45 138 -151 138c-117 0 -222 -89 -222 -232
c0 -73 45 -138 150 -138z" />
    <glyph glyph-name="odieresis" unicode="&#xf6;" horiz-adv-x="633" 
d="M350 684l-20 -96h-98l20 96h98zM548 684l-20 -96h-98l20 96h98zM380 524h1c125 0 222 -78 222 -212c0 -208 -159 -319 -333 -324c-125 0 -222 78 -222 212c0 211 159 324 332 324zM289 71c117 0 223 89 223 232c0 73 -45 138 -151 138c-117 0 -222 -89 -222 -232
c0 -73 45 -138 150 -138z" />
    <glyph glyph-name="ograve" unicode="&#xf2;" horiz-adv-x="633" 
d="M205 736h110l104 -145h-83zM380 524h1c125 0 222 -78 222 -212c0 -208 -159 -319 -333 -324c-125 0 -222 78 -222 212c0 211 159 324 332 324zM289 71c117 0 223 89 223 232c0 73 -45 138 -151 138c-117 0 -222 -89 -222 -232c0 -73 45 -138 150 -138z" />
    <glyph glyph-name="oslash" unicode="&#xf8;" horiz-adv-x="640" 
d="M613 482l-47 -45c24 -33 37 -75 37 -125c0 -208 -159 -319 -333 -324c-51 0 -97 13 -134 37l-54 -51l-56 54l55 53c-21 32 -33 72 -33 119c0 211 159 324 332 324h1c48 0 92 -12 128 -33l47 45zM139 209c0 -22 4 -42 12 -61l289 277c-21 10 -47 16 -79 16
c-117 0 -222 -89 -222 -232zM512 303c0 24 -5 47 -15 68l-293 -281c22 -12 50 -19 85 -19c117 0 223 89 223 232z" />
    <glyph glyph-name="otilde" unicode="&#xf5;" horiz-adv-x="633" 
d="M497 714h60c-20 -56 -58 -97 -114 -97c-37 0 -78 27 -109 27c-22 0 -31 -10 -40 -30h-60c20 56 58 97 114 97c42 0 73 -27 108 -27c24 0 34 10 41 30zM380 524h1c125 0 222 -78 222 -212c0 -208 -159 -319 -333 -324c-125 0 -222 78 -222 212c0 211 159 324 332 324z
M289 71c117 0 223 89 223 232c0 73 -45 138 -151 138c-117 0 -222 -89 -222 -232c0 -73 45 -138 150 -138z" />
    <glyph glyph-name="oe" unicode="&#x153;" horiz-adv-x="1037" 
d="M592 224l-2 -28c0 -109 109 -124 170 -124c105 0 200 38 200 38l-19 -87s-82 -35 -203 -35c-98 0 -179 32 -212 116c-63 -73 -157 -116 -256 -116c-125 0 -222 78 -222 212c0 211 159 324 332 324h1c88 0 163 -42 199 -112c60 76 152 112 240 112c124 0 192 -69 192 -179
c0 -27 -2 -43 -17 -121h-403zM810 442c-82 0 -170 -40 -200 -140h308c1 7 3 15 3 32c0 69 -33 108 -111 108zM289 71h1c117 0 222 89 222 232c0 73 -45 138 -151 138c-117 0 -222 -89 -222 -232c0 -73 45 -138 150 -138z" />
    <glyph glyph-name="thorn" unicode="&#xfe;" horiz-adv-x="630" 
d="M385 524c122 0 219 -75 219 -223c0 -207 -159 -313 -320 -313c-63 0 -125 26 -155 45l-48 -233h-90l185 891h90l-44 -211c35 22 96 44 163 44zM292 71c124 0 218 100 218 228c0 89 -60 142 -143 142c-68 0 -135 -32 -165 -57l-54 -263c18 -21 69 -50 144 -50z" />
    <glyph glyph-name="scaron" unicode="&#x161;" horiz-adv-x="522" 
d="M517 736l-131 -145h-110l-71 145h76l57 -86l93 86h86zM506 499l-16 -79c-32 11 -99 25 -168 25c-59 0 -146 -14 -146 -69c0 -107 299 -26 299 -214c0 -120 -117 -174 -260 -174c-82 0 -165 23 -205 40l17 80c43 -17 124 -39 193 -39c67 0 162 19 162 83
c0 117 -301 31 -301 215c0 127 142 157 250 157c77 0 145 -14 175 -25z" />
    <glyph glyph-name="germandbls" unicode="&#xdf;" horiz-adv-x="574" 
d="M346 712c101 0 169 -54 169 -128c0 -11 -1 -23 -4 -35c-29 -138 -151 -114 -160 -176c-2 -17 3 -26 49 -47l58 -27c58 -27 86 -65 86 -125c0 -100 -50 -186 -218 -186c-48 0 -98 11 -149 25l18 83c52 -19 92 -27 138 -27c94 0 117 51 117 96c0 30 -20 49 -55 65l-74 33
c-58 26 -75 70 -64 116c32 137 142 83 161 175c1 6 2 13 2 18c0 36 -28 56 -84 56c-60 0 -93 -25 -108 -97l-110 -531h-90l113 539c27 127 90 173 205 173z" />
    <glyph glyph-name="uacute" unicode="&#xfa;" horiz-adv-x="621" 
d="M545 736l-131 -145h-83l104 145h110zM220 513l-65 -316c-4 -17 -7 -34 -7 -49c0 -49 28 -79 106 -79c77 0 150 37 183 65l78 379h90l-107 -513h-59l-9 51c-32 -27 -107 -63 -196 -63c-101 0 -176 46 -176 141c0 21 2 37 6 58l66 326h90z" />
    <glyph glyph-name="ucircumflex" unicode="&#xfb;" horiz-adv-x="621" 
d="M453 591l-57 86l-93 -86h-86l131 145h110l71 -145h-76zM220 513l-65 -316c-4 -17 -7 -34 -7 -49c0 -49 28 -79 106 -79c77 0 150 37 183 65l78 379h90l-107 -513h-59l-9 51c-32 -27 -107 -63 -196 -63c-101 0 -176 46 -176 141c0 21 2 37 6 58l66 326h90z" />
    <glyph glyph-name="udieresis" unicode="&#xfc;" horiz-adv-x="621" 
d="M343 684l-20 -96h-98l20 96h98zM541 684l-20 -96h-98l20 96h98zM220 513l-65 -316c-4 -17 -7 -34 -7 -49c0 -49 28 -79 106 -79c77 0 150 37 183 65l78 379h90l-107 -513h-59l-9 51c-32 -27 -107 -63 -196 -63c-101 0 -176 46 -176 141c0 21 2 37 6 58l66 326h90z" />
    <glyph glyph-name="ugrave" unicode="&#xf9;" horiz-adv-x="621" 
d="M198 736h110l104 -145h-83zM220 513l-65 -316c-4 -17 -7 -34 -7 -49c0 -49 28 -79 106 -79c77 0 150 37 183 65l78 379h90l-107 -513h-59l-9 51c-32 -27 -107 -63 -196 -63c-101 0 -176 46 -176 141c0 21 2 37 6 58l66 326h90z" />
    <glyph glyph-name="yacute" unicode="&#xfd;" horiz-adv-x="532" 
d="M503 736l-131 -145h-83l104 145h110zM486 513h99c-65 -121 -195 -344 -311 -513c-96 -140 -180 -212 -285 -212c-31 0 -60 5 -73 9l21 88c12 -4 37 -10 60 -10c76 0 128 58 181 140c-62 183 -104 391 -118 498h90c16 -110 52 -298 91 -413c91 134 193 314 245 413z" />
    <glyph glyph-name="ydieresis" unicode="&#xff;" horiz-adv-x="532" 
d="M301 684l-20 -96h-98l20 96h98zM499 684l-20 -96h-98l20 96h98zM486 513h99c-65 -121 -195 -344 -311 -513c-96 -140 -180 -212 -285 -212c-31 0 -60 5 -73 9l21 88c12 -4 37 -10 60 -10c76 0 128 58 181 140c-62 183 -104 391 -118 498h90c16 -110 52 -298 91 -413
c91 134 193 314 245 413z" />
    <glyph glyph-name="zcaron" unicode="&#x17e;" horiz-adv-x="506" 
d="M509 736l-131 -145h-110l-71 145h76l57 -86l93 86h86zM132 81h312l-16 -81h-430l18 84l378 348h-295l17 81h416l-18 -84z" />
    <glyph glyph-name="fi" unicode="&#xfb01;" horiz-adv-x="578" 
d="M360 711c32 0 68 -8 86 -14l-17 -77c-15 5 -47 12 -80 12c-49 0 -77 -16 -89 -75l-9 -44h161l-15 -76h-161l-99 -479c-25 -123 -78 -170 -177 -170c-26 0 -60 6 -78 11l17 75c18 -3 47 -8 65 -8c58 0 74 46 86 104l96 467h-93l15 76h94l11 50c26 121 94 148 187 148z
M487 601l19 90h98l-19 -90h-98zM366 0l107 513h89l-106 -513h-90z" />
    <glyph glyph-name="fl" unicode="&#xfb02;" horiz-adv-x="577" 
d="M360 711c32 0 68 -8 86 -14l-17 -77c-15 5 -47 12 -80 12c-49 0 -77 -16 -89 -75l-9 -44h161l-15 -76h-161l-99 -479c-25 -123 -78 -170 -177 -170c-26 0 -60 6 -78 11l17 75c18 -3 47 -8 65 -8c58 0 74 46 86 104l96 467h-93l15 76h94l11 50c26 121 94 148 187 148z
M366 0l143 691h90l-143 -691h-90z" />
    <glyph glyph-name="ordfeminine" unicode="&#xaa;" horiz-adv-x="547" 
d="M389 662c106 0 160 -27 160 -115c0 -20 -2 -43 -8 -70l-52 -252h-62l-5 32c-50 -25 -99 -42 -149 -42c-96 0 -156 36 -156 110c0 11 1 22 4 35c20 99 110 145 217 145c48 0 88 -12 121 -28l3 14c2 10 3 19 3 27c0 55 -45 66 -104 66c-51 0 -109 -10 -174 -28l17 81
c75 18 131 25 185 25zM206 346c0 -41 46 -52 82 -52c58 0 109 21 140 38l15 68c-32 16 -74 28 -117 28c-52 0 -107 -15 -119 -70c-1 -4 -1 -8 -1 -12zM63 85h397l-18 -85h-397z" />
    <glyph glyph-name="ordmasculine" unicode="&#xba;" horiz-adv-x="549" 
d="M382 661c106 0 188 -57 188 -169c0 -17 -2 -35 -6 -55c-31 -150 -154 -223 -276 -223c-106 0 -189 56 -189 169c0 16 2 35 6 54c31 148 154 224 277 224zM366 583c-82 0 -155 -56 -174 -146c-2 -12 -4 -24 -4 -35c0 -60 36 -108 119 -108c97 0 156 67 171 143
c3 13 4 25 4 37c0 68 -47 109 -116 109zM443 0h-397l18 85h397z" />
    <glyph glyph-name="Acy" unicode="&#x410;" horiz-adv-x="664" 
d="M618 0h-95c-5 32 -17 103 -32 181h-322c-33 -60 -64 -121 -96 -181h-105c107 214 241 448 401 650h101c65 -216 115 -432 148 -650zM403 556c-53 -67 -114 -163 -185 -288h256c-19 90 -43 191 -71 288z" />
    <glyph glyph-name="Becy" unicode="&#x411;" horiz-adv-x="609" 
d="M213 417h145c135 0 216 -65 216 -185c0 -90 -62 -232 -289 -232h-252l135 650h416l-18 -86h-322zM143 86h151c130 0 180 77 180 144c0 66 -46 101 -132 101h-148z" />
    <glyph glyph-name="Vecy" unicode="&#x412;" horiz-adv-x="654" 
d="M168 650h251c132 0 217 -35 217 -147c0 -83 -75 -154 -133 -170c46 -11 93 -64 93 -135c0 -135 -126 -198 -298 -198h-265zM205 377h180c85 0 151 49 151 113c0 71 -73 72 -138 72h-154zM145 88h162c101 0 190 21 190 110c0 62 -45 92 -133 92h-177z" />
    <glyph glyph-name="Gecy" unicode="&#x413;" horiz-adv-x="499" 
d="M556 564h-312l-117 -564h-94l135 650h406z" />
    <glyph glyph-name="Gjecy" unicode="&#x403;" horiz-adv-x="499" 
d="M392 710h-85l104 145h112zM556 564h-312l-117 -564h-94l135 650h406z" />
    <glyph glyph-name="Gheupturncy" unicode="&#x490;" horiz-adv-x="506" 
d="M573 787l-46 -223h-313l-117 -564h-94l135 650h317l28 137h90z" />
    <glyph glyph-name="Decy" unicode="&#x414;" horiz-adv-x="683" 
d="M561 86h85l-46 -223h-91l28 137h-494l-28 -137h-90l46 223h61c40 25 70 84 107 169c34 79 86 240 129 396l410 -1zM467 86l99 478h-229c-42 -154 -82 -265 -121 -351c-25 -55 -50 -95 -79 -127h330z" />
    <glyph glyph-name="Iecy" unicode="&#x415;" horiz-adv-x="590" 
d="M244 564l-39 -187h332l-18 -85h-332l-42 -206h360l-18 -86h-454l135 650h454l-17 -86h-361z" />
    <glyph glyph-name="Iegravecy" unicode="&#x400;" horiz-adv-x="590" 
d="M217 855h112l104 -145h-85zM244 564l-39 -187h332l-18 -85h-332l-42 -206h360l-18 -86h-454l135 650h454l-17 -86h-361z" />
    <glyph glyph-name="Iocy" unicode="&#x401;" horiz-adv-x="590" 
d="M371 805l-20 -98h-100l20 98h100zM569 805l-20 -98h-100l20 98h100zM244 564l-39 -187h332l-18 -85h-332l-42 -206h360l-18 -86h-454l135 650h454l-17 -86h-361z" />
    <glyph glyph-name="Zhecy" unicode="&#x416;" horiz-adv-x="894" 
d="M855 650h123c-113 -107 -218 -217 -313 -331c68 -109 121 -205 181 -319h-111c-44 92 -91 183 -146 274h-85l-57 -274h-90l57 274h-81c-87 -91 -163 -177 -243 -274h-122c98 116 197 223 301 330c-52 114 -109 213 -169 320h107c51 -95 99 -194 143 -290h82l60 290h90
l-60 -290h74c79 97 165 193 259 290z" />
    <glyph glyph-name="Zecy" unicode="&#x417;" horiz-adv-x="611" 
d="M368 662c156 0 225 -49 225 -145c0 -61 -45 -142 -133 -176v-1c54 -20 93 -64 93 -135c0 -95 -72 -217 -307 -217c-92 0 -195 27 -233 43l20 91c88 -34 154 -46 219 -46c166 0 202 76 202 126c0 59 -47 88 -145 88h-154l17 86h154c129 0 165 70 165 123
c0 49 -41 75 -139 75c-74 0 -154 -20 -232 -46l19 98c63 17 155 36 229 36z" />
    <glyph glyph-name="Iicy" unicode="&#x418;" horiz-adv-x="730" 
d="M261 650l-104 -498l472 498h104l-135 -650h-93l108 521l-492 -521h-88l135 650h93z" />
    <glyph glyph-name="Iishortcy" unicode="&#x419;" horiz-adv-x="730" 
d="M626 817h-67c-22 -40 -53 -55 -93 -55c-31 0 -50 14 -48 55h-76c-10 -76 22 -120 111 -120c76 0 140 39 173 120zM261 650l-104 -498l472 498h104l-135 -650h-93l108 521l-492 -521h-88l135 650h93z" />
    <glyph glyph-name="Iigravecy" unicode="&#x40d;" horiz-adv-x="730" 
d="M389 855l104 -145h-85l-131 145h112zM261 650l-104 -498l472 498h104l-135 -650h-93l108 521l-492 -521h-88l135 650h93z" />
    <glyph glyph-name="Kacy" unicode="&#x41a;" horiz-adv-x="609" 
d="M566 650h137c-140 -110 -266 -225 -374 -335c88 -105 157 -197 242 -315h-119c-68 103 -129 185 -201 274h-67l-57 -274h-94l135 650h94l-60 -290h57c92 96 191 191 307 290z" />
    <glyph glyph-name="Kjecy" unicode="&#x40c;" horiz-adv-x="609" 
d="M461 710h-85l104 145h112zM566 650h137c-140 -110 -266 -225 -374 -335c88 -105 157 -197 242 -315h-119c-68 103 -129 185 -201 274h-67l-57 -274h-94l135 650h94l-60 -290h57c92 96 191 191 307 290z" />
    <glyph glyph-name="Elcy" unicode="&#x41b;" horiz-adv-x="617" 
d="M644 650h-400c-43 -156 -95 -316 -128 -395c-48 -115 -89 -185 -151 -185c-7 0 -8 0 -19 1l-16 -80c22 -3 23 -3 32 -3c108 0 172 77 234 221c37 86 75 201 120 355h216l-117 -564h94z" />
    <glyph glyph-name="Emcy" unicode="&#x41c;" horiz-adv-x="850" 
d="M679 650h111c0 -105 -5 -354 -19 -650h-97c16 221 23 429 23 524c-72 -108 -199 -326 -274 -460h-72c-16 129 -47 344 -75 460c-47 -107 -134 -323 -198 -524h-95c80 253 192 520 254 650h104c20 -98 55 -285 77 -435c94 170 204 348 261 435z" />
    <glyph glyph-name="Ency" unicode="&#x41d;" horiz-adv-x="719" 
d="M493 0l60 290h-366l-60 -290h-94l135 650h94l-56 -271h366l56 271h94l-135 -650h-94z" />
    <glyph glyph-name="Ocy" unicode="&#x41e;" horiz-adv-x="790" 
d="M464 662c195 0 299 -114 299 -285c0 -235 -168 -389 -393 -389c-194 0 -308 115 -308 289c0 230 162 385 402 385zM451 574c-165 0 -293 -107 -293 -295c0 -133 90 -201 224 -201c157 0 285 113 285 293c0 137 -87 203 -216 203z" />
    <glyph glyph-name="Pecy" unicode="&#x41f;" horiz-adv-x="714" 
d="M582 0h-94l117 564h-361l-117 -564h-94l135 650h549z" />
    <glyph glyph-name="Ercy" unicode="&#x420;" horiz-adv-x="642" 
d="M168 650h250c75 0 211 -33 211 -188c0 -209 -190 -251 -289 -251h-169l-44 -211h-94zM190 299h156c96 0 184 43 184 161c0 78 -63 102 -129 102h-157z" />
    <glyph glyph-name="Escy" unicode="&#x421;" horiz-adv-x="699" 
d="M500 662c73 0 146 -12 219 -42l-20 -92c-69 28 -138 44 -207 44c-173 0 -334 -105 -334 -302c0 -144 124 -192 243 -192c73 0 145 15 218 44l-20 -94c-74 -29 -149 -40 -223 -40c-153 0 -314 75 -314 275c0 269 222 399 438 399z" />
    <glyph glyph-name="Tecy" unicode="&#x422;" horiz-adv-x="598" 
d="M411 564l-117 -564h-94l117 564h-244l18 86h582l-18 -86h-244z" />
    <glyph glyph-name="Ucy" unicode="&#x423;" horiz-adv-x="586" 
d="M573 650h113c-131 -195 -359 -490 -498 -650h-118c61 70 124 144 184 219c-28 56 -112 252 -170 431h100c32 -106 99 -281 132 -352c93 119 182 239 257 352z" />
    <glyph glyph-name="Ushortcy" unicode="&#x40e;" horiz-adv-x="586" 
d="M409 708c-89 0 -132 46 -125 119h77c-3 -31 12 -53 54 -53c41 0 65 22 76 53h77c-23 -73 -70 -119 -159 -119zM573 650h113c-131 -195 -359 -490 -498 -650h-118c61 70 124 144 184 219c-28 56 -112 252 -170 431h100c32 -106 99 -281 132 -352c93 119 182 239 257 352z
" />
    <glyph glyph-name="Efcy" unicode="&#x424;" horiz-adv-x="838" 
d="M811 393c0 -170 -100 -393 -398 -405l-5 -40h-95l9 44c-174 21 -260 124 -260 266c0 175 98 386 399 403l8 41h90l-8 -42c171 -18 260 -124 260 -267zM161 266c0 -107 61 -174 180 -189l103 497c-221 -18 -283 -180 -283 -308zM530 574l-103 -500c222 13 286 193 286 313
c0 106 -59 174 -183 187z" />
    <glyph glyph-name="Hacy" unicode="&#x425;" horiz-adv-x="670" 
d="M604 0h-117l-146 258l-241 -258h-123l308 330l-186 320h115l148 -265l240 265h121l-308 -333z" />
    <glyph glyph-name="Checy" unicode="&#x427;" horiz-adv-x="627" 
d="M629 650l-134 -649h-94l51 245c-52 -30 -126 -61 -200 -61c-105 0 -162 35 -162 139c0 26 4 56 11 91l48 235h94l-49 -239c-5 -26 -8 -48 -8 -65c0 -58 28 -75 87 -75c86 0 148 32 197 65l65 314h94z" />
    <glyph glyph-name="Tsecy" unicode="&#x426;" horiz-adv-x="707" 
d="M585 86h85l-46 -223h-90l28 137h-529l135 650h94l-117 -564h346l117 564h94z" />
    <glyph glyph-name="Shacy" unicode="&#x428;" horiz-adv-x="949" 
d="M952 650l-135 -650h-784l135 650h94l-117 -564h253l117 564h90l-117 -564h253l117 564h94z" />
    <glyph glyph-name="Shchacy" unicode="&#x429;" horiz-adv-x="957" 
d="M835 86h85l-46 -223h-90l28 137h-779l135 650h94l-117 -564h253l117 564h90l-117 -564h253l117 564h94z" />
    <glyph glyph-name="Dzhecy" unicode="&#x40f;" horiz-adv-x="699" 
d="M567 0h-222l-28 -137h-90l28 137h-222l135 650h94l-117 -564h346l117 564h94z" />
    <glyph glyph-name="Iacy" unicode="&#x42f;" horiz-adv-x="642" 
d="M645 650l-135 -650h-94l49 237h-132c-88 -79 -166 -158 -235 -237h-123c74 84 156 168 249 252c-70 16 -126 74 -126 167c0 130 102 231 276 231h271zM533 564h-166c-104 0 -169 -56 -169 -134c0 -73 45 -107 131 -107h154z" />
    <glyph glyph-name="Softsigncy" unicode="&#x42c;" horiz-adv-x="589" 
d="M213 417h145c135 0 216 -65 216 -185c0 -90 -62 -232 -289 -232h-252l135 650h94zM143 86h151c130 0 180 77 180 144c0 66 -46 101 -132 101h-148z" />
    <glyph glyph-name="Hardsigncy" unicode="&#x42a;" horiz-adv-x="710" 
d="M338 417h145c135 0 216 -65 216 -185c0 -90 -62 -232 -289 -232h-252l118 566h-201l18 84h294zM268 86h151c130 0 180 77 180 144c0 66 -46 101 -132 101h-148z" />
    <glyph glyph-name="Yerucy" unicode="&#x42b;" horiz-adv-x="859" 
d="M213 417h145c135 0 216 -65 216 -185c0 -90 -62 -232 -289 -232h-252l135 650h94zM727 0h-94l135 650h94zM143 86h151c130 0 180 77 180 144c0 66 -46 101 -132 101h-148z" />
    <glyph glyph-name="Ljecy" unicode="&#x409;" horiz-adv-x="973" 
d="M597 417h145c135 0 216 -65 216 -185c0 -90 -62 -232 -289 -232h-252l117 564h-217c-45 -154 -83 -269 -120 -355c-62 -144 -126 -221 -234 -221c-9 0 -10 0 -32 3l16 80c11 -1 12 -1 19 -1c62 0 103 70 151 185c33 79 85 239 128 395h401zM527 86h151
c130 0 180 77 180 144c0 66 -46 101 -132 101h-148z" />
    <glyph glyph-name="Njecy" unicode="&#x40a;" horiz-adv-x="1019" 
d="M645 389h134c134 0 225 -44 225 -170c0 -88 -60 -219 -284 -219h-247l62 303h-347l-61 -303h-94l135 650h94l-55 -261h346l55 261h94zM583 86h146c127 0 175 67 175 131c0 67 -53 86 -141 86h-137z" />
    <glyph glyph-name="Dzecy" unicode="&#x405;" horiz-adv-x="603" 
d="M394 662c85 0 172 -18 214 -32l-19 -91c-40 15 -124 36 -205 36c-83 0 -181 -25 -181 -97c0 -136 341 -64 341 -278c0 -128 -117 -212 -298 -212c-95 0 -193 25 -240 43l20 91c48 -19 142 -45 226 -45c110 0 192 43 192 112c0 143 -339 63 -339 278
c0 140 136 195 289 195z" />
    <glyph glyph-name="Ecy" unicode="&#x404;" horiz-adv-x="659" 
d="M454 572c-129 0 -241 -66 -282 -192h353l-18 -86h-350l-1 -24c0 -144 98 -192 207 -192c73 0 145 15 218 44l-20 -94c-74 -29 -149 -40 -223 -40c-143 0 -278 75 -278 275c0 269 196 399 402 399c72 0 145 -12 219 -42l-20 -92c-69 28 -138 44 -207 44z" />
    <glyph glyph-name="Ereversedcy" unicode="&#x42d;" horiz-adv-x="635" 
d="M338 662c157 0 270 -88 270 -252c0 -205 -119 -422 -401 -422c-76 0 -187 25 -227 42l20 90c87 -30 155 -45 217 -45c166 0 251 102 281 219h-352l18 86h347v21c0 115 -66 174 -189 174c-85 0 -157 -19 -234 -51l19 96c59 22 151 42 231 42z" />
    <glyph glyph-name="Icy" unicode="&#x406;" horiz-adv-x="259" 
d="M33 0l135 650h94l-135 -650h-94z" />
    <glyph glyph-name="Yicy" unicode="&#x407;" horiz-adv-x="259" 
d="M198 805l-20 -98h-100l20 98h100zM396 805l-20 -98h-100l20 98h100zM33 0l135 650h94l-135 -650h-94z" />
    <glyph glyph-name="Jecy" unicode="&#x408;" horiz-adv-x="447" 
d="M453 650l-97 -467c-29 -138 -119 -195 -244 -195c-57 0 -122 16 -156 28l19 88c29 -11 90 -25 152 -25c65 0 121 39 139 126l93 445h94z" />
    <glyph glyph-name="Tshecy" unicode="&#x40b;" horiz-adv-x="791" 
d="M579 450c105 0 172 -33 172 -133c0 -22 -4 -44 -8 -65l-53 -252h-94l50 237c4 17 8 38 8 53c0 46 -24 75 -98 75c-84 0 -164 -39 -200 -67l-62 -298h-94l117 564h-244l18 86h582l-18 -86h-244l-36 -171c43 26 123 57 204 57z" />
    <glyph glyph-name="Iucy" unicode="&#x42e;" horiz-adv-x="997" 
d="M681 662c188 0 289 -113 289 -281c0 -233 -156 -393 -379 -393c-165 0 -292 117 -292 294v8h-111l-61 -290h-94l135 650h94l-57 -274h105c40 173 190 286 371 286zM600 78c156 0 274 119 274 297c0 134 -84 199 -206 199c-137 0 -273 -107 -273 -295
c0 -133 100 -201 205 -201z" />
    <glyph glyph-name="Djecy" unicode="&#x402;" horiz-adv-x="791" 
d="M751 317c0 -22 -4 -44 -8 -65l-16 -76c-27 -126 -73 -188 -201 -188c-39 0 -82 7 -114 20l20 79c29 -10 66 -16 100 -16c75 0 92 63 101 104l13 62c4 17 8 38 8 53c0 46 -24 75 -98 75c-84 0 -164 -39 -200 -67l-62 -298h-94l117 564h-244l18 86h582l-18 -86h-244
l-36 -171c43 26 123 57 204 57c105 0 172 -33 172 -133z" />
    <glyph glyph-name="Ghestrokecy" unicode="&#x492;" horiz-adv-x="506" 
d="M244 564l-38 -185h175l-17 -86h-176l-61 -293h-94l61 293h-80l17 86h81l56 271h406l-18 -86h-312z" />
    <glyph glyph-name="Zhedescendercy" unicode="&#x496;" horiz-adv-x="904" 
d="M665 319c50 -81 92 -154 135 -233h95l-46 -223h-90l28 137h-52c-44 92 -91 183 -146 274h-85l-57 -274h-90l57 274h-81c-87 -91 -163 -177 -243 -274h-122c98 116 197 223 301 330c-52 114 -109 213 -169 320h107c51 -95 99 -194 143 -290h82l60 290h90l-60 -290h74
c79 97 165 193 259 290h123c-113 -107 -218 -217 -313 -331z" />
    <glyph glyph-name="Kadescendercy" unicode="&#x49a;" horiz-adv-x="619" 
d="M329 315c66 -78 121 -149 179 -229h102l-46 -223h-90l28 137h-50c-68 103 -129 185 -201 274h-67l-57 -274h-94l135 650h94l-60 -290h57c92 96 191 191 307 290h137c-140 -110 -266 -225 -374 -335z" />
    <glyph glyph-name="Kaverticalstrokecy" unicode="&#x49c;" horiz-adv-x="633" 
d="M593 650h124c-112 -107 -219 -221 -311 -335c64 -109 123 -203 180 -315h-107c-46 91 -98 183 -149 274h-25l-40 -194h-78l40 194h-43l-57 -274h-94l135 650h94l-60 -290h43l31 153h78l-31 -153h15c77 97 162 193 255 290z" />
    <glyph glyph-name="kaverticalstrokecy" unicode="&#x49d;" horiz-adv-x="563" 
d="M489 513h114c-94 -84 -174 -164 -243 -247c52 -85 112 -196 146 -266h-99c-29 66 -74 151 -119 222h-32l-36 -172h-56l36 172h-37l-46 -222h-90l106 513h90l-44 -214h37l26 124h56l-26 -124h13c59 69 111 125 204 214z" />
    <glyph glyph-name="Endescendercy" unicode="&#x4a2;" horiz-adv-x="727" 
d="M722 650l-117 -564h80l-46 -223h-90l28 137h-84l60 290h-366l-60 -290h-94l135 650h94l-56 -271h366l56 271h94z" />
    <glyph glyph-name="Ustraitcy" unicode="&#x4ae;" horiz-adv-x="541" 
d="M523 650h113c-99 -146 -201 -293 -320 -439l-41 -211h-95l45 221c-64 143 -118 286 -167 429h99c37 -116 79 -232 129 -347c86 114 165 231 237 347z" />
    <glyph glyph-name="ustraitcy" unicode="&#x4af;" horiz-adv-x="526" 
d="M470 513h99c-64 -121 -195 -344 -309 -511l-42 -202h-90l42 201c-67 190 -109 403 -121 512h88c15 -111 49 -300 90 -418c91 134 192 317 243 418z" />
    <glyph glyph-name="Hadescendercy" unicode="&#x4b2;" horiz-adv-x="670" 
d="M415 317l138 -231h98l-46 -223h-90l28 137h-56l-146 258l-241 -258h-123l308 330l-186 320h115l148 -265l240 265h121z" />
    <glyph glyph-name="Cheverticalstrokecy" unicode="&#x4b8;" horiz-adv-x="641" 
d="M629 650l-134 -649h-94l51 245c-30 -17 -67 -35 -107 -47l-25 -119h-88l22 105h-2c-105 0 -162 35 -162 139c0 26 4 56 11 91l48 235h94l-49 -239c-5 -26 -8 -48 -8 -65c0 -58 28 -75 86 -75l50 242h88l-48 -229c43 12 78 32 108 52l65 314h94z" />
    <glyph glyph-name="cheverticalstrokecy" unicode="&#x4b9;" horiz-adv-x="585" 
d="M564 513l-106 -513h-90l40 192c-28 -17 -61 -35 -95 -47l-20 -95h-82l16 78c-100 0 -152 36 -152 129c0 22 3 47 9 76l37 180h90l-38 -185c-4 -21 -6 -38 -6 -52c0 -48 24 -64 78 -64l44 211h82l-41 -195c35 12 67 31 95 50l49 235h90z" />
    <glyph glyph-name="Shhacy" unicode="&#x4ba;" horiz-adv-x="640" 
d="M428 450c105 0 172 -33 172 -133c0 -22 -4 -44 -8 -65l-53 -252h-94l50 237c4 17 8 38 8 53c0 46 -24 75 -98 75c-84 0 -163 -39 -200 -67l-61 -297h-94l134 649h94l-53 -257c43 26 122 57 203 57z" />
    <glyph glyph-name="Palochkacy" unicode="&#x4c0;" horiz-adv-x="259" 
d="M33 0l135 650h94l-135 -650h-94z" />
    <glyph glyph-name="palochkacy" unicode="&#x4cf;" horiz-adv-x="244" 
d="M33 0l143 691h90l-143 -691h-90z" />
    <glyph glyph-name="Schwacy" unicode="&#x4d8;" horiz-adv-x="777" 
d="M460 662c183 0 290 -104 290 -262c0 -192 -112 -412 -394 -412c-182 0 -294 102 -294 245c0 27 5 70 10 102l7 41h573c1 8 1 15 1 23c0 103 -77 174 -209 174c-79 0 -145 -12 -249 -44l19 97c88 23 167 36 246 36zM360 78c143 0 243 73 277 212h-476
c-2 -14 -3 -27 -3 -41c0 -113 79 -171 202 -171z" />
    <glyph glyph-name="Obarredcy" unicode="&#x4e8;" horiz-adv-x="790" 
d="M464 662c195 0 299 -114 299 -285c0 -235 -168 -389 -393 -389c-194 0 -308 115 -308 289c0 230 162 385 402 385zM451 574c-133 0 -242 -70 -279 -195h495c-3 132 -89 195 -216 195zM382 78c133 0 245 81 276 215h-500v-14c0 -133 90 -201 224 -201z" />
    <glyph glyph-name="obarredcy" unicode="&#x4e9;" horiz-adv-x="640" 
d="M350 524h1c125 0 222 -78 222 -212c0 -208 -159 -319 -333 -324c-125 0 -222 78 -222 212c0 211 159 324 332 324zM331 441c-90 0 -173 -53 -206 -142h357v4c0 73 -45 138 -151 138zM259 71c93 0 179 56 210 151h-360v-13c0 -73 45 -138 150 -138z" />
    <glyph glyph-name="acy" unicode="&#x430;" horiz-adv-x="633" 
d="M511 0h-61l-7 40c-43 -33 -105 -52 -168 -52c-113 0 -227 61 -227 212c0 214 172 324 315 324c76 0 139 -27 165 -47l27 36h62zM139 200c0 -96 70 -135 147 -135c58 0 120 22 161 58l57 277c-20 18 -72 41 -140 41c-112 0 -225 -82 -225 -241z" />
    <glyph glyph-name="becy" unicode="&#x431;" horiz-adv-x="620" 
d="M414 484c119 0 192 -72 192 -184c0 -130 -94 -312 -310 -312c-135 0 -224 67 -224 212c0 29 3 60 12 105c56 282 150 361 428 386c70 6 97 11 126 34l5 -87c-26 -25 -73 -33 -158 -36c-193 -7 -254 -87 -286 -205c58 54 137 87 215 87zM309 72c144 0 200 130 200 220
c0 71 -42 108 -121 108c-89 0 -161 -42 -215 -116c-7 -32 -10 -54 -10 -77c0 -94 50 -135 146 -135z" />
    <glyph glyph-name="vecy" unicode="&#x432;" horiz-adv-x="574" 
d="M280 -12c-126 0 -232 60 -232 209c0 13 1 26 3 41c24 201 143 286 304 286c123 0 189 -55 189 -124c0 -56 -34 -112 -108 -128l-1 -2c66 -21 91 -59 91 -104c0 -97 -85 -178 -246 -178zM344 445c-89 0 -175 -37 -193 -146h177c102 0 124 46 124 84c0 33 -31 62 -108 62z
M289 69c106 0 147 45 147 95c0 38 -28 67 -118 67h-179c-2 -13 -3 -25 -3 -36c0 -100 70 -126 153 -126z" />
    <glyph glyph-name="gecy" unicode="&#x433;" horiz-adv-x="506" 
d="M307 524c82 0 183 -24 183 -122c0 -72 -34 -132 -150 -161l-140 -34c-68 -17 -85 -42 -85 -77c0 -51 66 -58 123 -58c69 0 154 23 193 38l-19 -87c-57 -21 -128 -35 -191 -35c-115 0 -200 41 -200 132s48 139 152 165l139 35c62 16 85 36 85 72c0 46 -64 49 -110 49
c-59 0 -131 -14 -189 -32l18 87c51 14 121 28 191 28z" />
    <glyph glyph-name="gjecy" unicode="&#x453;" horiz-adv-x="506" 
d="M345 591h-83l104 145h110zM307 524c82 0 183 -24 183 -122c0 -72 -34 -132 -150 -161l-140 -34c-68 -17 -85 -42 -85 -77c0 -51 66 -58 123 -58c69 0 154 23 193 38l-19 -87c-57 -21 -128 -35 -191 -35c-115 0 -200 41 -200 132s48 139 152 165l139 35c62 16 85 36 85 72
c0 46 -64 49 -110 49c-59 0 -131 -14 -189 -32l18 87c51 14 121 28 191 28z" />
    <glyph glyph-name="gheupturncy" unicode="&#x491;" horiz-adv-x="426" 
d="M310 241l-140 -34c-68 -17 -85 -42 -85 -77c0 -51 66 -58 123 -58c69 0 154 23 193 38l-19 -87c-57 -21 -128 -35 -191 -35c-115 0 -200 41 -200 132s48 139 152 165l139 35c62 16 85 36 85 72c0 46 -64 49 -110 49c-59 0 -131 -14 -189 -32l18 87l44 154h78l-43 -136
c35 6 74 10 112 10c82 0 183 -24 183 -122c0 -72 -34 -132 -150 -161z" />
    <glyph glyph-name="decy" unicode="&#x434;" horiz-adv-x="638" 
d="M248 641l37 78c234 -66 316 -165 316 -314c0 -39 -5 -82 -15 -128c-40 -183 -145 -289 -313 -289c-145 0 -224 86 -224 209c0 126 83 287 273 287c82 0 156 -42 192 -97c1 9 1 17 1 26c0 101 -63 183 -267 228zM283 72c107 0 187 69 213 211c-27 75 -102 117 -172 117
c-132 0 -179 -117 -179 -202c0 -79 50 -126 138 -126z" />
    <glyph glyph-name="iecy" unicode="&#x435;" horiz-adv-x="584" 
d="M139 224l-2 -28c0 -109 109 -124 170 -124c77 0 159 22 200 38l-19 -87c-35 -15 -115 -35 -203 -35c-123 0 -237 62 -237 207c0 233 169 329 319 329c127 0 192 -66 192 -179c0 -27 -2 -43 -17 -121h-403zM157 302h308c1 7 3 15 3 32c0 69 -33 108 -111 108
c-82 0 -170 -40 -200 -140z" />
    <glyph glyph-name="iegravecy" unicode="&#x450;" horiz-adv-x="584" 
d="M185 736h110l104 -145h-83zM139 224l-2 -28c0 -109 109 -124 170 -124c77 0 159 22 200 38l-19 -87c-35 -15 -115 -35 -203 -35c-123 0 -237 62 -237 207c0 233 169 329 319 329c127 0 192 -66 192 -179c0 -27 -2 -43 -17 -121h-403zM157 302h308c1 7 3 15 3 32
c0 69 -33 108 -111 108c-82 0 -170 -40 -200 -140z" />
    <glyph glyph-name="iocy" unicode="&#x451;" horiz-adv-x="584" 
d="M330 684l-20 -96h-98l20 96h98zM528 684l-20 -96h-98l20 96h98zM139 224l-2 -28c0 -109 109 -124 170 -124c77 0 159 22 200 38l-19 -87c-35 -15 -115 -35 -203 -35c-123 0 -237 62 -237 207c0 233 169 329 319 329c127 0 192 -66 192 -179c0 -27 -2 -43 -17 -121h-403z
M157 302h308c1 7 3 15 3 32c0 69 -33 108 -111 108c-82 0 -170 -40 -200 -140z" />
    <glyph glyph-name="zhecy" unicode="&#x436;" horiz-adv-x="787" 
d="M713 513h114c-94 -84 -174 -164 -243 -247c52 -85 112 -196 146 -266h-99c-29 66 -74 151 -119 222h-67l-46 -222h-86l46 222h-67c-73 -71 -142 -153 -201 -222h-111c45 59 161 189 251 274c-38 83 -80 153 -136 239h102c49 -85 81 -147 114 -214h64l44 214h86l-44 -214
h48c59 69 111 125 204 214z" />
    <glyph glyph-name="zecy" unicode="&#x437;" horiz-adv-x="519" 
d="M334 524c122 0 174 -53 174 -119c0 -54 -37 -114 -112 -139l-1 -1c55 -19 80 -58 80 -100c0 -86 -61 -177 -247 -177c-72 0 -143 15 -199 36l18 82c60 -22 114 -37 186 -37c115 0 150 50 150 94c0 39 -27 66 -107 66h-150l15 70h143c100 0 132 48 132 89
c0 35 -39 57 -103 57c-53 0 -116 -12 -195 -34l17 82c61 18 126 31 199 31z" />
    <glyph glyph-name="iicy" unicode="&#x438;" horiz-adv-x="621" 
d="M220 513l-65 -316c-4 -17 -7 -34 -7 -49c0 -49 28 -79 106 -79c77 0 150 37 183 65l78 379h90l-107 -513h-59l-9 51c-32 -27 -107 -63 -196 -63c-101 0 -176 46 -176 141c0 21 2 37 6 58l66 326h90z" />
    <glyph glyph-name="iishortcy" unicode="&#x439;" horiz-adv-x="621" 
d="M542 713h-67c-22 -40 -53 -55 -93 -55c-31 0 -50 14 -48 55h-76c-10 -76 22 -120 111 -120c76 0 140 39 173 120zM220 513l-65 -316c-4 -17 -7 -34 -7 -49c0 -49 28 -79 106 -79c77 0 150 37 183 65l78 379h90l-107 -513h-59l-9 51c-32 -27 -107 -63 -196 -63
c-101 0 -176 46 -176 141c0 21 2 37 6 58l66 326h90z" />
    <glyph glyph-name="iigravecy" unicode="&#x45d;" horiz-adv-x="621" 
d="M202 736h110l104 -145h-83zM220 513l-65 -316c-4 -17 -7 -34 -7 -49c0 -49 28 -79 106 -79c77 0 150 37 183 65l78 379h90l-107 -513h-59l-9 51c-32 -27 -107 -63 -196 -63c-101 0 -176 46 -176 141c0 21 2 37 6 58l66 326h90z" />
    <glyph glyph-name="kacy" unicode="&#x43a;" horiz-adv-x="536" 
d="M457 513h128c-63 -48 -182 -147 -281 -241c63 -74 151 -198 200 -272h-112c-32 53 -91 142 -157 222h-66l-46 -222h-90l106 513h90l-44 -214h38c108 108 194 185 234 214z" />
    <glyph glyph-name="kjecy" unicode="&#x45c;" horiz-adv-x="536" 
d="M371 591h-83l104 145h110zM457 513h128c-63 -48 -182 -147 -281 -241c63 -74 151 -198 200 -272h-112c-32 53 -91 142 -157 222h-66l-46 -222h-90l106 513h90l-44 -214h38c108 108 194 185 234 214z" />
    <glyph glyph-name="elcy" unicode="&#x43b;" horiz-adv-x="547" 
d="M551 513h-344c-94 -334 -140 -448 -204 -448c-5 0 -8 0 -18 2l-15 -76c14 -2 28 -3 34 -3c117 0 174 93 271 448h170l-91 -436h90z" />
    <glyph glyph-name="emcy" unicode="&#x43c;" horiz-adv-x="670" 
d="M540 513h93c0 -113 -4 -255 -20 -513h-89c14 167 23 325 25 393c-78 -119 -122 -201 -206 -348h-70c-28 147 -43 226 -69 334c-26 -69 -78 -214 -123 -379h-96c83 258 134 397 184 513h90c27 -120 54 -251 71 -343c52 93 142 240 210 343z" />
    <glyph glyph-name="ency" unicode="&#x43d;" horiz-adv-x="597" 
d="M385 0l46 222h-262l-46 -222h-90l106 513h90l-44 -214h262l44 214h90l-106 -513h-90z" />
    <glyph glyph-name="ocy" unicode="&#x43e;" horiz-adv-x="633" 
d="M380 524h1c125 0 222 -78 222 -212c0 -208 -159 -319 -333 -324c-125 0 -222 78 -222 212c0 211 159 324 332 324zM289 71c117 0 223 89 223 232c0 73 -45 138 -151 138c-117 0 -222 -89 -222 -232c0 -73 45 -138 150 -138z" />
    <glyph glyph-name="pecy" unicode="&#x43f;" horiz-adv-x="612" 
d="M410 524c100 0 167 -33 167 -133c0 -22 -4 -44 -8 -65l-67 -326h-90l65 315c4 17 8 38 8 53c0 46 -28 75 -97 75c-77 0 -155 -37 -192 -65l-79 -378h-90l106 513h61l10 -51c40 27 124 62 206 62z" />
    <glyph glyph-name="ercy" unicode="&#x440;" horiz-adv-x="630" 
d="M385 524c122 0 219 -75 219 -223c0 -207 -159 -313 -320 -313c-63 0 -126 26 -155 45l-48 -233h-90l150 713h60l7 -42c31 23 100 53 177 53zM292 71c124 0 218 100 218 228c0 89 -60 142 -143 142c-70 0 -136 -32 -166 -58l-54 -261c18 -22 69 -51 145 -51z" />
    <glyph glyph-name="escy" unicode="&#x441;" horiz-adv-x="540" 
d="M386 524c74 0 144 -19 175 -34l-17 -81c-34 15 -102 34 -166 34c-131 0 -238 -89 -238 -229c0 -92 66 -142 165 -142c74 0 152 23 190 40l-18 -88c-34 -15 -108 -36 -185 -36c-135 0 -244 78 -244 223c0 207 167 313 338 313z" />
    <glyph glyph-name="tecy" unicode="&#x442;" horiz-adv-x="989" 
d="M409 0l65 315c4 20 7 43 7 53c0 46 -27 75 -95 75c-78 0 -151 -37 -185 -65l-78 -378h-90l107 513h60l10 -51c37 27 117 62 203 62c69 0 122 -17 148 -66c40 28 127 66 220 66c96 0 161 -31 161 -133c0 -22 -4 -44 -8 -65l-67 -326h-90l65 315c4 17 8 37 8 53
c0 46 -28 75 -97 75c-76 0 -147 -35 -179 -62c-1 -14 -4 -36 -8 -54l-67 -327h-90z" />
    <glyph glyph-name="ucy" unicode="&#x443;" horiz-adv-x="532" 
d="M486 513h99c-65 -121 -195 -344 -311 -513c-96 -140 -180 -212 -285 -212c-31 0 -60 5 -73 9l21 88c12 -4 37 -10 60 -10c76 0 128 58 181 140c-62 183 -104 391 -118 498h90c16 -110 52 -298 91 -413c91 134 193 314 245 413z" />
    <glyph glyph-name="ushortcy" unicode="&#x45e;" horiz-adv-x="532" 
d="M424 712h77c-23 -73 -70 -119 -159 -119s-132 46 -125 119h77c-3 -31 12 -53 54 -53c41 0 65 22 76 53zM486 513h99c-65 -121 -195 -344 -311 -513c-96 -140 -180 -212 -285 -212c-31 0 -60 5 -73 9l21 88c12 -4 37 -10 60 -10c76 0 128 58 181 140
c-62 183 -104 391 -118 498h90c16 -110 52 -298 91 -413c91 134 193 314 245 413z" />
    <glyph glyph-name="efcy" unicode="&#x444;" horiz-adv-x="786" 
d="M557 523c113 0 199 -78 199 -209c0 -151 -105 -326 -318 -326c-16 0 -32 2 -46 4l-40 -192h-90l40 191c-16 -2 -32 -3 -48 -3c-111 0 -206 75 -206 213c0 152 104 322 312 322c19 0 36 -1 51 -4l36 172h90l-38 -173c17 3 36 5 58 5zM142 207c0 -88 53 -138 129 -138
c18 0 34 1 50 3l75 366c-13 2 -27 3 -44 3c-153 0 -210 -146 -210 -234zM455 69c138 0 205 136 205 237c0 80 -44 135 -132 135c-17 0 -33 -1 -47 -3l-76 -366c15 -2 32 -3 50 -3z" />
    <glyph glyph-name="hacy" unicode="&#x445;" horiz-adv-x="520" 
d="M489 0h-111l-113 187l-185 -187h-121l258 253l-156 260h108l116 -197l194 197h117l-265 -260z" />
    <glyph glyph-name="checy" unicode="&#x447;" horiz-adv-x="580" 
d="M564 513l-106 -513h-90l40 192c-50 -31 -119 -64 -179 -64c-101 0 -154 35 -154 129c0 22 3 47 9 76l37 180h90l-38 -185c-4 -21 -6 -38 -6 -52c0 -48 24 -64 79 -64c67 0 129 32 179 66l49 235h90z" />
    <glyph glyph-name="tsecy" unicode="&#x446;" horiz-adv-x="628" 
d="M604 68l-42 -205h-83l26 134h-5c-31 0 -61 21 -63 62c-32 -37 -114 -71 -203 -71c-101 0 -176 46 -176 141c0 21 2 37 6 58l66 326h90l-65 -316c-4 -17 -7 -34 -7 -49c0 -49 28 -79 106 -79c77 0 150 37 183 65l78 379h90l-78 -376c-12 -58 1 -69 51 -69h26z" />
    <glyph glyph-name="shacy" unicode="&#x448;" horiz-adv-x="983" 
d="M591 513l-65 -315c-4 -20 -7 -43 -7 -53c0 -46 27 -75 95 -75c78 0 151 37 185 65l78 378h90l-107 -513h-60l-10 51c-37 -27 -117 -62 -203 -62c-69 0 -122 17 -148 66c-40 -28 -127 -66 -220 -66c-96 0 -161 31 -161 133c0 22 4 44 8 65l67 326h90l-65 -315
c-4 -17 -8 -37 -8 -53c0 -46 28 -75 97 -75c76 0 147 35 179 62c1 14 4 36 8 54l67 327h90z" />
    <glyph glyph-name="shchacy" unicode="&#x449;" horiz-adv-x="990" 
d="M796 55c-37 -29 -123 -66 -209 -66c-69 0 -122 17 -148 66c-40 -28 -127 -66 -220 -66c-96 0 -161 31 -161 133c0 22 4 44 8 65l67 326h90l-65 -315c-4 -17 -8 -37 -8 -53c0 -46 28 -75 97 -75c76 0 147 35 179 62c1 14 4 36 8 54l67 327h90l-65 -315
c-4 -20 -7 -43 -7 -53c0 -46 27 -75 95 -75c78 0 151 37 185 65l78 378h90l-81 -387c-12 -58 1 -69 51 -69h26l-42 -205h-83l26 134h-5c-31 0 -63 23 -63 69z" />
    <glyph glyph-name="dzhecy" unicode="&#x45f;" horiz-adv-x="618" 
d="M495 0h-189l-28 -137h-84l28 137h-189l107 513h90l-91 -436h282l91 436h90z" />
    <glyph glyph-name="iacy" unicode="&#x44f;" horiz-adv-x="587" 
d="M571 513l-106 -513h-90l36 176c-36 -6 -73 -11 -114 -14c-75 -55 -139 -111 -191 -161l-126 -1c15 13 102 94 202 171c-65 20 -104 69 -104 135c0 97 57 207 277 207h216zM464 435l-125 1c-131 1 -169 -59 -169 -118c0 -51 42 -76 110 -76c48 0 98 3 146 10z" />
    <glyph glyph-name="softsigncy" unicode="&#x44c;" horiz-adv-x="552" 
d="M350 353c108 0 172 -52 172 -145c0 -98 -50 -220 -270 -220c-49 0 -120 6 -217 23l104 502h90l-42 -200c49 23 110 40 163 40zM263 69c129 0 166 69 166 127c0 49 -33 74 -106 74c-44 0 -104 -17 -153 -40l-31 -148c51 -10 83 -13 124 -13z" />
    <glyph glyph-name="hardsigncy" unicode="&#x44a;" horiz-adv-x="660" 
d="M456 353c108 0 172 -52 172 -145c0 -98 -50 -220 -270 -220c-49 0 -120 6 -217 23l88 425h-174l16 77h264l-42 -200c49 23 110 40 163 40zM369 69c129 0 166 69 166 127c0 49 -33 74 -106 74c-44 0 -104 -17 -153 -40l-31 -148c51 -10 83 -13 124 -13z" />
    <glyph glyph-name="yerucy" unicode="&#x44b;" horiz-adv-x="792" 
d="M350 353c108 0 172 -52 172 -145c0 -98 -50 -220 -270 -220c-49 0 -120 6 -217 23l104 502h90l-42 -200c49 23 110 40 163 40zM669 0h-90l107 513h90zM263 69c129 0 166 69 166 127c0 49 -33 74 -106 74c-44 0 -104 -17 -153 -40l-31 -148c51 -10 83 -13 124 -13z" />
    <glyph glyph-name="ljecy" unicode="&#x459;" horiz-adv-x="874" 
d="M672 353c108 0 172 -52 172 -145c0 -98 -50 -220 -270 -220c-49 0 -120 6 -217 24l88 424h-170c-97 -355 -154 -448 -271 -448c-9 0 -20 1 -34 3l15 76c11 -2 13 -2 18 -2c64 0 110 114 204 448h344l-42 -200c49 23 110 40 163 40zM585 69c129 0 166 69 166 127
c0 49 -33 74 -106 74c-44 0 -104 -17 -153 -40l-7 -31l-24 -117c51 -10 83 -13 124 -13z" />
    <glyph glyph-name="njecy" unicode="&#x45a;" horiz-adv-x="898" 
d="M696 353c108 0 172 -52 172 -145c0 -98 -50 -220 -270 -220c-49 0 -120 6 -217 24l18 88l26 122h-262l-46 -222h-90l106 513h90l-44 -214h262l44 214h90l-41 -200c49 23 109 40 162 40zM609 69c129 0 166 69 166 127c0 49 -33 74 -106 74c-44 0 -103 -17 -152 -40
l-31 -148c50 -10 82 -13 123 -13z" />
    <glyph glyph-name="dzecy" unicode="&#x455;" horiz-adv-x="522" 
d="M506 499l-16 -79c-32 11 -99 25 -168 25c-59 0 -146 -14 -146 -69c0 -107 299 -26 299 -214c0 -120 -117 -174 -260 -174c-82 0 -165 23 -205 40l17 80c43 -17 124 -39 193 -39c67 0 162 19 162 83c0 117 -301 31 -301 215c0 127 142 157 250 157c77 0 145 -14 175 -25z
" />
    <glyph glyph-name="ereversedcy" unicode="&#x44d;" horiz-adv-x="544" 
d="M302 523c135 0 212 -78 212 -223c0 -207 -147 -313 -316 -313c-74 0 -144 19 -175 34l17 81c34 -15 102 -34 166 -34c104 0 181 58 207 154h-268l16 77h261c0 91 -35 140 -133 140c-74 0 -147 -20 -186 -35l18 88c33 13 106 31 181 31z" />
    <glyph glyph-name="ecy" unicode="&#x454;" horiz-adv-x="521" 
d="M356 443c-100 0 -175 -54 -204 -144h266l-16 -77h-262v-8c0 -92 44 -142 143 -142c74 0 152 23 190 40l-18 -88c-34 -15 -108 -36 -185 -36c-135 0 -222 78 -222 223c0 207 147 313 316 313c74 0 144 -19 175 -34l-17 -81c-34 15 -102 34 -166 34z" />
    <glyph glyph-name="yicy" unicode="&#x457;" horiz-adv-x="245" 
d="M150 588h-98l20 96h98zM348 588h-98l20 96h98zM123 0h-90l106 513h90z" />
    <glyph glyph-name="icy" unicode="&#x456;" horiz-adv-x="245" 
d="M154 601l19 90h98l-19 -90h-98zM33 0l107 513h89l-106 -513h-90z" />
    <glyph glyph-name="jecy" unicode="&#x458;" horiz-adv-x="245" 
d="M154 598l19 90h98l-19 -90h-98zM230 513l-111 -537c-26 -127 -70 -188 -198 -188c-48 0 -93 11 -114 20l20 79c18 -7 58 -16 100 -16c75 0 92 62 101 104l113 538h89z" />
    <glyph glyph-name="tshecy" unicode="&#x45b;" horiz-adv-x="645" 
d="M416 524c100 0 167 -33 167 -133c0 -22 -4 -44 -8 -65l-67 -326h-90l65 315c4 17 8 38 8 53c0 46 -28 75 -97 75c-76 0 -155 -37 -193 -65l-78 -378h-90l117 565h-110l16 77h110l10 49h90l-10 -49h142l-16 -77h-142l-20 -97c39 24 119 56 196 56z" />
    <glyph glyph-name="iucy" unicode="&#x44e;" horiz-adv-x="823" 
d="M575 524c124 0 218 -75 218 -210c0 -204 -144 -326 -316 -326c-127 0 -219 81 -219 215v19h-95l-46 -222h-90l107 513h90l-45 -214h91c40 144 168 225 305 225zM491 71c115 0 211 91 211 234c0 75 -40 136 -145 136c-88 0 -171 -60 -199 -160l-6 -30
c-2 -14 -3 -27 -3 -42c0 -73 38 -138 142 -138z" />
    <glyph glyph-name="djecy" unicode="&#x452;" horiz-adv-x="618" 
d="M416 524c100 0 167 -33 167 -133c0 -22 -4 -44 -8 -65l-67 -326l-5 -24c-26 -128 -68 -188 -196 -188c-66 0 -114 20 -114 20l20 79s43 -16 100 -16c73 0 91 63 100 104l5 25l65 315c4 17 8 38 8 53c0 46 -28 75 -97 75c-76 0 -155 -37 -193 -65l-78 -378h-90l117 565
h-110l16 77h110l10 49h90l-10 -49h142l-16 -77h-142l-20 -97c39 24 119 56 196 56z" />
    <glyph glyph-name="ghestrokecy" unicode="&#x493;" horiz-adv-x="440" 
d="M490 402c0 -65 -27 -120 -117 -151l71 -26l-26 -54l-147 53l-71 -17c-68 -17 -85 -42 -85 -77c0 -51 66 -58 123 -58c69 0 154 23 193 38l-19 -87c-57 -21 -128 -35 -191 -35c-115 0 -200 41 -200 132c0 79 36 126 114 154l-80 29l26 54l155 -56l76 19c62 16 85 36 85 72
c0 46 -64 49 -110 49c-59 0 -131 -14 -189 -32l18 87c51 14 121 28 191 28c82 0 183 -24 183 -122z" />
    <glyph glyph-name="zhedescendercy" unicode="&#x497;" horiz-adv-x="802" 
d="M584 266c35 -58 75 -128 107 -189h97l-44 -214h-84l28 137h-57c-29 66 -74 151 -119 222h-67l-46 -222h-86l46 222h-67c-73 -71 -142 -153 -201 -222h-111c45 59 161 189 251 274c-38 83 -80 153 -136 239h102c49 -85 81 -147 114 -214h64l44 214h86l-44 -214h48
c59 69 111 125 204 214h114c-94 -84 -174 -164 -243 -247z" />
    <glyph glyph-name="kadescendercy" unicode="&#x49b;" horiz-adv-x="540" 
d="M298 272c44 -52 101 -128 147 -195h79l-44 -214h-84l28 137h-38c-32 53 -91 142 -157 222h-66l-46 -222h-90l106 513h90l-44 -214h38c108 108 194 185 234 214h128c-63 -48 -182 -147 -281 -241z" />
    <glyph glyph-name="endescendercy" unicode="&#x4a3;" horiz-adv-x="598" 
d="M485 77h81l-44 -214h-84l28 137h-87l46 222h-262l-46 -222h-90l106 513h90l-44 -214h262l44 214h90z" />
    <glyph glyph-name="hadescendercy" unicode="&#x4b3;" horiz-adv-x="520" 
d="M331 253l110 -176h82l-44 -214h-84l28 137h-45l-113 187l-185 -187h-121l258 253l-156 260h108l116 -197l194 197h117z" />
    <glyph glyph-name="shhacy" unicode="&#x4bb;" horiz-adv-x="645" 
d="M426 513c100 0 167 -33 167 -133c0 -22 -4 -44 -8 -65l-65 -315h-90l63 304c4 17 8 38 8 53c0 46 -28 75 -97 75c-78 0 -156 -38 -193 -66l-76 -366h-90l143 691h90l-48 -234c42 26 120 56 196 56z" />
    <glyph glyph-name="schwacy" unicode="&#x4d9;" horiz-adv-x="580" 
d="M356 523c133 0 214 -62 214 -187c0 -22 -2 -47 -8 -74c-41 -197 -172 -274 -314 -274c-123 0 -192 65 -192 178c0 21 3 44 8 69l11 52h398l1 6c2 12 3 23 3 34c0 74 -54 112 -144 112c-71 0 -126 -11 -232 -44l19 90c51 16 153 38 236 38zM264 72c82 0 145 30 190 138
h-304c0 -6 -1 -12 -1 -18c0 -74 35 -120 115 -120z" />
    <glyph glyph-name="Kanji" unicode="&#x5186;" horiz-adv-x="809" 
d="M812 650l-105 -510c-28 -134 -108 -152 -182 -152c-22 0 -46 2 -80 10l17 84c27 -6 44 -8 66 -8c54 0 73 9 85 69l26 123h-456l-57 -266h-93l135 650h644zM244 564l-44 -212h184l44 212h-184zM516 564l-44 -212h184l44 212h-184z" />
    <glyph glyph-name="uni5143" unicode="&#x5143;" horiz-adv-x="831" 
d="M803 564h-649l18 86h649zM796 361h-208l-45 -218c-10 -50 1 -66 42 -66c49 0 78 35 118 102l71 -46c-38 -62 -98 -145 -203 -145s-147 34 -119 170l42 203h-118l-10 -51c-28 -142 -106 -211 -309 -322l-42 79c183 103 236 131 259 252l8 42h-204l18 86h718z" />
    <glyph glyph-name="fraction" unicode="&#x2044;" horiz-adv-x="174" 
d="M-61 0h-99l472 650h97z" />
    <glyph glyph-name="onehalf" unicode="&#xbd;" horiz-adv-x="908" 
d="M210 284l59 286l-110 -25l14 61l180 46l-76 -368h-67zM286 0h-99l472 650h97zM737 370c80 0 111 -35 111 -89c0 -76 -72 -156 -192 -217h158l-14 -64h-273l12 54c108 67 236 150 236 211c0 21 -15 41 -61 41c-22 0 -67 -7 -118 -24l14 65c40 13 85 23 127 23z" />
    <glyph glyph-name="onequarter" unicode="&#xbc;" horiz-adv-x="811" 
d="M210 284l59 286l-110 -25l14 61l180 46l-76 -368h-67zM286 0h-99l472 650h97zM802 84h-59l-17 -84h-65l17 84h-200v47c72 87 129 147 218 229h88c-106 -93 -147 -131 -217 -212h125l21 105h65l-21 -105h59z" />
    <glyph glyph-name="threequarters" unicode="&#xbe;" horiz-adv-x="823" 
d="M393 600l-120 -94c66 -6 105 -42 105 -92c0 -75 -56 -133 -187 -133c-37 0 -85 6 -124 18l14 65c42 -13 85 -19 115 -19c85 0 109 30 109 63c0 35 -30 46 -96 46h-52l10 43l114 89h-153l13 64h263zM202 0h99l470 650h-97zM814 84h-59l-17 -84h-65l17 84h-200v47
c72 87 129 147 218 229h88c-106 -93 -147 -131 -217 -212h125l21 105h65l-21 -105h59z" />
    <glyph glyph-name="oneeighth" unicode="&#x215b;" horiz-adv-x="920" 
d="M210 284l59 286l-110 -25l14 61l180 46l-76 -368h-67zM288 0h-99l471 650h97zM739 370c-86 0 -147 -48 -147 -110c0 -28 13 -53 35 -69c-58 -26 -84 -60 -84 -103c0 -61 55 -96 139 -96c99 0 162 49 162 120c0 35 -15 60 -52 77c48 17 72 53 72 92c0 55 -52 89 -125 89z
M735 310c35 0 57 -15 57 -41c0 -31 -32 -53 -74 -53c-34 0 -56 16 -56 42c0 30 26 52 73 52zM703 158c44 0 71 -18 71 -46c0 -33 -29 -58 -88 -58c-45 0 -70 15 -70 45c0 36 34 59 87 59z" />
    <glyph glyph-name="threeeighths" unicode="&#x215c;" horiz-adv-x="932" 
d="M393 600l-120 -94c66 -6 105 -42 105 -92c0 -75 -56 -133 -187 -133c-37 0 -85 6 -124 18l14 65c42 -13 85 -19 115 -19c85 0 109 30 109 63c0 35 -30 46 -96 46h-52l10 43l114 89h-153l13 64h263zM204 0h99l469 650h-97zM751 370c-86 0 -147 -48 -147 -110
c0 -28 13 -53 35 -69c-58 -26 -84 -60 -84 -103c0 -61 55 -96 139 -96c99 0 162 49 162 120c0 35 -15 60 -52 77c48 17 72 53 72 92c0 55 -52 89 -125 89zM747 310c35 0 57 -15 57 -41c0 -31 -32 -53 -74 -53c-34 0 -56 16 -56 42c0 30 26 52 73 52zM715 158
c44 0 71 -18 71 -46c0 -33 -29 -58 -88 -58c-45 0 -70 15 -70 45c0 36 34 59 87 59z" />
    <glyph glyph-name="fiveeighths" unicode="&#x215d;" horiz-adv-x="936" 
d="M387 586h-166l-22 -70c15 4 51 7 66 7c73 0 117 -40 117 -96c0 -84 -65 -146 -181 -146c-43 0 -86 7 -127 19l14 65c62 -17 89 -20 122 -20c67 0 99 30 99 72c0 28 -18 44 -72 44c-39 0 -85 -9 -128 -21l65 210h226zM209 0h99l469 650h-97zM755 370
c-86 0 -147 -48 -147 -110c0 -28 13 -53 35 -69c-58 -26 -84 -60 -84 -103c0 -61 55 -96 139 -96c99 0 162 49 162 120c0 35 -15 60 -52 77c48 17 72 53 72 92c0 55 -52 89 -125 89zM751 310c35 0 57 -15 57 -41c0 -31 -32 -53 -74 -53c-34 0 -56 16 -56 42
c0 30 26 52 73 52zM719 158c44 0 71 -18 71 -46c0 -33 -29 -58 -88 -58c-45 0 -70 15 -70 45c0 36 34 59 87 59z" />
    <glyph glyph-name="seveneighths" unicode="&#x215e;" horiz-adv-x="893" 
d="M447 650l-10 -44c-97 -108 -174 -205 -238 -316h-78c61 105 130 201 213 296h-192l14 64h291zM164 0h99l469 650h-97zM712 370c-86 0 -147 -48 -147 -110c0 -28 13 -53 35 -69c-58 -26 -84 -60 -84 -103c0 -61 55 -96 139 -96c99 0 162 49 162 120c0 35 -15 60 -52 77
c48 17 72 53 72 92c0 55 -52 89 -125 89zM708 310c35 0 57 -15 57 -41c0 -31 -32 -53 -74 -53c-34 0 -56 16 -56 42c0 30 26 52 73 52zM676 158c44 0 71 -18 71 -46c0 -33 -29 -58 -88 -58c-45 0 -70 15 -70 45c0 36 34 59 87 59z" />
    <glyph glyph-name="zero.dnom" 
d="M223 370c89 0 140 -58 140 -146c0 -98 -65 -233 -205 -233c-88 0 -143 56 -143 143c0 93 62 236 208 236zM212 306c-86 0 -124 -97 -124 -165c0 -60 35 -86 79 -86c75 0 123 86 123 161c0 63 -33 90 -78 90z" />
    <glyph glyph-name="one.dnom" 
d="M154 0l59 286l-110 -25l14 61l180 46l-76 -368h-67z" />
    <glyph glyph-name="two.dnom" 
d="M229 370c80 0 111 -35 111 -89c0 -76 -72 -156 -192 -217h158l-14 -64h-273l12 54c108 67 236 150 236 211c0 21 -15 41 -61 41c-22 0 -67 -7 -118 -24l14 65c40 13 85 23 127 23z" />
    <glyph glyph-name="three.dnom" 
d="M345 310l-120 -94c66 -6 105 -42 105 -92c0 -75 -56 -133 -187 -133c-37 0 -85 6 -124 18l14 65c42 -13 85 -19 115 -19c85 0 109 30 109 63c0 35 -30 46 -96 46h-52l10 43l114 89h-153l13 64h263z" />
    <glyph glyph-name="four.dnom" 
d="M336 84h-59l-17 -84h-65l17 84h-200v47c72 87 129 147 218 229h88c-106 -93 -147 -131 -217 -212h125l21 105h65l-21 -105h59z" />
    <glyph glyph-name="five.dnom" 
d="M330 296h-166l-22 -70c15 4 51 7 66 7c73 0 117 -40 117 -96c0 -84 -65 -146 -181 -146c-43 0 -86 7 -127 19l14 65c62 -17 89 -20 122 -20c67 0 99 30 99 72c0 28 -18 44 -72 44c-39 0 -85 -9 -128 -21l65 210h226z" />
    <glyph glyph-name="six.dnom" 
d="M335 370l-14 -65c-78 -5 -149 -38 -187 -80c25 16 65 25 91 25c61 0 104 -42 104 -104c0 -69 -49 -155 -171 -155c-78 0 -129 51 -129 120c0 102 80 233 306 259zM194 193c-66 0 -92 -43 -92 -80c0 -33 21 -58 63 -58c54 0 91 37 91 81c0 35 -19 57 -62 57z" />
    <glyph glyph-name="seven.dnom" 
d="M377 360l-10 -44c-97 -108 -174 -205 -238 -316h-78c61 105 130 201 213 296h-192l14 64h291z" />
    <glyph glyph-name="eight.dnom" 
d="M219 370c-86 0 -147 -48 -147 -110c0 -28 13 -53 35 -69c-58 -26 -84 -60 -84 -103c0 -61 55 -96 139 -96c99 0 162 49 162 120c0 35 -15 60 -52 77c48 17 72 53 72 92c0 55 -52 89 -125 89zM215 310c35 0 57 -15 57 -41c0 -31 -32 -53 -74 -53c-34 0 -56 16 -56 42
c0 30 26 52 73 52zM183 158c44 0 71 -18 71 -46c0 -33 -29 -58 -88 -58c-45 0 -70 15 -70 45c0 36 34 59 87 59z" />
    <glyph glyph-name="nine.dnom" 
d="M45 -9l14 65c78 5 149 38 187 80c-25 -16 -65 -25 -91 -25c-61 0 -104 42 -104 104c0 69 49 155 171 155c78 0 129 -51 129 -120c0 -102 -80 -233 -306 -259zM186 168c66 0 92 43 92 80c0 33 -21 58 -63 58c-54 0 -91 -37 -91 -81c0 -35 19 -57 62 -57z" />
    <glyph glyph-name="zero.numr" 
d="M283 660c89 0 140 -58 140 -146c0 -98 -65 -233 -205 -233c-88 0 -143 56 -143 143c0 93 62 236 208 236zM272 596c-86 0 -124 -97 -124 -165c0 -60 35 -86 79 -86c75 0 123 86 123 161c0 63 -33 90 -78 90z" />
    <glyph glyph-name="one.numr" 
d="M190 290l59 286l-110 -25l14 61l180 46l-76 -368h-67z" />
    <glyph glyph-name="two.numr" 
d="M284 660c80 0 111 -35 111 -89c0 -76 -72 -156 -192 -217h158l-14 -64h-273l12 54c108 67 236 150 236 211c0 21 -15 41 -61 41c-22 0 -67 -7 -118 -24l14 65c40 13 85 23 127 23z" />
    <glyph glyph-name="three.numr" 
d="M393 600l-120 -94c66 -6 105 -42 105 -92c0 -75 -56 -133 -187 -133c-37 0 -85 6 -124 18l14 65c42 -13 85 -19 115 -19c85 0 109 30 109 63c0 35 -30 46 -96 46h-52l10 43l114 89h-153l13 64h263z" />
    <glyph glyph-name="four.numr" 
d="M391 374h-59l-17 -84h-65l17 84h-200v47c72 87 129 147 218 229h88c-106 -93 -147 -131 -217 -212h125l21 105h65l-21 -105h59z" />
    <glyph glyph-name="five.numr" 
d="M387 586h-166l-22 -70c15 4 51 7 66 7c73 0 117 -40 117 -96c0 -84 -65 -146 -181 -146c-43 0 -86 7 -127 19l14 65c62 -17 89 -20 122 -20c67 0 99 30 99 72c0 28 -18 44 -72 44c-39 0 -85 -9 -128 -21l65 210h226z" />
    <glyph glyph-name="six.numr" 
d="M382 660l-14 -65c-78 -5 -149 -38 -187 -80c25 16 65 25 91 25c61 0 104 -42 104 -104c0 -69 -49 -155 -171 -155c-78 0 -129 51 -129 120c0 102 80 233 306 259zM241 483c-66 0 -92 -43 -92 -80c0 -33 21 -58 63 -58c54 0 91 37 91 81c0 35 -19 57 -62 57z" />
    <glyph glyph-name="seven.numr" 
d="M427 650l-10 -44c-97 -108 -174 -205 -238 -316h-78c61 105 130 201 213 296h-192l14 64h291z" />
    <glyph glyph-name="eight.numr" 
d="M277 660c-86 0 -147 -48 -147 -110c0 -28 13 -53 35 -69c-58 -26 -84 -60 -84 -103c0 -61 55 -96 139 -96c99 0 162 49 162 120c0 35 -15 60 -52 77c48 17 72 53 72 92c0 55 -52 89 -125 89zM273 600c35 0 57 -15 57 -41c0 -31 -32 -53 -74 -53c-34 0 -56 16 -56 42
c0 30 26 52 73 52zM241 448c44 0 71 -18 71 -46c0 -33 -29 -58 -88 -58c-45 0 -70 15 -70 45c0 36 34 59 87 59z" />
    <glyph glyph-name="nine.numr" 
d="M95 281l14 65c78 5 149 38 187 80c-25 -16 -65 -25 -91 -25c-61 0 -104 42 -104 104c0 69 49 155 171 155c78 0 129 -51 129 -120c0 -102 -80 -233 -306 -259zM236 458c66 0 92 43 92 80c0 33 -21 58 -63 58c-54 0 -91 -37 -91 -81c0 -35 19 -57 62 -57z" />
    <glyph glyph-name="zeroinferior" unicode="&#x2080;" 
d="M203 270c89 0 140 -58 140 -146c0 -98 -65 -233 -205 -233c-88 0 -143 56 -143 143c0 93 62 236 208 236zM192 206c-86 0 -124 -97 -124 -165c0 -60 35 -86 79 -86c75 0 123 86 123 161c0 63 -33 90 -78 90z" />
    <glyph glyph-name="oneinferior" unicode="&#x2081;" 
d="M124 -100l59 286l-110 -25l14 61l180 46l-76 -368h-67z" />
    <glyph glyph-name="twoinferior" unicode="&#x2082;" 
d="M208 270c80 0 111 -35 111 -89c0 -76 -72 -156 -192 -217h158l-14 -64h-273l12 54c108 67 236 150 236 211c0 21 -15 41 -61 41c-22 0 -67 -7 -118 -24l14 65c40 13 85 23 127 23z" />
    <glyph glyph-name="threeinferior" unicode="&#x2083;" horiz-adv-x="371" 
d="M298 210l-120 -94c66 -6 105 -42 105 -92c0 -75 -56 -133 -187 -133c-37 0 -85 6 -124 18l14 65c42 -13 85 -19 115 -19c85 0 109 30 109 63c0 35 -30 46 -96 46h-52l10 43l114 89h-153l13 64h263z" />
    <glyph glyph-name="fourinferior" unicode="&#x2084;" 
d="M316 -16h-59l-17 -84h-65l17 84h-200v47c72 87 129 147 218 229h88c-106 -93 -147 -131 -217 -212h125l21 105h65l-21 -105h59z" />
    <glyph glyph-name="fiveinferior" unicode="&#x2085;" 
d="M315 196h-166l-22 -70c15 4 51 7 66 7c73 0 117 -40 117 -96c0 -84 -65 -146 -181 -146c-43 0 -86 7 -127 19l14 65c62 -17 89 -20 122 -20c67 0 99 30 99 72c0 28 -18 44 -72 44c-39 0 -85 -9 -128 -21l65 210h226z" />
    <glyph glyph-name="sixinferior" unicode="&#x2086;" 
d="M322 270l-14 -65c-78 -5 -149 -38 -187 -80c25 16 65 25 91 25c61 0 104 -42 104 -104c0 -69 -49 -155 -171 -155c-78 0 -129 51 -129 120c0 102 80 233 306 259zM181 93c-66 0 -92 -43 -92 -80c0 -33 21 -58 63 -58c54 0 91 37 91 81c0 35 -19 57 -62 57z" />
    <glyph glyph-name="seveninferior" unicode="&#x2087;" 
d="M362 260l-10 -44c-97 -108 -174 -205 -238 -316h-78c61 105 130 201 213 296h-192l14 64h291z" />
    <glyph glyph-name="eightinferior" unicode="&#x2088;" 
d="M205 270c-86 0 -147 -48 -147 -110c0 -28 13 -53 35 -69c-58 -26 -84 -60 -84 -103c0 -61 55 -96 139 -96c99 0 162 49 162 120c0 35 -15 60 -52 77c48 17 72 53 72 92c0 55 -52 89 -125 89zM201 210c35 0 57 -15 57 -41c0 -31 -32 -53 -74 -53c-34 0 -56 16 -56 42
c0 30 26 52 73 52zM169 58c44 0 71 -18 71 -46c0 -33 -29 -58 -88 -58c-45 0 -70 15 -70 45c0 36 34 59 87 59z" />
    <glyph glyph-name="nineinferior" unicode="&#x2089;" 
d="M21 -109l14 65c78 5 149 38 187 80c-25 -16 -65 -25 -91 -25c-61 0 -104 42 -104 104c0 69 49 155 171 155c78 0 129 -51 129 -120c0 -102 -80 -233 -306 -259zM162 68c66 0 92 43 92 80c0 33 -21 58 -63 58c-54 0 -91 -37 -91 -81c0 -35 19 -57 62 -57z" />
    <glyph glyph-name="zerosuperior" unicode="&#x2070;" 
d="M301 754c89 0 140 -58 140 -146c0 -98 -65 -233 -205 -233c-88 0 -143 56 -143 143c0 93 62 236 208 236zM290 690c-86 0 -124 -97 -124 -165c0 -60 35 -86 79 -86c75 0 123 86 123 161c0 63 -33 90 -78 90z" />
    <glyph glyph-name="onesuperior" unicode="&#xb9;" 
d="M204 384l59 286l-110 -25l14 61l180 46l-76 -368h-67z" />
    <glyph glyph-name="twosuperior" unicode="&#xb2;" 
d="M299 754c80 0 111 -35 111 -89c0 -76 -72 -156 -192 -217h158l-14 -64h-273l12 54c108 67 236 150 236 211c0 21 -15 41 -61 41c-22 0 -67 -7 -118 -24l14 65c40 13 85 23 127 23z" />
    <glyph glyph-name="threesuperior" unicode="&#xb3;" 
d="M395 694l-120 -94c66 -6 105 -42 105 -92c0 -75 -56 -133 -187 -133c-37 0 -85 6 -124 18l14 65c42 -13 85 -19 115 -19c85 0 109 30 109 63c0 35 -30 46 -96 46h-52l10 43l114 89h-153l13 64h263z" />
    <glyph glyph-name="foursuperior" unicode="&#x2074;" 
d="M416 468h-59l-17 -84h-65l17 84h-200v47c72 87 129 147 218 229h88c-106 -93 -147 -131 -217 -212h125l21 105h65l-21 -105h59z" />
    <glyph glyph-name="fivesuperior" unicode="&#x2075;" 
d="M410 680h-166l-22 -70c15 4 51 7 66 7c73 0 117 -40 117 -96c0 -84 -65 -146 -181 -146c-43 0 -86 7 -127 19l14 65c62 -17 89 -20 122 -20c67 0 99 30 99 72c0 28 -18 44 -72 44c-39 0 -85 -9 -128 -21l65 210h226z" />
    <glyph glyph-name="sixsuperior" unicode="&#x2076;" 
d="M417 754l-14 -65c-78 -5 -149 -38 -187 -80c25 16 65 25 91 25c61 0 104 -42 104 -104c0 -69 -49 -155 -171 -155c-78 0 -129 51 -129 120c0 102 80 233 306 259zM276 577c-66 0 -92 -43 -92 -80c0 -33 21 -58 63 -58c54 0 91 37 91 81c0 35 -19 57 -62 57z" />
    <glyph glyph-name="sevensuperior" unicode="&#x2077;" 
d="M457 744l-10 -44c-97 -108 -174 -205 -238 -316h-78c61 105 130 201 213 296h-192l14 64h291z" />
    <glyph glyph-name="eightsuperior" unicode="&#x2078;" 
d="M299 754c-86 0 -147 -48 -147 -110c0 -28 13 -53 35 -69c-58 -26 -84 -60 -84 -103c0 -61 55 -96 139 -96c99 0 162 49 162 120c0 35 -15 60 -52 77c48 17 72 53 72 92c0 55 -52 89 -125 89zM295 694c35 0 57 -15 57 -41c0 -31 -32 -53 -74 -53c-34 0 -56 16 -56 42
c0 30 26 52 73 52zM263 542c44 0 71 -18 71 -46c0 -33 -29 -58 -88 -58c-45 0 -70 15 -70 45c0 36 34 59 87 59z" />
    <glyph glyph-name="ninesuperior" unicode="&#x2079;" 
d="M125 375l14 65c78 5 149 38 187 80c-25 -16 -65 -25 -91 -25c-61 0 -104 42 -104 104c0 69 49 155 171 155c78 0 129 -51 129 -120c0 -102 -80 -233 -306 -259zM266 552c66 0 92 43 92 80c0 33 -21 58 -63 58c-54 0 -91 -37 -91 -81c0 -35 19 -57 62 -57z" />
    <glyph glyph-name="periodcentered" unicode="&#xb7;" horiz-adv-x="200" 
d="M154 257h-100l20 97h100z" />
    <glyph glyph-name="bullet" unicode="&#x2022;" horiz-adv-x="280" 
d="M228 219h-180l36 175h180z" />
    <glyph glyph-name="ellipsis" unicode="&#x2026;" horiz-adv-x="588" 
d="M100 0h-100l20 97h100zM300 0h-100l20 97h100zM500 0h-100l20 97h100z" />
    <glyph glyph-name="exclamdouble" unicode="&#x203c;" horiz-adv-x="380" 
d="M215 650l-110 -473h-74l86 473h98zM415 650l-110 -473h-74l86 473h98zM80 0h-100l20 97h100zM280 0h-100l20 97h100z" />
    <glyph glyph-name="exclamdown" unicode="&#xa1;" horiz-adv-x="178" 
d="M78 416l20 97h100l-20 -97h-100zM75 336h74l-86 -473h-98z" />
    <glyph glyph-name="overline" unicode="&#x203e;" horiz-adv-x="498" 
d="M580 665h-500l18 85h500z" />
    <glyph glyph-name="questiondown" unicode="&#xbf;" horiz-adv-x="519" 
d="M322 513h100l-20 -97h-100zM384 350l-9 -47c-37 -193 -288 -166 -288 -295c0 -52 53 -72 137 -72c74 0 172 27 225 48l-18 -89c-44 -19 -135 -44 -224 -44c-118 0 -217 43 -217 144c0 204 265 173 293 314l8 41h93z" />
    <glyph glyph-name="underscoredbl" unicode="&#x2017;" horiz-adv-x="498" 
d="M437 -190h-500l17 85h500zM414 -300h-500l18 85h500z" />
    <glyph glyph-name="parenleftinferior" unicode="&#x208d;" horiz-adv-x="165" 
d="M159 302h80c-98 -124 -142 -203 -142 -323c0 -58 17 -107 43 -171h-73c-23 59 -38 112 -38 169c0 114 36 205 130 325z" />
    <glyph glyph-name="parenleftsuperior" unicode="&#x207d;" horiz-adv-x="0" 
d="M159 792h80c-98 -124 -142 -203 -142 -323c0 -58 17 -107 43 -171h-73c-23 59 -38 112 -38 169c0 114 36 205 130 325z" />
    <glyph glyph-name="parenrightinferior" unicode="&#x208e;" horiz-adv-x="165" 
d="M14 -192h-80c98 124 142 203 142 323c0 58 -17 107 -43 171h73c23 -59 38 -112 38 -169c0 -114 -36 -205 -130 -325z" />
    <glyph glyph-name="parenrightsuperior" unicode="&#x207e;" horiz-adv-x="165" 
d="M14 298h-80c98 124 142 203 142 323c0 58 -17 107 -43 171h73c23 -59 38 -112 38 -169c0 -114 -36 -205 -130 -325z" />
    <glyph glyph-name="emdash" unicode="&#x2014;" horiz-adv-x="841" 
d="M792 263h-730l18 85h730z" />
    <glyph glyph-name="endash" unicode="&#x2013;" horiz-adv-x="541" 
d="M510 348l-18 -85h-430l18 85h430z" />
    <glyph glyph-name="horizontalbar" unicode="&#x2015;" horiz-adv-x="841" 
d="M792 263h-730l18 85h730z" />
    <glyph glyph-name="hyphentwo" unicode="&#x2010;" horiz-adv-x="441" 
d="M392 262h-330l18 85h330z" />
    <glyph glyph-name="softhyphen" unicode="&#xad;" horiz-adv-x="441" 
d="M392 262h-330l18 85h330z" />
    <glyph glyph-name="guillemetleft" unicode="&#xab;" horiz-adv-x="503" 
d="M153 266l58 -192h-72l-69 197l144 192h77zM350 266l58 -192h-72l-69 197l143 192h78z" />
    <glyph glyph-name="guillemetright" unicode="&#xbb;" horiz-adv-x="503" 
d="M153 271l-58 192h72l69 -197l-143 -192h-78zM350 271l-58 192h72l69 -197l-144 -192h-77z" />
    <glyph glyph-name="guilsinglleft" unicode="&#x2039;" horiz-adv-x="306" 
d="M153 266l58 -192h-72l-69 197l144 192h77z" />
    <glyph glyph-name="guilsinglright" unicode="&#x203a;" horiz-adv-x="306" 
d="M153 271l-58 192h72l69 -197l-143 -192h-78z" />
    <glyph glyph-name="quotedblbase" unicode="&#x201e;" horiz-adv-x="292" 
d="M-7 -90h-71l90 187h88zM133 -90h-71l90 187h88z" />
    <glyph glyph-name="quotedblleft" unicode="&#x201c;" horiz-adv-x="294" 
d="M161 662h71l-90 -187h-88zM301 662h71l-90 -187h-88z" />
    <glyph glyph-name="quotedblright" unicode="&#x201d;" horiz-adv-x="292" 
d="M110 475h-71l90 187h88zM250 475h-71l90 187h88z" />
    <glyph glyph-name="quoteleft" unicode="&#x2018;" horiz-adv-x="152" 
d="M159 662h71l-90 -187h-88z" />
    <glyph glyph-name="quotereversed" unicode="&#x201b;" horiz-adv-x="162" 
d="M140 662l90 -187h-71l-107 187h88z" />
    <glyph glyph-name="quoteright" unicode="&#x2019;" horiz-adv-x="152" 
d="M110 475h-71l90 187h88z" />
    <glyph glyph-name="quotesinglbase" unicode="&#x201a;" horiz-adv-x="152" 
d="M-7 -90h-71l90 187h88z" />
    <glyph glyph-name="nbspace" unicode="&#xa0;" horiz-adv-x="251" 
 />
    <glyph glyph-name="Ruble" unicode="&#x20bd;" horiz-adv-x="659" 
d="M220 252l-15 -73h186l-18 -86h-186l-19 -93h-94l19 93h-80l18 86h80l15 73h-80l18 86h80l65 312h243c94 0 210 -38 210 -168c0 -110 -86 -230 -277 -230h-165zM238 338h147c118 0 175 56 175 137c0 67 -46 89 -127 89h-148z" />
    <glyph glyph-name="cent" unicode="&#xa2;" horiz-adv-x="553" 
d="M390 507c-131 0 -238 -89 -238 -229c0 -92 66 -142 165 -142c101 0 190 40 190 40l-18 -88s-71 -32 -168 -36l-17 -82h-88l19 89c-101 23 -175 97 -175 216c0 185 133 289 283 309l20 97h88l-19 -94c84 -6 141 -33 141 -33l-17 -81s-78 34 -166 34z" />
    <glyph glyph-name="currency" unicode="&#xa4;" horiz-adv-x="600" 
d="M585 520l-77 -65c14 -29 20 -57 20 -85c0 -49 -21 -110 -72 -164l51 -64l-57 -47l-51 62c-44 -28 -92 -40 -130 -40c-42 0 -87 14 -120 41l-78 -63l-37 47l76 65c-13 26 -19 57 -19 86c0 53 18 111 70 164l-50 63l57 47l52 -63c42 27 88 40 129 40c43 0 86 -13 122 -40
l77 63zM337 473c-91 0 -173 -76 -173 -168c0 -65 49 -116 118 -116c88 0 173 78 173 170c0 65 -49 114 -118 114z" />
    <glyph glyph-name="euro" unicode="&#x20ac;" horiz-adv-x="704" 
d="M498 572c-105 0 -193 -51 -237 -149h278l-26 -77h-276c-3 -17 -5 -34 -5 -53h262l-26 -77h-232c18 -102 92 -138 174 -138c73 0 145 15 218 44l-20 -94c-74 -29 -149 -40 -213 -40c-128 0 -240 63 -258 228h-128l26 77h101c1 18 3 36 5 53h-87l26 77h80
c55 161 196 239 343 239c69 0 148 -12 221 -41l-20 -92c-69 27 -143 43 -206 43z" />
    <glyph glyph-name="florin" unicode="&#x192;" horiz-adv-x="411" 
d="M360 662c44 0 86 -14 86 -14l-17 -77s-35 12 -80 12c-49 0 -77 -16 -89 -75l-9 -44h161l-15 -76h-161l-71 -345c-26 -125 -78 -170 -177 -170c-36 0 -78 11 -78 11l17 75s41 -8 65 -8c58 0 74 46 86 104l68 333h-93l15 76h94l11 50c26 121 94 148 187 148z" />
    <glyph glyph-name="franc" unicode="&#x20a3;" horiz-adv-x="561" 
d="M261 564l-36 -174h317l-18 -86h-317l-19 -94h185l-17 -86h-186l-26 -124h-94l26 124h-80l17 86h81l91 440h436l-18 -86h-342z" />
    <glyph glyph-name="lira" unicode="&#x20a4;" horiz-adv-x="508" 
d="M387 577c-61 0 -88 -22 -101 -85l-10 -49h164l-16 -77h-164l-10 -49h164l-16 -77h-164l-4 -20c-8 -38 -26 -110 -85 -134h347l-18 -86h-464l14 66c58 43 95 74 115 168l1 6h-91l16 77h91l10 49h-91l16 77h91l10 48c25 122 76 171 199 171c44 0 104 -9 147 -24l-18 -84
c-42 13 -88 23 -133 23z" />
    <glyph glyph-name="liraTurkish" unicode="&#x20ba;" horiz-adv-x="578" 
d="M482 345h96c-43 -211 -211 -345 -422 -345c-16 0 -61 1 -76 2l45 217l-110 -54l17 90l112 55l16 75l-111 -54l18 90l112 54l36 175h94l-26 -123l190 92l-18 -91l-190 -92l-16 -75l189 92l-18 -91l-190 -92l-38 -184c146 6 258 101 290 259z" />
    <glyph glyph-name="peseta" unicode="&#x20a7;" horiz-adv-x="1063" 
d="M150 650h214c94 0 219 -47 219 -184c0 -133 -96 -263 -294 -263h-137l-43 -203h-94zM227 566l-58 -279h117c134 0 197 83 197 175c0 79 -65 104 -144 104h-112zM685 304h95l-14 -71h-95l-29 -133c-6 -29 0 -38 31 -38c14 0 27 1 57 8l-16 -74c-31 -6 -44 -8 -65 -8
c-79 0 -97 49 -82 121l27 124h-61l14 71h61l22 71h70zM937 309c40 0 89 -9 121 -18l-16 -71c-51 12 -83 16 -115 16c-42 0 -52 -11 -52 -22c0 -7 6 -13 21 -17l65 -16c46 -11 76 -35 76 -80c0 -69 -45 -113 -161 -113c-44 0 -84 8 -121 20l17 73c27 -9 68 -21 120 -21
c28 0 62 6 62 30c0 11 -6 20 -29 25l-57 11c-56 11 -78 36 -78 79c0 56 45 104 147 104z" />
    <glyph glyph-name="rupeeIndian" unicode="&#x20b9;" horiz-adv-x="558" 
d="M581 573h-125c21 -23 33 -54 33 -92v-2h90l-34 -77h-75c-33 -69 -110 -137 -241 -160l132 -242h-96l-136 247l45 67c103 0 165 40 196 88h-305l34 77h297v10c0 52 -37 84 -113 84h-182l34 77h480z" />
    <glyph glyph-name="sterling" unicode="&#xa3;" horiz-adv-x="508" 
d="M387 577c-61 0 -88 -22 -101 -85l-16 -79h165l-16 -77h-165l-24 -116c-8 -38 -26 -110 -85 -134h347l-18 -86h-464l14 66c58 43 95 74 115 168l21 102h-90l16 77h90l16 78c25 122 76 171 199 171c44 0 104 -9 147 -24l-18 -84c-42 13 -88 23 -133 23z" />
    <glyph glyph-name="yen" unicode="&#xa5;" horiz-adv-x="605" 
d="M565 650h120c-147 -160 -175 -194 -269 -291h173l-16 -77h-218l-15 -75h218l-16 -77h-218l-27 -130h-94l27 130h-217l16 77h217l15 75h-217l16 77h170c-53 93 -72 133 -146 291h97c44 -105 95 -217 135 -292c64 68 144 162 249 292z" />
    <glyph glyph-name="Omega" unicode="&#x3a9;" horiz-adv-x="773" 
d="M746 402c0 -106 -50 -239 -151 -316h88l-18 -86h-268l14 64l2 12c134 0 233 182 233 319c0 110 -73 179 -197 179c-208 0 -290 -176 -290 -309c0 -110 59 -189 130 -189l-12 -54l-4 -22h-268l18 86h101c-39 41 -63 101 -63 177c0 171 120 399 396 399
c186 0 289 -99 289 -260z" />
    <glyph glyph-name="approxequal" unicode="&#x2248;" horiz-adv-x="517" 
d="M415 439h77c0 -69 -54 -116 -123 -116c-61 0 -111 37 -172 37c-30 0 -58 -12 -59 -37h-77c0 69 54 116 123 116c61 0 111 -37 172 -37c30 0 58 12 59 37zM415 279h77c0 -69 -54 -116 -123 -116c-61 0 -111 37 -172 37c-30 0 -58 -12 -59 -37h-77c0 69 54 116 123 116
c61 0 111 -37 172 -37c30 0 58 12 59 37z" />
    <glyph glyph-name="bulletoperator" unicode="&#x2219;" horiz-adv-x="280" 
d="M228 219h-180l36 175h180z" />
    <glyph glyph-name="divide" unicode="&#xf7;" horiz-adv-x="533" 
d="M331 416h-100v97h100v-97zM67 341h430v-85h-430v85zM331 84h-100v97h100v-97z" />
    <glyph glyph-name="divisionslash" unicode="&#x2215;" horiz-adv-x="530" 
d="M112 0h-102l445 650h104z" />
    <glyph glyph-name="equalinferior" horiz-adv-x="295" 
d="M290 95h-265v71h265v-71zM290 -15h-265v71h265v-71z" />
    <glyph glyph-name="equalsuperior" unicode="&#x207c;" horiz-adv-x="295" 
d="M290 585h-265v71h265v-71zM290 475h-265v71h265v-71z" />
    <glyph glyph-name="greaterequal" unicode="&#x2265;" horiz-adv-x="589" 
d="M563 392v-92l-509 -180v86l416 139l-416 142v86zM563 0h-509v85h509v-85z" />
    <glyph glyph-name="Delta" unicode="&#x394;" horiz-adv-x="664" 
d="M369 650h101c20 -67 77 -242 138 -588l-13 -62h-608l13 62c157 313 325 534 369 588zM118 87h390c-23 150 -68 342 -105 469c-70 -86 -203 -313 -285 -469z" />
    <glyph glyph-name="infinity" unicode="&#x221e;" horiz-adv-x="662" 
d="M503 453c90 0 137 -64 137 -152c0 -85 -52 -151 -133 -151c-72 0 -105 33 -163 95c-57 -62 -91 -95 -163 -95c-80 0 -133 66 -133 151c0 88 54 152 137 152c70 0 112 -47 159 -102c47 55 89 102 159 102zM187 373c-40 0 -58 -31 -58 -74c0 -40 18 -70 57 -70
c36 0 56 21 105 71c-34 41 -68 73 -104 73zM501 373c-36 0 -70 -32 -104 -73c47 -49 64 -71 105 -71c40 0 57 30 57 70c0 43 -17 74 -58 74z" />
    <glyph glyph-name="integral" unicode="&#x222b;" horiz-adv-x="341" 
d="M278 750c24 0 50 -4 63 -7v-82c-18 3 -38 5 -62 5c-39 0 -65 -25 -65 -81v-628c0 -117 -54 -169 -151 -169c-24 0 -50 4 -63 7v82c18 -3 38 -5 62 -5c39 0 65 23 65 81v628c0 117 54 169 151 169z" />
    <glyph glyph-name="lessequal" unicode="&#x2264;" horiz-adv-x="619" 
d="M566 487l-416 -142l416 -139v-86l-509 180v92l509 181v-86zM566 85v-85h-509v85h509z" />
    <glyph glyph-name="logicalnot" unicode="&#xac;" horiz-adv-x="523" 
d="M407 109v174h-345v85h430v-259h-85z" />
    <glyph glyph-name="mu" unicode="&#x3bc;" horiz-adv-x="585" 
d="M613 513l-107 -513h-59l-9 51c-32 -27 -107 -63 -196 -63c-45 0 -88 13 -116 37l-47 -225h-88l128 617l19 96h90l-21 -104l-2 -10l-20 -97l-22 -105c-4 -17 -7 -34 -7 -49c0 -49 28 -79 106 -79c77 0 150 37 183 65l78 379h90z" />
    <glyph glyph-name="minus" unicode="&#x2212;" horiz-adv-x="533" 
d="M497 283h-430v85h430v-85z" />
    <glyph glyph-name="minusinferior" unicode="&#x208b;" horiz-adv-x="295" 
d="M288 39h-265v71h265v-71z" />
    <glyph glyph-name="minussuperior" unicode="&#x207b;" horiz-adv-x="295" 
d="M288 529h-265v71h265v-71z" />
    <glyph glyph-name="multiply" unicode="&#xd7;" horiz-adv-x="509" 
d="M454 177l-60 -60l-121 121l-122 -121l-60 60l121 122l-121 121l60 60l122 -121l121 121l60 -60l-121 -121z" />
    <glyph glyph-name="notequal" unicode="&#x2260;" horiz-adv-x="537" 
d="M358 333l-51 -107h193v-85h-231l-49 -101h-98l48 101h-100v85h142l50 107h-192v85h231l47 100h100l-47 -100h99v-85h-142z" />
    <glyph glyph-name="partialdiff" unicode="&#x2202;" horiz-adv-x="661" 
d="M305 647l40 76c153 -34 286 -115 286 -312c0 -219 -113 -423 -345 -423c-138 0 -238 75 -238 212c0 134 104 284 293 284c70 0 138 -20 199 -66c-4 158 -102 203 -235 229zM295 73c147 0 217 126 238 251c-62 58 -122 76 -195 76c-125 0 -193 -91 -193 -198
c0 -64 42 -129 150 -129z" />
    <glyph glyph-name="perthousand" unicode="&#x2030;" horiz-adv-x="1282" 
d="M284 662c91 0 139 -55 139 -132c0 -103 -55 -249 -209 -249c-94 0 -140 58 -140 136c0 105 54 245 210 245zM276 0h-99l471 650h97zM274 592c-82 0 -112 -106 -112 -171c0 -43 21 -69 61 -69c81 0 108 106 108 167c0 46 -18 73 -57 73zM710 369c91 0 139 -55 139 -132
c0 -103 -55 -249 -209 -249c-94 0 -140 58 -140 136c0 105 54 245 210 245zM1109 369c91 0 139 -55 139 -132c0 -103 -55 -249 -209 -249c-94 0 -140 58 -140 136c0 105 54 245 210 245zM700 299c-82 0 -112 -106 -112 -171c0 -43 21 -69 61 -69c81 0 108 106 108 167
c0 46 -18 73 -57 73zM1099 299c-82 0 -112 -106 -112 -171c0 -43 21 -69 61 -69c81 0 108 106 108 167c0 46 -18 73 -57 73z" />
    <glyph glyph-name="plusinferior" unicode="&#x208a;" horiz-adv-x="294" 
d="M190 -57h-72v96h-96v71h96v96h72v-96h96v-71h-96v-96z" />
    <glyph glyph-name="plusminus" unicode="&#xb1;" horiz-adv-x="519" 
d="M307 142h-85v124h-162v85h162v150h85v-150h162v-85h-162v-124zM469 0h-409v85h409v-85z" />
    <glyph glyph-name="plussuperior" unicode="&#x207a;" horiz-adv-x="294" 
d="M190 433h-72v96h-96v71h96v96h72v-96h96v-71h-96v-96z" />
    <glyph glyph-name="product" unicode="&#x220f;" horiz-adv-x="709" 
d="M644 -200h-94v805h-361v-805h-94v891h549v-891z" />
    <glyph glyph-name="radical" unicode="&#x221a;" horiz-adv-x="530" 
d="M346 -199h-83l-160 329l-44 -21l-29 61l115 52l146 -311l173 839h81z" />
    <glyph glyph-name="summation" unicode="&#x2211;" horiz-adv-x="601" 
d="M203 -114h398v-86h-521v64l314 382l-314 381v64h521v-86h-398l275 -337v-44z" />
    <glyph glyph-name="lozenge" unicode="&#x25ca;" horiz-adv-x="561" 
d="M559 326l-294 -338h-83l-154 338l294 336h83zM142 326l102 -239l200 239l-102 238z" />
    <glyph glyph-name="apple" unicode="&#xf8ff;" horiz-adv-x="511" 
d="M511 750v-750h-511v750h511zM424 85v580h-337v-580h337z" />
    <glyph glyph-name="brokenbar" unicode="&#xa6;" horiz-adv-x="254" 
d="M98 734h94v-404h-94v404zM192 -250h-94v420h94v-420z" />
    <glyph glyph-name="paragraph" unicode="&#xb6;" horiz-adv-x="582" 
d="M432 -75h-88l134 648h-91l-134 -648h-88l68 330c-106 9 -160 63 -160 148c0 124 79 247 305 247h204z" />
    <glyph glyph-name="careof" unicode="&#x2105;" horiz-adv-x="916" 
d="M288 661c42 0 77 -6 114 -17l-15 -76c-48 14 -77 18 -102 18c-79 0 -109 -52 -109 -105c0 -37 22 -67 77 -67c29 0 45 2 110 20l-16 -77c-44 -14 -73 -18 -110 -18c-89 0 -144 51 -144 131c0 90 63 191 195 191zM281 0h-99l472 650h97zM723 311c76 0 142 -44 142 -125
c0 -97 -65 -197 -197 -197c-76 0 -142 43 -142 124c0 93 64 198 197 198zM711 236c-74 0 -103 -66 -103 -107c0 -36 23 -65 73 -65c67 0 102 56 102 108c0 41 -31 64 -72 64z" />
    <glyph glyph-name="copyright" unicode="&#xa9;" horiz-adv-x="852" 
d="M398 -11c238 0 452 209 452 441c0 186 -124 308 -314 308c-239 0 -453 -209 -453 -443c0 -184 126 -306 315 -306zM533 693c161 0 272 -108 272 -267c0 -204 -193 -392 -403 -392c-162 0 -274 109 -274 265c0 205 195 394 405 394zM515 569c49 0 89 -8 133 -24l-15 -67
c-54 20 -86 27 -127 27c-125 0 -177 -103 -177 -175c0 -59 36 -108 119 -108c57 0 92 12 145 30l-14 -70c-51 -17 -88 -24 -139 -24c-120 0 -186 64 -186 168c0 107 82 243 261 243z" />
    <glyph glyph-name="registered" unicode="&#xae;" horiz-adv-x="542" 
d="M359 661c104 0 179 -70 179 -177c0 -140 -125 -264 -267 -264c-109 0 -185 74 -185 178c0 137 121 263 273 263zM276 262c114 0 220 104 220 216c0 84 -60 142 -146 142c-115 0 -222 -104 -222 -215c0 -84 61 -143 148 -143zM420 495c0 -37 -26 -72 -70 -83
c21 -35 39 -66 50 -89h-53c-14 30 -25 54 -45 82h-41l-17 -82h-46l49 237h95c42 0 78 -21 78 -65zM270 448h44c40 0 57 17 57 43c0 17 -11 27 -40 27h-46z" />
    <glyph glyph-name="published" unicode="&#x2117;" horiz-adv-x="852" 
d="M398 -11c238 0 452 209 452 441c0 186 -124 308 -314 308c-239 0 -453 -209 -453 -443c0 -184 126 -306 315 -306zM533 693c161 0 272 -108 272 -267c0 -204 -193 -392 -403 -392c-162 0 -274 109 -274 265c0 205 195 394 405 394zM386 283l-27 -132h-68l83 405h149
c74 0 145 -31 145 -114c0 -81 -51 -159 -196 -159h-86zM430 495l-31 -150h90c72 0 107 42 107 92c0 41 -34 58 -84 58h-82z" />
    <glyph glyph-name="section" unicode="&#xa7;" horiz-adv-x="484" 
d="M328 581c-64 0 -96 -20 -96 -57c0 -20 15 -34 62 -61l77 -45c47 -27 67 -53 67 -91c0 -65 -46 -115 -134 -148l5 -3c50 -28 76 -63 76 -105c0 -95 -76 -154 -210 -154c-40 0 -89 7 -141 22l18 85c45 -15 91 -25 132 -25c71 0 105 18 105 53c0 23 -15 39 -64 66l-81 45
c-43 24 -64 51 -64 90c0 65 46 116 134 148l-4 2c-49 26 -76 63 -76 111c0 90 76 149 203 149c39 0 85 -6 128 -18l-18 -87c-40 13 -84 23 -119 23zM340 304c0 20 -9 34 -28 44l-38 20c-68 -30 -96 -58 -96 -97c0 -16 9 -28 28 -38l38 -21c71 30 96 55 96 92z" />
    <glyph glyph-name="trademark" unicode="&#x2122;" horiz-adv-x="780" 
d="M397 585h-126l-62 -297h-70l62 297h-129l13 65h325zM712 650h66c1 -27 4 -58 4 -108c0 -55 -3 -133 -12 -254h-68c12 160 14 216 13 252c-42 -70 -87 -149 -127 -218h-52c-14 78 -23 137 -37 215c-18 -44 -47 -124 -88 -249h-72c76 225 110 299 140 362h62
c15 -64 27 -131 39 -218c56 98 100 167 132 218z" />
    <glyph glyph-name="degree" unicode="&#xb0;" horiz-adv-x="350" 
d="M160 514c80 0 149 68 149 145c0 62 -44 105 -108 105c-79 0 -148 -67 -148 -145c0 -62 43 -105 107 -105zM168 572c-33 0 -56 23 -56 54c0 41 40 80 82 80c33 0 56 -23 56 -54c0 -41 -40 -80 -82 -80z" />
    <glyph glyph-name="estimated" unicode="&#x212e;" horiz-adv-x="827" 
d="M414 661c233 0 367 -160 367 -347h-587c-7 0 -13 -5 -13 -12v-160c0 -19 3 -31 15 -42c56 -55 128 -88 218 -88c94 0 179 44 229 105h66c-43 -60 -139 -128 -295 -128c-223 0 -369 140 -369 334c0 190 139 338 369 338zM414 636c-90 0 -162 -34 -218 -90
c-12 -11 -15 -21 -15 -39v-160c0 -7 6 -12 13 -12h437c8 0 13 5 13 12v160c0 18 -3 28 -15 39c-65 65 -141 90 -215 90z" />
    <glyph glyph-name="literSign" unicode="&#x2113;" horiz-adv-x="429" 
d="M301 82c18 0 51 5 70 11l1 -84c-19 -6 -57 -13 -80 -13c-97 0 -162 41 -162 149v84l-54 -33l-34 61c31 18 61 36 88 54v214c0 142 64 210 156 210c89 0 150 -51 150 -145c0 -105 -89 -207 -217 -301v-118c0 -67 25 -89 82 -89zM219 525v-148c79 66 126 135 126 213
c0 30 -19 61 -59 61c-45 0 -67 -44 -67 -126z" />
    <glyph glyph-name="numero" unicode="&#x2116;" horiz-adv-x="1275" 
d="M1108 661c106 0 188 -57 188 -169c0 -17 -2 -35 -6 -55c-31 -150 -154 -223 -276 -223c-106 0 -189 56 -189 169c0 16 2 35 6 54c31 148 154 224 277 224zM518 0l-282 524l-109 -524h-94l135 650h103l262 -492l102 492h94l-135 -650h-76zM1092 583
c-82 0 -155 -56 -174 -146c-2 -12 -4 -24 -4 -35c0 -60 36 -108 119 -108c97 0 156 67 171 143c3 13 4 25 4 37c0 68 -47 109 -116 109zM1187 85l-18 -85h-397l18 85h397z" />
    <glyph glyph-name="dagger" unicode="&#x2020;" horiz-adv-x="509" 
d="M241 0h-85l86 413h-172l17 85h172l36 172h85l-36 -172h172l-17 -85h-172z" />
    <glyph glyph-name="daggerdbl" unicode="&#x2021;" horiz-adv-x="531" 
d="M349 413l-24 -115h172l-18 -85h-172l-44 -213h-85l44 213h-172l18 85h172l24 115h-172l17 85h172l36 172h85l-36 -172h172l-17 -85h-172z" />
    <glyph glyph-name="interrobang" unicode="&#x203d;" horiz-adv-x="544" 
d="M332 662c118 0 217 -43 217 -144c0 -204 -271 -179 -300 -321l-8 -39h-87l54 313h96l-31 -127c82 55 179 81 179 161c0 52 -53 72 -137 72c-74 0 -172 -27 -225 -48l18 89c44 19 135 44 224 44zM232 97l-20 -97h-100l20 97h100z" />
    <glyph glyph-name="minute" unicode="&#x2032;" horiz-adv-x="282" 
d="M210 493h-66l35 230h92z" />
    <glyph glyph-name="second" unicode="&#x2033;" horiz-adv-x="282" 
d="M241 723l-61 -230h-66l35 230h92z" />
    <glyph glyph-name="ampersand.001" horiz-adv-x="699" 
d="M521 143c50 -52 102 -101 150 -143h-128c-29 25 -60 54 -92 85c-80 -59 -168 -101 -253 -101c-111 0 -168 54 -168 137c0 88 44 165 203 241c-26 48 -42 93 -42 130c0 75 52 168 197 168c106 0 159 -65 159 -126c0 -89 -77 -142 -191 -198c32 -44 72 -92 114 -139
c45 40 84 82 112 117l89 -2c-39 -55 -90 -115 -150 -169zM382 582c-67 0 -99 -39 -99 -89c0 -25 12 -58 33 -95c75 31 139 78 139 128c0 38 -37 56 -73 56zM212 68c59 0 125 30 186 73c-45 49 -88 102 -124 154c-115 -59 -151 -108 -151 -165c0 -33 20 -62 89 -62z" />
    <glyph glyph-name="acute" unicode="&#xb4;" horiz-adv-x="240" 
d="M81 591h-83l104 145h110z" />
    <glyph glyph-name="breve" unicode="&#x2d8;" horiz-adv-x="344" 
d="M232 712h77c-23 -73 -70 -119 -159 -119s-132 46 -125 119h77c-3 -31 12 -53 54 -53c41 0 65 22 76 53z" />
    <glyph glyph-name="caron" unicode="&#x2c7;" horiz-adv-x="372" 
d="M211 591h-110l-71 145h76l57 -86l93 86h86z" />
    <glyph glyph-name="cedilla" unicode="&#xb8;" horiz-adv-x="260" 
d="M177 5l-16 -46c41 -7 60 -31 60 -66c0 -58 -37 -100 -123 -100c-26 0 -52 3 -94 14l13 61c41 -11 58 -13 85 -13c35 0 49 15 49 33c0 15 -14 24 -43 24c-16 0 -27 -1 -39 -3l45 96h63z" />
    <glyph glyph-name="circumflex" unicode="&#x2c6;" horiz-adv-x="372" 
d="M179 677l-93 -86h-86l131 145h110l71 -145h-76z" />
    <glyph glyph-name="dieresis" unicode="&#xa8;" horiz-adv-x="356" 
d="M98 588h-98l20 96h98zM296 588h-98l20 96h98z" />
    <glyph glyph-name="dotaccent" unicode="&#x2d9;" horiz-adv-x="158" 
d="M98 588h-98l20 96h98z" />
    <glyph glyph-name="hungarumlaut" unicode="&#x2dd;" horiz-adv-x="408" 
d="M80 591h-82l104 145h111zM247 591h-82l104 145h111z" />
    <glyph glyph-name="macron" unicode="&#xaf;" horiz-adv-x="334" 
d="M274 615h-274l16 77h274z" />
    <glyph glyph-name="ogonek" unicode="&#x2db;" horiz-adv-x="244" 
d="M137 4l86 1c-90 -34 -133 -73 -133 -104c0 -12 7 -18 28 -18c22 0 55 9 83 20l-13 -69c-30 -10 -56 -16 -89 -16c-59 0 -86 26 -86 63c0 67 69 106 124 123z" />
    <glyph glyph-name="ring" unicode="&#x2da;" horiz-adv-x="262" 
d="M107 580c-57 0 -91 32 -91 75c0 59 44 97 116 97c57 0 90 -31 90 -74c0 -45 -31 -98 -115 -98zM127 706c-41 0 -61 -23 -61 -46c0 -26 19 -34 46 -34c38 0 60 20 60 47c0 24 -21 33 -45 33z" />
    <glyph glyph-name="tilde" unicode="&#x2dc;" horiz-adv-x="362" 
d="M263 714h60c-20 -56 -58 -97 -114 -97c-37 0 -78 27 -109 27c-22 0 -31 -10 -40 -30h-60c20 56 58 97 114 97c42 0 73 -27 108 -27c24 0 34 10 41 30z" />
    <glyph glyph-name="acute.case" horiz-adv-x="240" 
d="M82 710h-85l104 145h112z" />
    <glyph glyph-name="breve.case" horiz-adv-x="344" 
d="M232 827h77c-23 -73 -70 -119 -159 -119s-132 46 -125 119h77c-3 -31 12 -53 54 -53c41 0 65 22 76 53z" />
    <glyph glyph-name="caron.alt" horiz-adv-x="198" 
d="M76 525h-76l78 166h96z" />
    <glyph glyph-name="caron.case" horiz-adv-x="372" 
d="M211 710h-110l-71 145h76l57 -86l93 86h86z" />
    <glyph glyph-name="circumflex.case" horiz-adv-x="372" 
d="M312 710h-76l-57 86l-93 -86h-86l131 145h110z" />
    <glyph glyph-name="dieresis.case" horiz-adv-x="358" 
d="M100 707h-100l20 98h100zM298 707h-100l20 98h100z" />
    <glyph glyph-name="dotaccent.case" horiz-adv-x="160" 
d="M100 707h-100l20 98h100z" />
    <glyph glyph-name="grave.case" horiz-adv-x="240" 
d="M82 855l104 -145h-85l-131 145h112z" />
    <glyph glyph-name="hungarumlaut.case" horiz-adv-x="408" 
d="M80 710h-82l104 145h111zM247 710h-82l104 145h111z" />
    <glyph glyph-name="macron.case" horiz-adv-x="334" 
d="M274 716h-274l16 77h274z" />
    <glyph glyph-name="ring.case" horiz-adv-x="262" 
d="M107 711c-57 0 -91 32 -91 75c0 59 44 97 116 97c57 0 90 -31 90 -74c0 -45 -31 -98 -115 -98zM127 837c-41 0 -61 -23 -61 -46c0 -26 19 -34 46 -34c38 0 60 20 60 47c0 24 -21 33 -45 33z" />
    <glyph glyph-name="tilde.case" horiz-adv-x="362" 
d="M263 834h60c-20 -56 -58 -97 -114 -97c-37 0 -78 27 -109 27c-22 0 -31 -10 -40 -30h-60c20 56 58 97 114 97c42 0 73 -27 108 -27c24 0 34 10 41 30z" />
    <glyph glyph-name="commaaccent" unicode="&#x326;" horiz-adv-x="0" 
d="M101 -220h-71l78 165h91z" />
    <glyph glyph-name="commaturnedabovecomb" unicode="&#x312;" horiz-adv-x="0" 
d="M128 759h71l-78 -165h-91z" />
    <glyph glyph-name="brevecy" horiz-adv-x="0" 
d="M316 713h-67c-22 -40 -53 -55 -93 -55c-31 0 -50 14 -48 55h-76c-10 -76 22 -120 111 -120c76 0 140 39 173 120z" />
    <glyph glyph-name="brevecy.case" horiz-adv-x="0" 
d="M316 817h-67c-22 -40 -53 -55 -93 -55c-31 0 -50 14 -48 55h-76c-10 -76 22 -120 111 -120c76 0 140 39 173 120z" />
    <glyph glyph-name="apostrophemod" unicode="&#x2bc;" horiz-adv-x="193" 
d="M71 525h-71l78 166h91z" />
    <glyph glyph-name="firsttonechinese" unicode="&#x2c9;" horiz-adv-x="334" 
d="M244 615h-274l16 77h274z" />
    <glyph glyph-name="uni20BC" unicode="&#x20bc;" horiz-adv-x="654" 
d="M220 252l-15 -73h186l-18 -86h-186l-19 -93h-94l19 93h-80l18 86h80l15 73h-80l18 86h80l65 312h243c94 0 210 -38 210 -168c0 -110 -86 -230 -277 -230h-165zM238 338h147c118 0 175 56 175 137c0 67 -46 89 -127 89h-148z" />
    <glyph glyph-name="uniFEFF" unicode="&#xfeff;" horiz-adv-x="600" 
 />
    <glyph glyph-name="Abreve" unicode="&#x102;" horiz-adv-x="664" 
d="M518 827h77c-23 -73 -70 -119 -159 -119s-132 46 -125 119h77c-3 -31 12 -53 54 -53c41 0 65 22 76 53zM618 0h-95c-5 32 -17 103 -32 181h-322c-33 -60 -64 -121 -96 -181h-105c107 214 241 448 401 650h101c65 -216 115 -432 148 -650zM403 556
c-53 -67 -114 -163 -185 -288h256c-19 90 -43 191 -71 288z" />
    <glyph glyph-name="Amacron" unicode="&#x100;" horiz-adv-x="664" 
d="M583 793l-16 -77h-274l16 77h274zM618 0h-95c-5 32 -17 103 -32 181h-322c-33 -60 -64 -121 -96 -181h-105c107 214 241 448 401 650h101c65 -216 115 -432 148 -650zM403 556c-53 -67 -114 -163 -185 -288h256c-19 90 -43 191 -71 288z" />
    <glyph glyph-name="Aogonek" unicode="&#x104;" horiz-adv-x="664" 
d="M476 -99c0 -12 7 -18 28 -18c22 0 55 9 83 20l-13 -69c-30 -10 -56 -16 -89 -16c-59 0 -86 26 -86 63c0 67 68 106 123 123c-5 33 -17 102 -31 177h-322c-33 -60 -64 -121 -96 -181h-105c107 214 241 448 401 650h101c65 -216 115 -432 148 -650h-22
c-81 -33 -120 -70 -120 -99zM218 268h256c-19 90 -43 191 -71 288c-53 -67 -114 -163 -185 -288z" />
    <glyph glyph-name="Aringacute" unicode="&#x1fa;" horiz-adv-x="664" 
d="M647 1064l-131 -145h-85l104 145h112zM435 711c-57 0 -91 32 -91 75c0 59 44 97 116 97c57 0 90 -31 90 -74c0 -45 -31 -98 -115 -98zM455 837c-41 0 -61 -23 -61 -46c0 -26 19 -34 46 -34c38 0 60 20 60 47c0 24 -21 33 -45 33zM618 0h-95c-5 32 -17 103 -32 181h-322
c-33 -60 -64 -121 -96 -181h-105c107 214 241 448 401 650h101c65 -216 115 -432 148 -650zM403 556c-53 -67 -114 -163 -185 -288h256c-19 90 -43 191 -71 288z" />
    <glyph glyph-name="AEacute" unicode="&#x1fc;" horiz-adv-x="963" 
d="M778 710h-85l104 145h112zM655 564l-39 -187h295l-18 -85h-295l-42 -206h322l-18 -86h-416l37 179h-270c-49 -60 -96 -120 -142 -179h-114c230 298 437 527 572 650h468l-18 -86h-322zM499 265l62 303c-102 -102 -194 -203 -279 -303h217z" />
    <glyph glyph-name="Cacute" unicode="&#x106;" horiz-adv-x="699" 
d="M656 855l-131 -145h-85l104 145h112zM500 662c73 0 146 -12 219 -42l-20 -92c-69 28 -138 44 -207 44c-173 0 -334 -105 -334 -302c0 -144 124 -192 243 -192c73 0 145 15 218 44l-20 -94c-74 -29 -149 -40 -223 -40c-153 0 -314 75 -314 275c0 269 222 399 438 399z" />
    <glyph glyph-name="Ccaron" unicode="&#x10c;" horiz-adv-x="699" 
d="M672 855l-131 -145h-110l-71 145h76l57 -86l93 86h86zM500 662c73 0 146 -12 219 -42l-20 -92c-69 28 -138 44 -207 44c-173 0 -334 -105 -334 -302c0 -144 124 -192 243 -192c73 0 145 15 218 44l-20 -94c-74 -29 -149 -40 -223 -40c-153 0 -314 75 -314 275
c0 269 222 399 438 399z" />
    <glyph glyph-name="Ccircumflex" unicode="&#x108;" horiz-adv-x="699" 
d="M571 855l71 -145h-76l-57 86l-93 -86h-86l131 145h110zM500 662c73 0 146 -12 219 -42l-20 -92c-69 28 -138 44 -207 44c-173 0 -334 -105 -334 -302c0 -144 124 -192 243 -192c73 0 145 15 218 44l-20 -94c-74 -29 -149 -40 -223 -40c-153 0 -314 75 -314 275
c0 269 222 399 438 399z" />
    <glyph glyph-name="Cdotaccent" unicode="&#x10a;" horiz-adv-x="699" 
d="M556 805l-20 -98h-100l20 98h100zM500 662c73 0 146 -12 219 -42l-20 -92c-69 28 -138 44 -207 44c-173 0 -334 -105 -334 -302c0 -144 124 -192 243 -192c73 0 145 15 218 44l-20 -94c-74 -29 -149 -40 -223 -40c-153 0 -314 75 -314 275c0 269 222 399 438 399z" />
    <glyph glyph-name="Dcaron" unicode="&#x10e;" horiz-adv-x="711" 
d="M586 855l-131 -145h-110l-71 145h76l57 -86l93 86h86zM168 650h211c165 0 302 -72 302 -252c0 -287 -220 -398 -436 -398h-212zM145 88h98c224 0 344 120 344 292c0 116 -76 182 -221 182h-122z" />
    <glyph glyph-name="Dcroat" unicode="&#x110;" horiz-adv-x="711" 
d="M168 650h211c165 0 302 -72 302 -252c0 -287 -220 -398 -436 -398h-212l61 293h-80l17 86h81zM145 88h98c224 0 344 120 344 292c0 116 -76 182 -221 182h-122l-38 -183h205l-17 -86h-206z" />
    <glyph glyph-name="Ebreve" unicode="&#x114;" horiz-adv-x="590" 
d="M490 827h77c-23 -73 -70 -119 -159 -119s-132 46 -125 119h77c-3 -31 12 -53 54 -53c41 0 65 22 76 53zM244 564l-39 -187h332l-18 -85h-332l-42 -206h360l-18 -86h-454l135 650h454l-17 -86h-361z" />
    <glyph glyph-name="Ecaron" unicode="&#x11a;" horiz-adv-x="590" 
d="M586 855l-131 -145h-110l-71 145h76l57 -86l93 86h86zM244 564l-39 -187h332l-18 -85h-332l-42 -206h360l-18 -86h-454l135 650h454l-17 -86h-361z" />
    <glyph glyph-name="Edotaccent" unicode="&#x116;" horiz-adv-x="590" 
d="M470 805l-20 -98h-100l20 98h100zM244 564l-39 -187h332l-18 -85h-332l-42 -206h360l-18 -86h-454l135 650h454l-17 -86h-361z" />
    <glyph glyph-name="Emacron" unicode="&#x112;" horiz-adv-x="590" 
d="M555 793l-16 -77h-274l16 77h274zM244 564l-39 -187h332l-18 -85h-332l-42 -206h360l-18 -86h-454l135 650h454l-17 -86h-361z" />
    <glyph glyph-name="Eogonek" unicode="&#x118;" horiz-adv-x="590" 
d="M605 564h-361l-39 -187h332l-18 -85h-332l-42 -206h360l-18 -86h-102c-81 -33 -120 -70 -120 -99c0 -12 7 -18 28 -18c22 0 55 9 83 20l-13 -69c-30 -10 -56 -16 -89 -16c-59 0 -86 26 -86 63c0 62 59 100 112 119h-267l135 650h454z" />
    <glyph glyph-name="Gbreve" unicode="&#x11e;" horiz-adv-x="714" 
d="M564 827h77c-23 -73 -70 -119 -159 -119s-132 46 -125 119h77c-3 -31 12 -53 54 -53c41 0 65 22 76 53zM503 662c121 0 215 -43 215 -43l-19 -89s-96 42 -207 42c-171 0 -334 -99 -334 -301c0 -138 108 -194 230 -194c72 0 131 17 131 17l46 225h94l-61 -296
s-94 -35 -228 -35c-159 0 -308 80 -308 275c0 265 216 399 441 399z" />
    <glyph glyph-name="Gcircumflex" unicode="&#x11c;" horiz-adv-x="714" 
d="M559 855l71 -145h-76l-57 86l-93 -86h-86l131 145h110zM503 662c121 0 215 -43 215 -43l-19 -89s-96 42 -207 42c-171 0 -334 -99 -334 -301c0 -138 108 -194 230 -194c72 0 131 17 131 17l46 225h94l-61 -296s-94 -35 -228 -35c-159 0 -308 80 -308 275
c0 265 216 399 441 399z" />
    <glyph glyph-name="Gcommaaccent" unicode="&#x122;" horiz-adv-x="714" 
d="M503 662c121 0 215 -43 215 -43l-19 -89s-96 42 -207 42c-171 0 -334 -99 -334 -301c0 -138 108 -194 230 -194c72 0 131 17 131 17l46 225h94l-61 -296s-94 -35 -228 -35c-159 0 -308 80 -308 275c0 265 216 399 441 399zM405 -55l-98 -165h-71l78 165h91z" />
    <glyph glyph-name="Gdotaccent" unicode="&#x120;" horiz-adv-x="714" 
d="M544 805l-20 -98h-100l20 98h100zM503 662c121 0 215 -43 215 -43l-19 -89s-96 42 -207 42c-171 0 -334 -99 -334 -301c0 -138 108 -194 230 -194c72 0 131 17 131 17l46 225h94l-61 -296s-94 -35 -228 -35c-159 0 -308 80 -308 275c0 265 216 399 441 399z" />
    <glyph glyph-name="Hbar" unicode="&#x126;" horiz-adv-x="715" 
d="M780 567l-15 -76h-76l-102 -491h-94l60 290h-366l-60 -290h-94l102 491h-80l15 76h81l17 83h94l-17 -83h366l17 83h94l-17 -83h75zM572 379l23 112h-366l-23 -112h366z" />
    <glyph glyph-name="Hcircumflex" unicode="&#x124;" horiz-adv-x="719" 
d="M542 855l71 -145h-76l-57 86l-93 -86h-86l131 145h110zM493 0l60 290h-366l-60 -290h-94l135 650h94l-56 -271h366l56 271h94l-135 -650h-94z" />
    <glyph glyph-name="IJ" unicode="&#x132;" horiz-adv-x="706" 
d="M33 0l135 650h94l-135 -650h-94zM712 650l-97 -467c-29 -138 -119 -195 -244 -195c-57 0 -122 16 -156 28l19 88c29 -11 90 -25 152 -25c65 0 121 39 139 126l93 445h94z" />
    <glyph glyph-name="Ibreve" unicode="&#x12c;" horiz-adv-x="259" 
d="M317 827h77c-23 -73 -70 -119 -159 -119s-132 46 -125 119h77c-3 -31 12 -53 54 -53c41 0 65 22 76 53zM33 0l135 650h94l-135 -650h-94z" />
    <glyph glyph-name="Idotaccent" unicode="&#x130;" horiz-adv-x="259" 
d="M297 805l-20 -98h-100l20 98h100zM33 0l135 650h94l-135 -650h-94z" />
    <glyph glyph-name="Imacron" unicode="&#x12a;" horiz-adv-x="259" 
d="M382 793l-16 -77h-274l16 77h274zM33 0l135 650h94l-135 -650h-94z" />
    <glyph glyph-name="Iogonek" unicode="&#x12e;" horiz-adv-x="259" 
d="M127 0h-20c-81 -33 -120 -70 -120 -99c0 -12 7 -18 28 -18c22 0 55 9 83 20l-13 -69c-30 -10 -56 -16 -89 -16c-59 0 -86 26 -86 63c0 67 69 106 124 123l134 646h94z" />
    <glyph glyph-name="Itilde" unicode="&#x128;" horiz-adv-x="259" 
d="M341 834h60c-20 -56 -58 -97 -114 -97c-37 0 -78 27 -109 27c-22 0 -31 -10 -40 -30h-60c20 56 58 97 114 97c42 0 73 -27 108 -27c24 0 34 10 41 30zM33 0l135 650h94l-135 -650h-94z" />
    <glyph glyph-name="Jcircumflex" unicode="&#x134;" horiz-adv-x="447" 
d="M381 855l71 -145h-76l-57 86l-93 -86h-86l131 145h110zM453 650l-97 -467c-29 -138 -119 -195 -244 -195c-57 0 -122 16 -156 28l19 88c29 -11 90 -25 152 -25c65 0 121 39 139 126l93 445h94z" />
    <glyph glyph-name="Kcommaaccent" unicode="&#x136;" horiz-adv-x="610" 
d="M33 0l135 650h94l-135 -650h-94zM211 325c123 128 274 261 354 325h139c-95 -74 -263 -214 -378 -327c82 -88 196 -236 259 -323h-123c-63 94 -174 247 -251 325zM318 -55l-98 -165h-71l78 165h91z" />
    <glyph glyph-name="Lacute" unicode="&#x139;" horiz-adv-x="539" 
d="M402 855l-131 -145h-85l104 145h112zM262 650l-117 -564h360l-18 -86h-454l135 650h94z" />
    <glyph glyph-name="Lcaron" unicode="&#x13d;" horiz-adv-x="539" 
d="M262 650l-117 -564h360l-18 -86h-454l135 650h94zM504 650l-98 -166h-76l78 166h96z" />
    <glyph glyph-name="Lcommaaccent" unicode="&#x13b;" horiz-adv-x="539" 
d="M262 650l-117 -564h360l-18 -86h-454l135 650h94zM316 -55l-98 -165h-71l78 165h91z" />
    <glyph glyph-name="Ldot" unicode="&#x13f;" horiz-adv-x="557" 
d="M232 650l-117 -564h360l-18 -86h-454l135 650h94zM465 442l-21 -97h-100l21 97h100z" />
    <glyph glyph-name="Nacute" unicode="&#x143;" horiz-adv-x="726" 
d="M633 855l-131 -145h-85l104 145h112zM518 0l-282 524l-109 -524h-94l135 650h103l262 -492l102 492h94l-135 -650h-76z" />
    <glyph glyph-name="Ncaron" unicode="&#x147;" horiz-adv-x="726" 
d="M649 855l-131 -145h-110l-71 145h76l57 -86l93 86h86zM518 0l-282 524l-109 -524h-94l135 650h103l262 -492l102 492h94l-135 -650h-76z" />
    <glyph glyph-name="Ncommaaccent" unicode="&#x145;" horiz-adv-x="726" 
d="M518 0l-282 524l-109 -524h-94l135 650h103l262 -492l102 492h94l-135 -650h-76zM373 -55l-98 -165h-71l78 165h91z" />
    <glyph glyph-name="Eng" unicode="&#x14a;" horiz-adv-x="726" 
d="M729 650l-144 -695c-28 -138 -119 -195 -244 -195c-78 0 -156 28 -156 28l19 88s67 -25 152 -25c65 0 121 39 139 126l10 47l-269 500l-109 -524h-94l135 650h103l262 -492l102 492h94z" />
    <glyph glyph-name="Obreve" unicode="&#x14e;" horiz-adv-x="790" 
d="M559 827h77c-23 -73 -70 -119 -159 -119s-132 46 -125 119h77c-3 -31 12 -53 54 -53c41 0 65 22 76 53zM464 662c195 0 299 -114 299 -285c0 -235 -168 -389 -393 -389c-194 0 -308 115 -308 289c0 230 162 385 402 385zM451 574c-165 0 -293 -107 -293 -295
c0 -133 90 -201 224 -201c157 0 285 113 285 293c0 137 -87 203 -216 203z" />
    <glyph glyph-name="Ohungarumlaut" unicode="&#x150;" horiz-adv-x="790" 
d="M563 855l-133 -145h-82l104 145h111zM730 855l-133 -145h-82l104 145h111zM464 662c195 0 299 -114 299 -285c0 -235 -168 -389 -393 -389c-194 0 -308 115 -308 289c0 230 162 385 402 385zM451 574c-165 0 -293 -107 -293 -295c0 -133 90 -201 224 -201
c157 0 285 113 285 293c0 137 -87 203 -216 203z" />
    <glyph glyph-name="Omacron" unicode="&#x14c;" horiz-adv-x="790" 
d="M624 793l-16 -77h-274l16 77h274zM464 662c195 0 299 -114 299 -285c0 -235 -168 -389 -393 -389c-194 0 -308 115 -308 289c0 230 162 385 402 385zM451 574c-165 0 -293 -107 -293 -295c0 -133 90 -201 224 -201c157 0 285 113 285 293c0 137 -87 203 -216 203z" />
    <glyph glyph-name="Oslashacute" unicode="&#x1fe;" horiz-adv-x="790" 
d="M639 855l-131 -145h-85l104 145h112zM776 614l-64 -61c34 -47 51 -107 51 -176c0 -235 -168 -389 -393 -389c-78 0 -143 19 -193 52l-72 -68l-55 55l69 67c-37 48 -57 110 -57 183c0 230 162 385 402 385c80 0 144 -19 193 -53l63 60zM158 279c0 -48 11 -87 32 -118
l396 379c-36 23 -82 34 -135 34c-165 0 -293 -107 -293 -295zM667 371c0 45 -10 83 -27 113l-392 -375c36 -21 82 -31 134 -31c157 0 285 113 285 293z" />
    <glyph glyph-name="Racute" unicode="&#x154;" horiz-adv-x="634" 
d="M553 855l-131 -145h-85l104 145h112zM578 0h-112c-43 79 -91 158 -146 237h-143l-50 -237h-94l135 650h254c91 0 207 -41 207 -186c0 -130 -109 -198 -203 -219c54 -78 104 -159 152 -245zM195 325h154c72 0 184 24 184 138c0 71 -62 99 -122 99h-167z" />
    <glyph glyph-name="Rcaron" unicode="&#x158;" horiz-adv-x="634" 
d="M569 855l-131 -145h-110l-71 145h76l57 -86l93 86h86zM578 0h-112c-43 79 -91 158 -146 237h-143l-50 -237h-94l135 650h254c91 0 207 -41 207 -186c0 -130 -109 -198 -203 -219c54 -78 104 -159 152 -245zM195 325h154c72 0 184 24 184 138c0 71 -62 99 -122 99h-167z
" />
    <glyph glyph-name="Rcommaaccent" unicode="&#x156;" horiz-adv-x="634" 
d="M578 0h-112c-43 79 -91 158 -146 237h-143l-50 -237h-94l135 650h254c91 0 207 -41 207 -186c0 -130 -109 -198 -203 -219c54 -78 104 -159 152 -245zM195 325h154c72 0 184 24 184 138c0 71 -62 99 -122 99h-167zM332 -55l-98 -165h-71l78 165h91z" />
    <glyph glyph-name="Sacute" unicode="&#x15a;" horiz-adv-x="603" 
d="M564 855l-131 -145h-85l104 145h112zM394 662c85 0 172 -18 214 -32l-19 -91c-40 15 -124 36 -205 36c-83 0 -181 -25 -181 -97c0 -136 341 -64 341 -278c0 -128 -117 -212 -298 -212c-95 0 -193 25 -240 43l20 91c48 -19 142 -45 226 -45c110 0 192 43 192 112
c0 143 -339 63 -339 278c0 140 136 195 289 195z" />
    <glyph glyph-name="Scedilla" unicode="&#x15e;" horiz-adv-x="603" 
d="M384 575c-83 0 -181 -25 -181 -97c0 -136 341 -64 341 -278c0 -121 -104 -203 -269 -211l-10 -30c41 -7 60 -31 60 -66c0 -58 -37 -100 -123 -100c-26 0 -52 3 -94 14l13 61c41 -11 58 -13 85 -13c35 0 49 15 49 33c0 15 -14 24 -43 24c-16 0 -27 -1 -39 -3l38 80
c-84 5 -164 26 -205 42l20 91c48 -19 142 -45 226 -45c110 0 192 43 192 112c0 143 -339 63 -339 278c0 140 136 195 289 195c85 0 172 -18 214 -32l-19 -91c-40 15 -124 36 -205 36z" />
    <glyph glyph-name="Scircumflex" unicode="&#x15c;" horiz-adv-x="603" 
d="M479 855l71 -145h-76l-57 86l-93 -86h-86l131 145h110zM394 662c85 0 172 -18 214 -32l-19 -91c-40 15 -124 36 -205 36c-83 0 -181 -25 -181 -97c0 -136 341 -64 341 -278c0 -128 -117 -212 -298 -212c-95 0 -193 25 -240 43l20 91c48 -19 142 -45 226 -45
c110 0 192 43 192 112c0 143 -339 63 -339 278c0 140 136 195 289 195z" />
    <glyph glyph-name="Scommaaccent" unicode="&#x218;" horiz-adv-x="603" 
d="M394 662c85 0 172 -18 214 -32l-19 -91c-40 15 -124 36 -205 36c-83 0 -181 -25 -181 -97c0 -136 341 -64 341 -278c0 -128 -117 -212 -298 -212c-95 0 -193 25 -240 43l20 91c48 -19 142 -45 226 -45c110 0 192 43 192 112c0 143 -339 63 -339 278
c0 140 136 195 289 195zM305 -55l-98 -165h-71l78 165h91z" />
    <glyph glyph-name="Germandbls" unicode="&#x1e9e;" horiz-adv-x="732" 
d="M692 529l-166 -141c114 -27 172 -90 172 -172c0 -109 -77 -228 -280 -228c-71 0 -147 15 -218 43l18 87c49 -19 125 -44 210 -44c135 0 170 79 170 134c0 58 -51 104 -188 114l14 69l150 135c-39 35 -92 51 -151 51c-111 0 -187 -52 -222 -221l-74 -356h-94l75 363
c45 219 147 299 324 299c113 0 214 -53 260 -133z" />
    <glyph glyph-name="Schwa" unicode="&#x18f;" horiz-adv-x="777" 
d="M460 662c183 0 290 -104 290 -262c0 -192 -112 -412 -394 -412c-182 0 -294 102 -294 245c0 27 5 70 10 102l7 41h573c1 8 1 15 1 23c0 103 -77 174 -209 174c-79 0 -145 -12 -249 -44l19 97c88 23 167 36 246 36zM360 78c143 0 243 73 277 212h-476
c-2 -14 -3 -27 -3 -41c0 -113 79 -171 202 -171z" />
    <glyph glyph-name="Tbar" unicode="&#x166;" horiz-adv-x="598" 
d="M655 564h-244l-38 -185h139l-17 -86h-140l-61 -293h-94l61 293h-143l17 86h144l38 185h-244l18 86h582z" />
    <glyph glyph-name="Tcaron" unicode="&#x164;" horiz-adv-x="598" 
d="M567 855l-131 -145h-110l-71 145h76l57 -86l93 86h86zM411 564l-117 -564h-94l117 564h-244l18 86h582l-18 -86h-244z" />
    <glyph glyph-name="Tcedilla" unicode="&#x162;" horiz-adv-x="598" 
d="M411 564l-117 -564h-94l117 564h-244l18 86h582l-18 -86h-244zM281 -55l-98 -165h-71l78 165h91z" />
    <glyph glyph-name="Tcommaaccent" unicode="&#x21a;" horiz-adv-x="598" 
d="M411 564l-117 -564h-94l117 564h-244l18 86h582l-18 -86h-244zM281 -55l-98 -165h-71l78 165h91z" />
    <glyph glyph-name="Ubreve" unicode="&#x16c;" horiz-adv-x="706" 
d="M535 827h77c-23 -73 -70 -119 -159 -119s-132 46 -125 119h77c-3 -31 12 -53 54 -53c41 0 65 22 76 53zM712 650l-75 -366c-36 -174 -128 -296 -333 -296c-175 0 -226 97 -226 205c0 30 4 59 11 91l76 366h94l-78 -373c-4 -19 -10 -40 -10 -71c0 -86 48 -132 144 -132
c109 0 197 70 225 204l78 372h94z" />
    <glyph glyph-name="Uhungarumlaut" unicode="&#x170;" horiz-adv-x="706" 
d="M539 855l-133 -145h-82l104 145h111zM706 855l-133 -145h-82l104 145h111zM712 650l-75 -366c-36 -174 -128 -296 -333 -296c-175 0 -226 97 -226 205c0 30 4 59 11 91l76 366h94l-78 -373c-4 -19 -10 -40 -10 -71c0 -86 48 -132 144 -132c109 0 197 70 225 204l78 372
h94z" />
    <glyph glyph-name="Umacron" unicode="&#x16a;" horiz-adv-x="706" 
d="M600 793l-16 -77h-274l16 77h274zM712 650l-75 -366c-36 -174 -128 -296 -333 -296c-175 0 -226 97 -226 205c0 30 4 59 11 91l76 366h94l-78 -373c-4 -19 -10 -40 -10 -71c0 -86 48 -132 144 -132c109 0 197 70 225 204l78 372h94z" />
    <glyph glyph-name="Uogonek" unicode="&#x172;" horiz-adv-x="706" 
d="M618 650h94l-75 -366c-28 -137 -91 -242 -217 -280c-88 -34 -130 -72 -130 -103c0 -12 7 -18 28 -18c22 0 55 9 83 20l-13 -69c-30 -10 -56 -16 -89 -16c-59 0 -86 26 -86 63c0 51 40 86 84 107c-169 3 -219 99 -219 205c0 30 4 59 11 91l76 366h94l-78 -373
c-4 -19 -10 -40 -10 -71c0 -86 48 -132 144 -132c109 0 197 70 225 204z" />
    <glyph glyph-name="Uring" unicode="&#x16e;" horiz-adv-x="706" 
d="M452 711c-57 0 -91 32 -91 75c0 59 44 97 116 97c57 0 90 -31 90 -74c0 -45 -31 -98 -115 -98zM472 837c-41 0 -61 -23 -61 -46c0 -26 19 -34 46 -34c38 0 60 20 60 47c0 24 -21 33 -45 33zM712 650l-75 -366c-36 -174 -128 -296 -333 -296c-175 0 -226 97 -226 205
c0 30 4 59 11 91l76 366h94l-78 -373c-4 -19 -10 -40 -10 -71c0 -86 48 -132 144 -132c109 0 197 70 225 204l78 372h94z" />
    <glyph glyph-name="Utilde" unicode="&#x168;" horiz-adv-x="706" 
d="M559 834h60c-20 -56 -58 -97 -114 -97c-37 0 -78 27 -109 27c-22 0 -31 -10 -40 -30h-60c20 56 58 97 114 97c42 0 73 -27 108 -27c24 0 34 10 41 30zM712 650l-75 -366c-36 -174 -128 -296 -333 -296c-175 0 -226 97 -226 205c0 30 4 59 11 91l76 366h94l-78 -373
c-4 -19 -10 -40 -10 -71c0 -86 48 -132 144 -132c109 0 197 70 225 204l78 372h94z" />
    <glyph glyph-name="Wacute" unicode="&#x1e82;" horiz-adv-x="861" 
d="M684 855l-131 -145h-85l104 145h112zM831 650h97c-92 -226 -193 -443 -306 -650h-99c-28 128 -50 253 -69 377c-33 -70 -148 -266 -219 -377h-92c-27 214 -38 433 -42 650h92c3 -174 11 -349 24 -523c87 138 160 276 231 415h77c14 -141 35 -282 63 -423
c91 178 172 355 243 531z" />
    <glyph glyph-name="Wcircumflex" unicode="&#x174;" horiz-adv-x="861" 
d="M599 855l71 -145h-76l-57 86l-93 -86h-86l131 145h110zM831 650h97c-92 -226 -193 -443 -306 -650h-99c-28 128 -50 253 -69 377c-33 -70 -148 -266 -219 -377h-92c-27 214 -38 433 -42 650h92c3 -174 11 -349 24 -523c87 138 160 276 231 415h77
c14 -141 35 -282 63 -423c91 178 172 355 243 531z" />
    <glyph glyph-name="Wdieresis" unicode="&#x1e84;" horiz-adv-x="861" 
d="M485 805l-20 -98h-100l20 98h100zM683 805l-20 -98h-100l20 98h100zM831 650h97c-92 -226 -193 -443 -306 -650h-99c-28 128 -50 253 -69 377c-33 -70 -148 -266 -219 -377h-92c-27 214 -38 433 -42 650h92c3 -174 11 -349 24 -523c87 138 160 276 231 415h77
c14 -141 35 -282 63 -423c91 178 172 355 243 531z" />
    <glyph glyph-name="Wgrave" unicode="&#x1e80;" horiz-adv-x="861" 
d="M331 855h112l104 -145h-85zM831 650h97c-92 -226 -193 -443 -306 -650h-99c-28 128 -50 253 -69 377c-33 -70 -148 -266 -219 -377h-92c-27 214 -38 433 -42 650h92c3 -174 11 -349 24 -523c87 138 160 276 231 415h77c14 -141 35 -282 63 -423c91 178 172 355 243 531z
" />
    <glyph glyph-name="Ycircumflex" unicode="&#x176;" horiz-adv-x="541" 
d="M437 855l71 -145h-76l-57 86l-93 -86h-86l131 145h110zM523 650h113c-99 -146 -201 -293 -320 -439l-41 -211h-95l45 221c-64 143 -118 286 -167 429h99c37 -116 79 -232 129 -347c86 114 165 231 237 347z" />
    <glyph glyph-name="Ygrave" unicode="&#x1ef2;" horiz-adv-x="541" 
d="M169 855h112l104 -145h-85zM523 650h113c-99 -146 -201 -293 -320 -439l-41 -211h-95l45 221c-64 143 -118 286 -167 429h99c37 -116 79 -232 129 -347c86 114 165 231 237 347z" />
    <glyph glyph-name="Zacute" unicode="&#x179;" horiz-adv-x="598" 
d="M555 855l-131 -145h-85l104 145h112zM148 86h375l-18 -86h-517l18 65l481 499h-377l17 86h521l-18 -65z" />
    <glyph glyph-name="Zdotaccent" unicode="&#x17b;" horiz-adv-x="598" 
d="M455 805l-20 -98h-100l20 98h100zM148 86h375l-18 -86h-517l18 65l481 499h-377l17 86h521l-18 -65z" />
    <glyph glyph-name="schwa" unicode="&#x259;" horiz-adv-x="580" 
d="M356 523c133 0 214 -62 214 -187c0 -22 -2 -47 -8 -74c-41 -197 -172 -274 -314 -274c-123 0 -192 65 -192 178c0 21 3 44 8 69l11 52h398l1 6c2 12 3 23 3 34c0 74 -54 112 -144 112c-71 0 -126 -11 -232 -44l19 90c51 16 153 38 236 38zM264 72c82 0 145 30 190 138
h-304c0 -6 -1 -12 -1 -18c0 -74 35 -120 115 -120z" />
    <glyph glyph-name="abreve" unicode="&#x103;" horiz-adv-x="633" 
d="M474 712h77c-23 -73 -70 -119 -159 -119s-132 46 -125 119h77c-3 -31 12 -53 54 -53c41 0 65 22 76 53zM511 0h-61l-7 40c-43 -33 -105 -52 -168 -52c-113 0 -227 61 -227 212c0 214 172 324 315 324c76 0 139 -27 165 -47l27 36h62zM139 200c0 -96 70 -135 147 -135
c58 0 120 22 161 58l57 277c-20 18 -72 41 -140 41c-112 0 -225 -82 -225 -241z" />
    <glyph glyph-name="amacron" unicode="&#x101;" horiz-adv-x="633" 
d="M530 692l-16 -77h-274l16 77h274zM511 0h-61l-7 40c-43 -33 -105 -52 -168 -52c-113 0 -227 61 -227 212c0 214 172 324 315 324c76 0 139 -27 165 -47l27 36h62zM139 200c0 -96 70 -135 147 -135c58 0 120 22 161 58l57 277c-20 18 -72 41 -140 41
c-112 0 -225 -82 -225 -241z" />
    <glyph glyph-name="aogonek" unicode="&#x105;" horiz-adv-x="633" 
d="M403 -99c0 -12 7 -18 28 -18c22 0 55 9 83 20l-13 -69c-30 -10 -56 -16 -89 -16c-59 0 -86 26 -86 63c0 67 66 106 123 123l-6 36c-43 -33 -105 -52 -168 -52c-113 0 -227 61 -227 212c0 214 172 324 315 324c76 0 139 -27 165 -47l27 36h62l-106 -513
c-95 -46 -108 -78 -108 -99zM286 65c58 0 120 22 161 58l57 277c-20 18 -72 41 -140 41c-112 0 -225 -82 -225 -241c0 -96 70 -135 147 -135z" />
    <glyph glyph-name="aringacute" unicode="&#x1fb;" horiz-adv-x="633" 
d="M594 934l-131 -145h-83l104 145h110zM382 580c-57 0 -91 32 -91 75c0 59 44 97 116 97c57 0 90 -31 90 -74c0 -45 -31 -98 -115 -98zM402 706c-41 0 -61 -23 -61 -46c0 -26 19 -34 46 -34c38 0 60 20 60 47c0 24 -21 33 -45 33zM511 0h-61l-7 40
c-43 -33 -105 -52 -168 -52c-113 0 -227 61 -227 212c0 214 172 324 315 324c76 0 139 -27 165 -47l27 36h62zM139 200c0 -96 70 -135 147 -135c58 0 120 22 161 58l57 277c-20 18 -72 41 -140 41c-112 0 -225 -82 -225 -241z" />
    <glyph glyph-name="aeacute" unicode="&#x1fd;" horiz-adv-x="977" 
d="M628 591h-83l104 145h110zM549 224l-2 -28c0 -109 109 -124 170 -124c105 0 200 38 200 38l-19 -87s-82 -35 -203 -35c-71 0 -156 20 -201 88c-104 -68 -188 -88 -267 -88c-108 0 -173 55 -173 144c0 109 85 194 254 194c57 0 120 -17 162 -41l7 32c3 12 4 26 4 36
c0 72 -64 87 -141 87c-66 0 -120 -11 -199 -35l19 89c74 21 143 30 207 30c104 0 169 -24 192 -86c59 59 139 86 218 86c127 0 192 -66 192 -179c0 -27 -2 -43 -17 -121h-403zM767 442c-82 0 -170 -40 -200 -140h308c1 7 3 15 3 32c0 69 -33 108 -111 108zM259 70
c86 0 164 42 200 65c-2 14 -4 29 -4 46c0 10 1 22 2 33c-46 25 -109 37 -153 37c-111 0 -152 -53 -152 -112c0 -53 53 -69 107 -69z" />
    <glyph glyph-name="cacute" unicode="&#x107;" horiz-adv-x="540" 
d="M558 736l-131 -145h-83l104 145h110zM386 524c74 0 144 -19 175 -34l-17 -81c-34 15 -102 34 -166 34c-131 0 -238 -89 -238 -229c0 -92 66 -142 165 -142c74 0 152 23 190 40l-18 -88c-34 -15 -108 -36 -185 -36c-135 0 -244 78 -244 223c0 207 167 313 338 313z" />
    <glyph glyph-name="ccaron" unicode="&#x10d;" horiz-adv-x="540" 
d="M572 736l-131 -145h-110l-71 145h76l57 -86l93 86h86zM386 524c74 0 144 -19 175 -34l-17 -81c-34 15 -102 34 -166 34c-131 0 -238 -89 -238 -229c0 -92 66 -142 165 -142c74 0 152 23 190 40l-18 -88c-34 -15 -108 -36 -185 -36c-135 0 -244 78 -244 223
c0 207 167 313 338 313z" />
    <glyph glyph-name="ccircumflex" unicode="&#x109;" horiz-adv-x="540" 
d="M466 591l-57 86l-93 -86h-86l131 145h110l71 -145h-76zM386 524c74 0 144 -19 175 -34l-17 -81c-34 15 -102 34 -166 34c-131 0 -238 -89 -238 -229c0 -92 66 -142 165 -142c74 0 152 23 190 40l-18 -88c-34 -15 -108 -36 -185 -36c-135 0 -244 78 -244 223
c0 207 167 313 338 313z" />
    <glyph glyph-name="cdotaccent" unicode="&#x10b;" horiz-adv-x="540" 
d="M455 684l-20 -96h-98l20 96h98zM386 524c74 0 144 -19 175 -34l-17 -81c-34 15 -102 34 -166 34c-131 0 -238 -89 -238 -229c0 -92 66 -142 165 -142c74 0 152 23 190 40l-18 -88c-34 -15 -108 -36 -185 -36c-135 0 -244 78 -244 223c0 207 167 313 338 313z" />
    <glyph glyph-name="dcaron" unicode="&#x10f;" horiz-adv-x="777" 
d="M511 0h-61l-7 40c-43 -33 -105 -52 -168 -52c-113 0 -227 61 -227 212c0 214 172 324 315 324c71 0 131 -24 157 -42l45 209h90zM856 691l-98 -166h-76l78 166h96zM139 200c0 -96 70 -135 147 -135c58 0 120 22 161 58l57 277c-20 18 -72 41 -140 41
c-112 0 -225 -82 -225 -241z" />
    <glyph glyph-name="dcroat" unicode="&#x111;" horiz-adv-x="642" 
d="M754 642l-16 -77h-109l-118 -565h-61l-7 40c-43 -33 -105 -52 -168 -52c-113 0 -227 61 -227 212c0 214 172 324 315 324c71 0 131 -24 157 -42l18 83h-142l16 77h142l11 49h90l-10 -49h109zM447 123l57 277c-20 18 -72 41 -140 41c-112 0 -225 -82 -225 -241
c0 -96 70 -135 147 -135c58 0 120 22 161 58z" />
    <glyph glyph-name="ebreve" unicode="&#x115;" horiz-adv-x="584" 
d="M453 712h77c-23 -73 -70 -119 -159 -119s-132 46 -125 119h77c-3 -31 12 -53 54 -53c41 0 65 22 76 53zM139 224l-2 -28c0 -109 109 -124 170 -124c77 0 159 22 200 38l-19 -87c-35 -15 -115 -35 -203 -35c-123 0 -237 62 -237 207c0 233 169 329 319 329
c127 0 192 -66 192 -179c0 -27 -2 -43 -17 -121h-403zM157 302h308c1 7 3 15 3 32c0 69 -33 108 -111 108c-82 0 -170 -40 -200 -140z" />
    <glyph glyph-name="ecaron" unicode="&#x11b;" horiz-adv-x="584" 
d="M546 736l-131 -145h-110l-71 145h76l57 -86l93 86h86zM139 224l-2 -28c0 -109 109 -124 170 -124c77 0 159 22 200 38l-19 -87c-35 -15 -115 -35 -203 -35c-123 0 -237 62 -237 207c0 233 169 329 319 329c127 0 192 -66 192 -179c0 -27 -2 -43 -17 -121h-403zM157 302
h308c1 7 3 15 3 32c0 69 -33 108 -111 108c-82 0 -170 -40 -200 -140z" />
    <glyph glyph-name="edotaccent" unicode="&#x117;" horiz-adv-x="584" 
d="M429 684l-20 -96h-98l20 96h98zM139 224l-2 -28c0 -109 109 -124 170 -124c77 0 159 22 200 38l-19 -87c-35 -15 -115 -35 -203 -35c-123 0 -237 62 -237 207c0 233 169 329 319 329c127 0 192 -66 192 -179c0 -27 -2 -43 -17 -121h-403zM157 302h308c1 7 3 15 3 32
c0 69 -33 108 -111 108c-82 0 -170 -40 -200 -140z" />
    <glyph glyph-name="emacron" unicode="&#x113;" horiz-adv-x="584" 
d="M509 692l-16 -77h-274l16 77h274zM139 224l-2 -28c0 -109 109 -124 170 -124c77 0 159 22 200 38l-19 -87c-35 -15 -115 -35 -203 -35c-123 0 -237 62 -237 207c0 233 169 329 319 329c127 0 192 -66 192 -179c0 -27 -2 -43 -17 -121h-403zM157 302h308c1 7 3 15 3 32
c0 69 -33 108 -111 108c-82 0 -170 -40 -200 -140z" />
    <glyph glyph-name="eogonek" unicode="&#x119;" horiz-adv-x="584" 
d="M542 224h-403l-2 -28c0 -109 109 -124 170 -124c77 0 159 22 200 38l-19 -87c-14 -6 -35 -13 -61 -19c-89 -34 -131 -72 -131 -103c0 -12 7 -18 28 -18c22 0 55 9 83 20l-13 -69c-30 -10 -56 -16 -89 -16c-59 0 -86 26 -86 63c0 51 40 86 84 107h-18
c-123 0 -237 62 -237 207c0 233 169 329 319 329c127 0 192 -66 192 -179c0 -27 -2 -43 -17 -121zM357 442c-82 0 -170 -40 -200 -140h308c1 7 3 15 3 32c0 69 -33 108 -111 108z" />
    <glyph glyph-name="gbreve" unicode="&#x11f;" horiz-adv-x="630" 
d="M482 712h77c-23 -73 -70 -119 -159 -119s-132 46 -125 119h77c-3 -31 12 -53 54 -53c41 0 65 22 76 53zM617 513l-108 -521c-30 -145 -151 -204 -305 -204c-85 0 -164 27 -201 47l18 88c42 -23 124 -53 196 -53c78 0 183 33 208 140l4 20c-42 -27 -98 -42 -154 -42
c-113 0 -227 61 -227 212c0 214 172 324 315 324c76 0 139 -27 165 -47l27 36h62zM139 200c0 -96 70 -135 147 -135c58 0 120 22 161 58l57 277c-20 18 -72 41 -140 41c-112 0 -225 -82 -225 -241z" />
    <glyph glyph-name="gcircumflex" unicode="&#x11d;" horiz-adv-x="630" 
d="M469 591l-57 86l-93 -86h-86l131 145h110l71 -145h-76zM617 513l-108 -521c-30 -145 -151 -204 -305 -204c-85 0 -164 27 -201 47l18 88c42 -23 124 -53 196 -53c78 0 183 33 208 140l4 20c-42 -27 -98 -42 -154 -42c-113 0 -227 61 -227 212c0 214 172 324 315 324
c76 0 139 -27 165 -47l27 36h62zM139 200c0 -96 70 -135 147 -135c58 0 120 22 161 58l57 277c-20 18 -72 41 -140 41c-112 0 -225 -82 -225 -241z" />
    <glyph glyph-name="gcommaaccent" unicode="&#x123;" horiz-adv-x="630" 
d="M335 594l98 165h71l-78 -165h-91zM617 513l-108 -521c-30 -145 -151 -204 -305 -204c-85 0 -164 27 -201 47l18 88c42 -23 124 -53 196 -53c78 0 183 33 208 140l4 20c-42 -27 -98 -42 -154 -42c-113 0 -227 61 -227 212c0 214 172 324 315 324c76 0 139 -27 165 -47
l27 36h62zM139 200c0 -96 70 -135 147 -135c58 0 120 22 161 58l57 277c-20 18 -72 41 -140 41c-112 0 -225 -82 -225 -241z" />
    <glyph glyph-name="gdotaccent" unicode="&#x121;" horiz-adv-x="630" 
d="M458 684l-20 -96h-98l20 96h98zM617 513l-108 -521c-30 -145 -151 -204 -305 -204c-85 0 -164 27 -201 47l18 88c42 -23 124 -53 196 -53c78 0 183 33 208 140l4 20c-42 -27 -98 -42 -154 -42c-113 0 -227 61 -227 212c0 214 172 324 315 324c76 0 139 -27 165 -47l27 36
h62zM139 200c0 -96 70 -135 147 -135c58 0 120 22 161 58l57 277c-20 18 -72 41 -140 41c-112 0 -225 -82 -225 -241z" />
    <glyph glyph-name="hbar" unicode="&#x127;" horiz-adv-x="645" 
d="M416 524c100 0 167 -33 167 -133c0 -22 -4 -44 -8 -65l-67 -326h-90l65 315c4 17 8 38 8 53c0 46 -28 75 -97 75c-76 0 -155 -37 -193 -65l-78 -378h-90l117 565h-110l16 77h110l10 49h90l-10 -49h142l-16 -77h-142l-20 -97c39 24 119 56 196 56z" />
    <glyph glyph-name="hcircumflex" unicode="&#x125;" horiz-adv-x="630" 
d="M423 731l-57 86l-93 -86h-86l131 145h110l71 -145h-76zM33 0l143 691h90l-46 -223c39 24 119 56 196 56c100 0 167 -33 167 -133c0 -22 -4 -44 -8 -65l-67 -326h-90l65 315c4 17 8 38 8 53c0 46 -28 75 -97 75c-76 0 -155 -37 -193 -65l-78 -378h-90z" />
    <glyph glyph-name="ibreve" unicode="&#x12d;" horiz-adv-x="245" 
d="M293 712h77c-23 -73 -70 -119 -159 -119s-132 46 -125 119h77c-3 -31 12 -53 54 -53c41 0 65 22 76 53zM123 0h-90l106 513h90z" />
    <glyph glyph-name="ij" unicode="&#x133;" horiz-adv-x="490" 
d="M154 601l19 90h98l-19 -90h-98zM399 598l19 90h98l-19 -90h-98zM33 0l107 513h89l-106 -513h-90zM475 513l-111 -537c-26 -127 -70 -188 -198 -188c-48 0 -93 11 -114 20l20 79c18 -7 58 -16 100 -16c75 0 92 62 101 104l113 538h89z" />
    <glyph glyph-name="imacron" unicode="&#x12b;" horiz-adv-x="245" 
d="M333 615h-274l16 77h274zM123 0h-90l106 513h90z" />
    <glyph glyph-name="iogonek" unicode="&#x12f;" horiz-adv-x="245" 
d="M173 691h98l-19 -90h-98zM34 4l106 509h89l-106 -513h-16c-81 -33 -120 -70 -120 -99c0 -12 7 -18 28 -18c22 0 55 9 83 20l-13 -69c-30 -10 -56 -16 -89 -16c-59 0 -86 26 -86 63c0 67 69 106 124 123z" />
    <glyph glyph-name="itilde" unicode="&#x129;" horiz-adv-x="245" 
d="M317 714h60c-20 -56 -58 -97 -114 -97c-37 0 -78 27 -109 27c-22 0 -31 -10 -40 -30h-60c20 56 58 97 114 97c42 0 73 -27 108 -27c24 0 34 10 41 30zM123 0h-90l106 513h90z" />
    <glyph glyph-name="dotlessj" unicode="&#x237;" horiz-adv-x="246" 
d="M230 513l-111 -537c-26 -127 -70 -188 -198 -188c-48 0 -93 11 -114 20l20 79c18 -7 58 -16 100 -16c75 0 92 62 101 104l113 538h89z" />
    <glyph glyph-name="jcircumflex" unicode="&#x135;" horiz-adv-x="246" 
d="M225 677l-93 -86h-86l131 145h110l71 -145h-76zM230 513l-111 -537c-26 -127 -70 -188 -198 -188c-48 0 -93 11 -114 20l20 79c18 -7 58 -16 100 -16c75 0 92 62 101 104l113 538h89z" />
    <glyph glyph-name="kcommaaccent" unicode="&#x137;" horiz-adv-x="540" 
d="M33 0l143 691h90l-143 -691h-90zM461 513h128c-63 -48 -182 -147 -281 -241c63 -74 151 -198 200 -272h-112c-38 64 -118 182 -200 272c121 123 222 210 265 241zM300 -55l-98 -165h-71l78 165h91z" />
    <glyph glyph-name="kgreenlandic" unicode="&#x138;" horiz-adv-x="540" 
d="M138 513h90l-105 -513h-90zM461 513h128c-63 -48 -182 -147 -281 -241c63 -74 151 -198 200 -272h-112c-38 64 -118 182 -200 272c121 123 222 210 265 241z" />
    <glyph glyph-name="lacute" unicode="&#x13a;" horiz-adv-x="244" 
d="M400 876l-131 -145h-83l104 145h110zM33 0l143 691h90l-143 -691h-90z" />
    <glyph glyph-name="lcaron" unicode="&#x13e;" horiz-adv-x="359" 
d="M3 0l143 691h90l-143 -691h-90zM438 691l-98 -166h-76l78 166h96z" />
    <glyph glyph-name="lcommaaccent" unicode="&#x13c;" horiz-adv-x="244" 
d="M33 0l143 691h90l-143 -691h-90zM111 -55l-98 -165h-71l78 165h91z" />
    <glyph glyph-name="ldot" unicode="&#x140;" horiz-adv-x="335" 
d="M3 0l143 691h90l-143 -691h-90zM387 529l-20 -97h-100l20 97h100z" />
    <glyph glyph-name="nacute" unicode="&#x144;" horiz-adv-x="612" 
d="M554 736l-131 -145h-83l104 145h110zM410 524c100 0 167 -33 167 -133c0 -22 -4 -44 -8 -65l-67 -326h-90l65 315c4 17 8 38 8 53c0 46 -28 75 -97 75c-77 0 -155 -37 -192 -65l-79 -378h-90l106 513h61l10 -51c40 27 124 62 206 62z" />
    <glyph glyph-name="napostrophe" unicode="&#x149;" horiz-adv-x="675" 
d="M169 691l-98 -166h-71l78 166h91zM410 524c100 0 167 -33 167 -133c0 -22 -4 -44 -8 -65l-67 -326h-90l65 315c4 17 8 38 8 53c0 46 -28 75 -97 75c-77 0 -155 -37 -192 -65l-79 -378h-90l106 513h61l10 -51c40 27 124 62 206 62z" />
    <glyph glyph-name="ncaron" unicode="&#x148;" horiz-adv-x="612" 
d="M437 591h-110l-71 145h76l57 -86l93 86h86zM410 524c100 0 167 -33 167 -133c0 -22 -4 -44 -8 -65l-67 -326h-90l65 315c4 17 8 38 8 53c0 46 -28 75 -97 75c-77 0 -155 -37 -192 -65l-79 -378h-90l106 513h61l10 -51c40 27 124 62 206 62z" />
    <glyph glyph-name="ncommaaccent" unicode="&#x146;" horiz-adv-x="612" 
d="M410 524c100 0 167 -33 167 -133c0 -22 -4 -44 -8 -65l-67 -326h-90l65 315c4 17 8 38 8 53c0 46 -28 75 -97 75c-77 0 -155 -37 -192 -65l-79 -378h-90l106 513h61l10 -51c40 27 124 62 206 62zM146 -220l78 165h91l-98 -165h-71z" />
    <glyph glyph-name="eng" unicode="&#x14b;" horiz-adv-x="630" 
d="M583 391c0 -22 -4 -44 -8 -65l-71 -350c-25 -127 -70 -188 -198 -188c-66 0 -114 20 -114 20l20 79s43 -16 100 -16c75 0 93 63 101 104l70 340c4 17 8 38 8 53c0 46 -28 75 -97 75c-106 0 -192 -65 -192 -65l-79 -378h-90l106 513h61l10 -51s94 62 206 62
c100 0 167 -33 167 -133z" />
    <glyph glyph-name="obreve" unicode="&#x14f;" horiz-adv-x="633" 
d="M473 712h77c-23 -73 -70 -119 -159 -119s-132 46 -125 119h77c-3 -31 12 -53 54 -53c41 0 65 22 76 53zM380 524h1c125 0 222 -78 222 -212c0 -208 -159 -319 -333 -324c-125 0 -222 78 -222 212c0 211 159 324 332 324zM289 71c117 0 223 89 223 232
c0 73 -45 138 -151 138c-117 0 -222 -89 -222 -232c0 -73 45 -138 150 -138z" />
    <glyph glyph-name="ohungarumlaut" unicode="&#x151;" horiz-adv-x="633" 
d="M483 736l-133 -145h-82l104 145h111zM650 736l-133 -145h-82l104 145h111zM380 524h1c125 0 222 -78 222 -212c0 -208 -159 -319 -333 -324c-125 0 -222 78 -222 212c0 211 159 324 332 324zM289 71c117 0 223 89 223 232c0 73 -45 138 -151 138
c-117 0 -222 -89 -222 -232c0 -73 45 -138 150 -138z" />
    <glyph glyph-name="omacron" unicode="&#x14d;" horiz-adv-x="633" 
d="M529 692l-16 -77h-274l16 77h274zM380 524h1c125 0 222 -78 222 -212c0 -208 -159 -319 -333 -324c-125 0 -222 78 -222 212c0 211 159 324 332 324zM289 71c117 0 223 89 223 232c0 73 -45 138 -151 138c-117 0 -222 -89 -222 -232c0 -73 45 -138 150 -138z" />
    <glyph glyph-name="oslashacute" unicode="&#x1ff;" horiz-adv-x="640" 
d="M550 736l-131 -145h-83l104 145h110zM613 482l-47 -45c24 -33 37 -75 37 -125c0 -208 -159 -319 -333 -324c-51 0 -97 13 -134 37l-54 -51l-56 54l55 53c-21 32 -33 72 -33 119c0 211 159 324 332 324h1c48 0 92 -12 128 -33l47 45zM139 209c0 -22 4 -42 12 -61l289 277
c-21 10 -47 16 -79 16c-117 0 -222 -89 -222 -232zM512 303c0 24 -5 47 -15 68l-293 -281c22 -12 50 -19 85 -19c117 0 223 89 223 232z" />
    <glyph glyph-name="racute" unicode="&#x155;" horiz-adv-x="408" 
d="M482 736l-131 -145h-83l104 145h110zM446 524l-19 -91c-97 0 -189 -29 -226 -54l-78 -379h-90l107 513h60l10 -51c54 34 148 62 236 62z" />
    <glyph glyph-name="rcaron" unicode="&#x159;" horiz-adv-x="408" 
d="M496 736l-131 -145h-110l-71 145h76l57 -86l93 86h86zM446 524l-19 -91c-97 0 -189 -29 -226 -54l-78 -379h-90l107 513h60l10 -51c54 34 148 62 236 62z" />
    <glyph glyph-name="rcommaaccent" unicode="&#x157;" horiz-adv-x="408" 
d="M446 524l-19 -91c-97 0 -189 -29 -226 -54l-78 -379h-90l107 513h60l10 -51c54 34 148 62 236 62zM111 -55l-98 -165h-71l78 165h91z" />
    <glyph glyph-name="sacute" unicode="&#x15b;" horiz-adv-x="522" 
d="M503 736l-131 -145h-83l104 145h110zM506 499l-16 -79c-32 11 -99 25 -168 25c-59 0 -146 -14 -146 -69c0 -107 299 -26 299 -214c0 -120 -117 -174 -260 -174c-82 0 -165 23 -205 40l17 80c43 -17 124 -39 193 -39c67 0 162 19 162 83c0 117 -301 31 -301 215
c0 127 142 157 250 157c77 0 145 -14 175 -25z" />
    <glyph glyph-name="scedilla" unicode="&#x15f;" horiz-adv-x="522" 
d="M322 445c-59 0 -146 -14 -146 -69c0 -107 299 -26 299 -214c0 -105 -90 -160 -208 -171l-11 -32c41 -7 60 -31 60 -66c0 -58 -37 -100 -123 -100c-26 0 -52 3 -94 14l13 61c41 -11 58 -13 85 -13c35 0 49 15 49 33c0 15 -14 24 -43 24c-16 0 -27 -1 -39 -3l37 79
c-77 3 -153 24 -191 40l17 80c43 -17 124 -39 193 -39c67 0 162 19 162 83c0 117 -301 31 -301 215c0 127 142 157 250 157c77 0 145 -14 175 -25l-16 -79c-32 11 -99 25 -168 25z" />
    <glyph glyph-name="scircumflex" unicode="&#x15d;" horiz-adv-x="522" 
d="M411 591l-57 86l-93 -86h-86l131 145h110l71 -145h-76zM506 499l-16 -79c-32 11 -99 25 -168 25c-59 0 -146 -14 -146 -69c0 -107 299 -26 299 -214c0 -120 -117 -174 -260 -174c-82 0 -165 23 -205 40l17 80c43 -17 124 -39 193 -39c67 0 162 19 162 83
c0 117 -301 31 -301 215c0 127 142 157 250 157c77 0 145 -14 175 -25z" />
    <glyph glyph-name="scommaaccent" unicode="&#x219;" horiz-adv-x="522" 
d="M506 499l-16 -79c-32 11 -99 25 -168 25c-59 0 -146 -14 -146 -69c0 -107 299 -26 299 -214c0 -120 -117 -174 -260 -174c-82 0 -165 23 -205 40l17 80c43 -17 124 -39 193 -39c67 0 162 19 162 83c0 117 -301 31 -301 215c0 127 142 157 250 157c77 0 145 -14 175 -25z
M296 -55l-98 -165h-71l78 165h91z" />
    <glyph glyph-name="longs" unicode="&#x17f;" horiz-adv-x="333" 
d="M360 711c32 0 68 -8 86 -14l-17 -77c-15 5 -47 12 -80 12c-49 0 -77 -16 -89 -75l-114 -557h-89l89 437h-93l15 76h94l11 50c26 121 94 148 187 148z" />
    <glyph glyph-name="tbar" unicode="&#x167;" horiz-adv-x="399" 
d="M400 437h-166l-16 -74h174l-16 -77h-174l-30 -144c-9 -44 -6 -74 57 -74c34 0 73 7 94 13l-15 -82c-22 -5 -64 -11 -98 -11c-63 0 -132 26 -132 113c0 11 1 21 4 37l32 148h-97l16 77h97l16 74h-104l16 76h106l39 112h71l-23 -112h165z" />
    <glyph glyph-name="tcaron" unicode="&#x165;" horiz-adv-x="378" 
d="M526 721l-98 -166h-76l78 166h96zM416 513l-16 -76h-166l-62 -295c-9 -44 -6 -74 57 -74c34 0 73 7 94 13l-15 -82c-22 -5 -64 -11 -98 -11c-63 0 -132 26 -132 113c0 11 1 21 4 37l64 299h-104l16 76h106l39 112h71l-23 -112h165z" />
    <glyph glyph-name="tcedilla" unicode="&#x163;" horiz-adv-x="378" 
d="M416 513l-16 -76h-166l-62 -295c-9 -44 -6 -74 57 -74c34 0 73 7 94 13l-15 -82c-22 -5 -64 -11 -98 -11c-63 0 -132 26 -132 113c0 11 1 21 4 37l64 299h-104l16 76h106l39 112h71l-23 -112h165zM238 -55l-98 -165h-71l78 165h91z" />
    <glyph glyph-name="tcommaaccent" unicode="&#x21b;" horiz-adv-x="378" 
d="M416 513l-16 -76h-166l-62 -295c-9 -44 -6 -74 57 -74c34 0 73 7 94 13l-15 -82c-22 -5 -64 -11 -98 -11c-63 0 -132 26 -132 113c0 11 1 21 4 37l64 299h-104l16 76h106l39 112h71l-23 -112h165zM238 -55l-98 -165h-71l78 165h91z" />
    <glyph glyph-name="ubreve" unicode="&#x16d;" horiz-adv-x="621" 
d="M466 712h77c-23 -73 -70 -119 -159 -119s-132 46 -125 119h77c-3 -31 12 -53 54 -53c41 0 65 22 76 53zM220 513l-65 -316c-4 -17 -7 -34 -7 -49c0 -49 28 -79 106 -79c77 0 150 37 183 65l78 379h90l-107 -513h-59l-9 51c-32 -27 -107 -63 -196 -63
c-101 0 -176 46 -176 141c0 21 2 37 6 58l66 326h90z" />
    <glyph glyph-name="uhungarumlaut" unicode="&#x171;" horiz-adv-x="621" 
d="M476 736l-133 -145h-82l104 145h111zM643 736l-133 -145h-82l104 145h111zM220 513l-65 -316c-4 -17 -7 -34 -7 -49c0 -49 28 -79 106 -79c77 0 150 37 183 65l78 379h90l-107 -513h-59l-9 51c-32 -27 -107 -63 -196 -63c-101 0 -176 46 -176 141c0 21 2 37 6 58l66 326
h90z" />
    <glyph glyph-name="umacron" unicode="&#x16b;" horiz-adv-x="621" 
d="M522 692l-16 -77h-274l16 77h274zM220 513l-65 -316c-4 -17 -7 -34 -7 -49c0 -49 28 -79 106 -79c77 0 150 37 183 65l78 379h90l-107 -513h-59l-9 51c-32 -27 -107 -63 -196 -63c-101 0 -176 46 -176 141c0 21 2 37 6 58l66 326h90z" />
    <glyph glyph-name="uogonek" unicode="&#x173;" horiz-adv-x="621" 
d="M392 -99c0 -12 7 -18 28 -18c22 0 55 9 83 20l-13 -69c-30 -10 -56 -16 -89 -16c-59 0 -86 26 -86 63c0 67 68 106 123 123l-8 47c-32 -27 -107 -63 -196 -63c-101 0 -176 46 -176 141c0 21 2 37 6 58l66 326h90l-65 -316c-4 -17 -7 -34 -7 -49c0 -49 28 -79 106 -79
c77 0 150 37 183 65l78 379h90l-107 -513c-83 -39 -106 -68 -106 -99z" />
    <glyph glyph-name="uring" unicode="&#x16f;" horiz-adv-x="621" 
d="M374 580c-57 0 -91 32 -91 75c0 59 44 97 116 97c57 0 90 -31 90 -74c0 -45 -31 -98 -115 -98zM394 706c-41 0 -61 -23 -61 -46c0 -26 19 -34 46 -34c38 0 60 20 60 47c0 24 -21 33 -45 33zM220 513l-65 -316c-4 -17 -7 -34 -7 -49c0 -49 28 -79 106 -79
c77 0 150 37 183 65l78 379h90l-107 -513h-59l-9 51c-32 -27 -107 -63 -196 -63c-101 0 -176 46 -176 141c0 21 2 37 6 58l66 326h90z" />
    <glyph glyph-name="utilde" unicode="&#x169;" horiz-adv-x="621" 
d="M490 714h60c-20 -56 -58 -97 -114 -97c-37 0 -78 27 -109 27c-22 0 -31 -10 -40 -30h-60c20 56 58 97 114 97c42 0 73 -27 108 -27c24 0 34 10 41 30zM220 513l-65 -316c-4 -17 -7 -34 -7 -49c0 -49 28 -79 106 -79c77 0 150 37 183 65l78 379h90l-107 -513h-59l-9 51
c-32 -27 -107 -63 -196 -63c-101 0 -176 46 -176 141c0 21 2 37 6 58l66 326h90z" />
    <glyph glyph-name="wacute" unicode="&#x1e83;" horiz-adv-x="851" 
d="M656 736l-131 -145h-83l104 145h110zM792 513h89c-46 -114 -152 -333 -277 -513h-95c-29 128 -54 270 -65 367c-52 -101 -130 -247 -209 -367h-86c-61 237 -75 448 -78 513h84c7 -97 27 -273 54 -401c103 155 216 389 221 401h84c0 -12 25 -263 57 -415
c88 139 178 319 221 415z" />
    <glyph glyph-name="wcircumflex" unicode="&#x175;" horiz-adv-x="851" 
d="M564 591l-57 86l-93 -86h-86l131 145h110l71 -145h-76zM792 513h89c-46 -114 -152 -333 -277 -513h-95c-29 128 -54 270 -65 367c-52 -101 -130 -247 -209 -367h-86c-61 237 -75 448 -78 513h84c7 -97 27 -273 54 -401c103 155 216 389 221 401h84c0 -12 25 -263 57 -415
c88 139 178 319 221 415z" />
    <glyph glyph-name="wdieresis" unicode="&#x1e85;" horiz-adv-x="851" 
d="M454 684l-20 -96h-98l20 96h98zM652 684l-20 -96h-98l20 96h98zM792 513h89c-46 -114 -152 -333 -277 -513h-95c-29 128 -54 270 -65 367c-52 -101 -130 -247 -209 -367h-86c-61 237 -75 448 -78 513h84c7 -97 27 -273 54 -401c103 155 216 389 221 401h84
c0 -12 25 -263 57 -415c88 139 178 319 221 415z" />
    <glyph glyph-name="wgrave" unicode="&#x1e81;" horiz-adv-x="851" 
d="M309 736h110l104 -145h-83zM792 513h89c-46 -114 -152 -333 -277 -513h-95c-29 128 -54 270 -65 367c-52 -101 -130 -247 -209 -367h-86c-61 237 -75 448 -78 513h84c7 -97 27 -273 54 -401c103 155 216 389 221 401h84c0 -12 25 -263 57 -415c88 139 178 319 221 415z
" />
    <glyph glyph-name="ycircumflex" unicode="&#x177;" horiz-adv-x="532" 
d="M411 591l-57 86l-93 -86h-86l131 145h110l71 -145h-76zM486 513h99c-65 -121 -195 -344 -311 -513c-96 -140 -180 -212 -285 -212c-31 0 -60 5 -73 9l21 88c12 -4 37 -10 60 -10c76 0 128 58 181 140c-62 183 -104 391 -118 498h90c16 -110 52 -298 91 -413
c91 134 193 314 245 413z" />
    <glyph glyph-name="ygrave" unicode="&#x1ef3;" horiz-adv-x="532" 
d="M156 736h110l104 -145h-83zM486 513h99c-65 -121 -195 -344 -311 -513c-96 -140 -180 -212 -285 -212c-31 0 -60 5 -73 9l21 88c12 -4 37 -10 60 -10c76 0 128 58 181 140c-62 183 -104 391 -118 498h90c16 -110 52 -298 91 -413c91 134 193 314 245 413z" />
    <glyph glyph-name="zacute" unicode="&#x17a;" horiz-adv-x="506" 
d="M495 736l-131 -145h-83l104 145h110zM132 81h312l-16 -81h-430l18 84l378 348h-295l17 81h416l-18 -84z" />
    <glyph glyph-name="zdotaccent" unicode="&#x17c;" horiz-adv-x="506" 
d="M392 684l-20 -96h-98l20 96h98zM132 81h312l-16 -81h-430l18 84l378 348h-295l17 81h416l-18 -84z" />
    <glyph glyph-name="nmod" unicode="&#x207f;" horiz-adv-x="612" 
d="M410 524c100 0 167 -33 167 -133c0 -22 -4 -44 -8 -65l-67 -326h-90l65 315c4 17 8 38 8 53c0 46 -28 75 -97 75c-77 0 -155 -37 -192 -65l-79 -378h-90l106 513h61l10 -51c40 27 124 62 206 62z" />
    <glyph glyph-name="gheupturncy.001" horiz-adv-x="467" 
d="M525 650l-45 -214h-244l-90 -436l-9 -42c-25 -123 -78 -170 -177 -170c-36 0 -78 11 -78 11l17 75s41 -8 65 -8c58 0 74 46 86 104l6 30l33 158l57 279l16 76h250l29 137h84z" />
    <glyph glyph-name="Alpha" unicode="&#x391;" horiz-adv-x="664" 
d="M618 0h-95c-5 32 -17 103 -32 181h-322c-33 -60 -64 -121 -96 -181h-105c107 214 241 448 401 650h101c65 -216 115 -432 148 -650zM403 556c-53 -67 -114 -163 -185 -288h256c-19 90 -43 191 -71 288z" />
    <glyph glyph-name="Beta" unicode="&#x392;" horiz-adv-x="654" 
d="M168 650h251c132 0 217 -35 217 -147c0 -83 -75 -154 -133 -170c46 -11 93 -64 93 -135c0 -135 -126 -198 -298 -198h-265zM205 377h180c85 0 151 49 151 113c0 71 -73 72 -138 72h-154zM145 88h162c101 0 190 21 190 110c0 62 -45 92 -133 92h-177z" />
    <glyph glyph-name="Gamma" unicode="&#x393;" horiz-adv-x="569" 
d="M127 0h-94l135 650h454l-17 -86h-361z" />
    <glyph glyph-name="Epsilon" unicode="&#x395;" horiz-adv-x="590" 
d="M205 377h332l-18 -85h-332l-42 -206h360l-18 -86h-454l135 650h454l-17 -86h-361z" />
    <glyph glyph-name="Zeta" unicode="&#x396;" horiz-adv-x="598" 
d="M523 86l-18 -86h-517l18 65l481 499h-377l17 86h521l-18 -65l-482 -499h375z" />
    <glyph glyph-name="Eta" unicode="&#x397;" horiz-adv-x="719" 
d="M553 290h-366l-60 -290h-94l135 650h94l-56 -271h366l56 271h94l-135 -650h-94z" />
    <glyph glyph-name="Theta" unicode="&#x398;" horiz-adv-x="790" 
d="M464 662c195 0 299 -114 299 -285c0 -235 -168 -389 -393 -389c-194 0 -308 115 -308 289c0 230 162 385 402 385zM451 574c-165 0 -293 -107 -293 -295c0 -133 90 -201 224 -201c157 0 285 113 285 293c0 137 -87 203 -216 203zM261 366h316l-17 -80h-316z" />
    <glyph glyph-name="Iota" unicode="&#x399;" horiz-adv-x="259" 
d="M168 650h94l-135 -650h-94z" />
    <glyph glyph-name="Kappa" unicode="&#x39a;" horiz-adv-x="610" 
d="M168 650h94l-135 -650h-94zM211 325c123 128 274 261 354 325h139c-95 -74 -263 -214 -378 -327c82 -88 196 -236 259 -323h-123c-63 94 -174 247 -251 325z" />
    <glyph glyph-name="Lambda" unicode="&#x39b;" horiz-adv-x="664" 
d="M403 556c-91 -111 -248 -392 -330 -556h-105c107 214 241 448 401 650h101c65 -216 115 -432 148 -650h-95c-28 182 -66 364 -120 556z" />
    <glyph glyph-name="Mu" unicode="&#x39c;" horiz-adv-x="850" 
d="M679 650h111c0 -105 -5 -354 -19 -650h-97c16 221 23 429 23 524c-72 -108 -199 -326 -274 -460h-72c-16 129 -47 344 -75 460c-47 -107 -134 -323 -198 -524h-95c80 253 192 520 254 650h104c20 -98 55 -285 77 -435c94 170 204 348 261 435z" />
    <glyph glyph-name="Nu" unicode="&#x39d;" horiz-adv-x="726" 
d="M236 524l-109 -524h-94l135 650h103l262 -492l102 492h94l-135 -650h-76z" />
    <glyph glyph-name="Xi" unicode="&#x39e;" horiz-adv-x="628" 
d="M133 650h527l-19 -96h-528zM106 381h470l-20 -94h-470zM525 0h-527l19 96h528z" />
    <glyph glyph-name="Omicron" unicode="&#x39f;" horiz-adv-x="790" 
d="M464 662c195 0 299 -114 299 -285c0 -235 -168 -389 -393 -389c-194 0 -308 115 -308 289c0 230 162 385 402 385zM451 574c-165 0 -293 -107 -293 -295c0 -133 90 -201 224 -201c157 0 285 113 285 293c0 137 -87 203 -216 203z" />
    <glyph glyph-name="Pi" unicode="&#x3a0;" horiz-adv-x="719" 
d="M610 561h-366l-117 -561h-94l135 650h554l-135 -650h-94z" />
    <glyph glyph-name="Rho" unicode="&#x3a1;" horiz-adv-x="642" 
d="M168 650h250c75 0 211 -33 211 -188c0 -209 -190 -251 -289 -251h-169l-44 -211h-94zM190 299h156c96 0 184 43 184 161c0 78 -63 102 -129 102h-157z" />
    <glyph glyph-name="Sigma" unicode="&#x3a3;" horiz-adv-x="598" 
d="M360 327v-17l-212 -224h375l-18 -86h-517l18 65l244 257l-135 269l12 59h521l-24 -86h-382z" />
    <glyph glyph-name="Tau" unicode="&#x3a4;" horiz-adv-x="598" 
d="M294 0h-94l117 564h-244l18 86h582l-18 -86h-244z" />
    <glyph glyph-name="Upsilon" unicode="&#x3a5;" horiz-adv-x="541" 
d="M523 650h113c-99 -146 -201 -293 -320 -439l-41 -211h-95l45 221c-64 143 -118 286 -167 429h99c37 -116 79 -232 129 -347c86 114 165 231 237 347z" />
    <glyph glyph-name="Phi" unicode="&#x3a6;" horiz-adv-x="857" 
d="M322 -51l11 54c-182 13 -271 107 -271 263c0 224 140 383 405 382l11 51h93l-11 -50c178 -14 271 -110 271 -265c0 -228 -141 -382 -404 -382l-11 -53h-94zM350 82l101 488c-195 0 -298 -105 -298 -295c0 -123 77 -186 197 -193zM544 570l-101 -489
c195 0 299 108 299 293c0 131 -83 189 -198 196z" />
    <glyph glyph-name="Chi" unicode="&#x3a7;" horiz-adv-x="670" 
d="M487 0l-146 258l-241 -258h-123l308 330l-186 320h115l148 -265l240 265h121l-308 -333l189 -317h-117z" />
    <glyph glyph-name="Psi" unicode="&#x3a8;" horiz-adv-x="841" 
d="M753 650h94l-55 -266c-34 -162 -120 -252 -348 -253l-27 -131h-94l27 131h-3c-313 0 -247 202 -228 296l46 223h94l-48 -230c-23 -107 -44 -203 157 -203l90 433h94l-90 -433c160 2 211 51 239 187z" />
    <glyph glyph-name="Alphatonos" unicode="&#x386;" horiz-adv-x="664" 
d="M618 0h-95c-5 32 -17 103 -32 181h-322c-33 -60 -64 -121 -96 -181h-105c107 214 241 448 401 650h101c65 -216 115 -432 148 -650zM74 500l75 150h108l-119 -150h-64zM403 556c-53 -67 -114 -163 -185 -288h256c-19 90 -43 191 -71 288z" />
    <glyph glyph-name="Epsilontonos" unicode="&#x388;" horiz-adv-x="590" 
d="M-92 500l75 150h108l-119 -150h-64zM205 377h332l-18 -85h-332l-42 -206h360l-18 -86h-454l135 650h454l-17 -86h-361z" />
    <glyph glyph-name="Etatonos" unicode="&#x389;" horiz-adv-x="719" 
d="M-92 500l75 150h108l-119 -150h-64zM553 290h-366l-60 -290h-94l135 650h94l-56 -271h366l56 271h94l-135 -650h-94z" />
    <glyph glyph-name="Iotatonos" unicode="&#x38a;" horiz-adv-x="259" 
d="M-91 500l75 150h108l-119 -150h-64zM168 650h94l-135 -650h-94z" />
    <glyph glyph-name="Omicrontonos" unicode="&#x38c;" horiz-adv-x="790" 
d="M464 662c195 0 299 -114 299 -285c0 -235 -168 -389 -393 -389c-194 0 -308 115 -308 289c0 230 162 385 402 385zM-42 500l75 150h108l-119 -150h-64zM451 574c-165 0 -293 -107 -293 -295c0 -133 90 -201 224 -201c157 0 285 113 285 293c0 137 -87 203 -216 203z" />
    <glyph glyph-name="Upsilontonos" unicode="&#x38e;" horiz-adv-x="541" 
d="M-183 500l75 150h108l-119 -150h-64zM523 650h113c-99 -146 -201 -293 -320 -439l-41 -211h-95l45 221c-64 143 -118 286 -167 429h99c37 -116 79 -232 129 -347c86 114 165 231 237 347z" />
    <glyph glyph-name="Omegatonos" unicode="&#x38f;" horiz-adv-x="798" 
d="M296 0h-263l18 86h134c-56 45 -99 112 -99 210c0 208 131 366 381 366c196 0 304 -96 304 -268c0 -126 -63 -244 -164 -308h129l-18 -86h-260l18 87c117 48 203 159 203 301c0 125 -83 191 -221 191c-174 0 -279 -104 -279 -278c0 -125 81 -186 135 -213zM-32 500l75 150
h108l-119 -150h-64z" />
    <glyph glyph-name="Iotadieresis" unicode="&#x3aa;" horiz-adv-x="259" 
d="M198 805l-20 -98h-100l20 98h100zM396 805l-20 -98h-100l20 98h100zM33 0l135 650h94l-135 -650h-94z" />
    <glyph glyph-name="Upsilondieresis" unicode="&#x3ab;" horiz-adv-x="541" 
d="M323 805l-20 -98h-100l20 98h100zM521 805l-20 -98h-100l20 98h100zM523 650h113c-99 -146 -201 -293 -320 -439l-41 -211h-95l45 221c-64 143 -118 286 -167 429h99c37 -116 79 -232 129 -347c86 114 165 231 237 347z" />
    <glyph glyph-name="alpha" unicode="&#x3b1;" horiz-adv-x="633" 
d="M450 0l-7 40c-43 -33 -105 -52 -168 -52c-113 0 -227 61 -227 212c0 214 172 324 315 324c76 0 139 -27 165 -47l27 36h62l-106 -513h-61zM139 200c0 -96 70 -135 147 -135c58 0 120 22 161 58l57 277c-20 18 -72 41 -140 41c-112 0 -225 -82 -225 -241z" />
    <glyph glyph-name="beta" unicode="&#x3b2;" horiz-adv-x="630" 
d="M-9 -200l145 687c30 143 90 225 255 225c135 0 200 -51 200 -151c0 -113 -74 -168 -104 -182c74 -17 113 -64 113 -140c0 -106 -69 -251 -290 -251c-89 0 -148 27 -180 48l-49 -236h-90zM383 632c-90 0 -139 -42 -160 -145l-76 -365c27 -29 91 -51 159 -51
c165 0 199 93 199 161c0 80 -58 95 -144 95h-88l16 83h56c124 0 156 65 156 132c0 54 -27 90 -118 90z" />
    <glyph glyph-name="gamma" unicode="&#x3b3;" horiz-adv-x="575" 
d="M132 -200l32 151c13 62 -48 390 -86 562h87c21 -87 57 -300 75 -440h2c107 94 215 278 227 440h86c-14 -211 -156 -409 -299 -545l-34 -168h-90z" />
    <glyph glyph-name="delta" unicode="&#x3b4;" horiz-adv-x="619" 
d="M286 -12c-144 0 -243 72 -243 213c0 126 81 233 229 269c-43 26 -72 57 -72 99c0 83 66 143 205 143c73 0 134 -12 174 -29l-17 -81c-36 19 -94 34 -162 34c-82 0 -110 -27 -110 -61c0 -36 42 -55 115 -89c104 -49 177 -107 177 -217c0 -172 -131 -281 -296 -281zM296 71
c136 0 198 96 198 188c0 87 -45 125 -137 167c-117 -15 -223 -84 -223 -218c0 -79 51 -137 162 -137z" />
    <glyph glyph-name="epsilon" unicode="&#x3b5;" horiz-adv-x="522" 
d="M471 112l-18 -88c-40 -17 -109 -36 -185 -36c-129 0 -228 29 -228 133c0 70 38 125 117 145c-43 14 -68 44 -68 93c0 76 63 165 256 165c85 0 144 -13 192 -34l-17 -81c-43 17 -100 34 -188 34c-94 0 -154 -28 -154 -84c0 -41 34 -57 109 -57h108l-18 -82h-112
c-108 0 -133 -38 -133 -80c0 -45 44 -68 148 -68c73 0 147 21 191 40z" />
    <glyph glyph-name="zeta" unicode="&#x3b6;" horiz-adv-x="528" 
d="M401 -200h-84c30 46 49 98 49 127c0 37 -16 51 -83 63c-134 25 -243 59 -243 217c0 192 151 336 304 398h-203l18 86h409l-16 -78c-222 -64 -421 -191 -421 -389c0 -108 53 -126 173 -151c81 -17 150 -29 150 -121c0 -64 -32 -122 -53 -152z" />
    <glyph glyph-name="eta" unicode="&#x3b7;" horiz-adv-x="607" 
d="M405 524c100 0 167 -33 167 -133c0 -22 -4 -44 -8 -65l-107 -526h-90l105 515c4 17 8 38 8 53c0 46 -28 75 -97 75c-77 0 -150 -37 -187 -65l-79 -378h-90l106 513h61l10 -51c40 27 119 62 201 62z" />
    <glyph glyph-name="theta" unicode="&#x3b8;" horiz-adv-x="635" 
d="M407 712c140 0 218 -79 218 -242c0 -228 -103 -482 -345 -482c-159 0 -218 102 -218 237c0 247 112 487 345 487zM395 629c-121 0 -187 -110 -218 -228h351c3 26 4 49 4 66c0 109 -41 162 -137 162zM287 71c139 0 201 131 228 248h-354c-4 -32 -6 -62 -6 -89
c0 -92 35 -159 132 -159z" />
    <glyph glyph-name="iota" unicode="&#x3b9;" horiz-adv-x="359" 
d="M231 513l-78 -371c-9 -44 -6 -74 57 -74c34 0 73 7 94 13l-15 -82c-22 -5 -64 -11 -98 -11c-63 0 -132 26 -132 113c0 11 1 21 4 37l80 375h88z" />
    <glyph glyph-name="kappa" unicode="&#x3ba;" horiz-adv-x="540" 
d="M139 513h90l-106 -513h-90zM461 513h128c-63 -48 -182 -147 -281 -241c63 -74 151 -198 200 -272h-112c-38 64 -118 182 -200 272c121 123 222 210 265 241z" />
    <glyph glyph-name="lambda" unicode="&#x3bb;" horiz-adv-x="559" 
d="M163 627c-18 0 -52 -3 -72 -10l17 82c24 8 50 13 75 13c95 0 158 -46 213 -207c60 -175 95 -423 103 -505h-87c-13 156 -51 343 -76 409c-82 -81 -172 -207 -244 -409h-90c30 118 162 364 308 496c-39 97 -86 131 -147 131z" />
    <glyph glyph-name="nu" unicode="&#x3bd;" horiz-adv-x="526" 
d="M470 513h99c-64 -122 -192 -346 -307 -513h-92c-67 190 -109 404 -121 513h88c15 -111 49 -300 90 -418c91 134 192 317 243 418z" />
    <glyph glyph-name="xi" unicode="&#x3be;" horiz-adv-x="552" 
d="M293 -10c-193 37 -253 84 -253 184c0 114 78 181 165 203c-57 18 -89 52 -89 124c0 137 105 211 278 211c80 0 148 -15 188 -34l-17 -81c-40 17 -108 34 -180 34c-95 0 -181 -28 -181 -122c0 -80 74 -94 177 -94h88l-17 -86h-111c-151 0 -209 -57 -209 -140
c0 -69 43 -87 181 -116c89 -18 151 -30 151 -123c0 -33 -12 -92 -53 -150h-84c28 42 49 95 49 129c0 43 -30 50 -83 61z" />
    <glyph glyph-name="omicron" unicode="&#x3bf;" horiz-adv-x="633" 
d="M380 524h1c125 0 222 -78 222 -212c0 -208 -159 -319 -333 -324c-125 0 -222 78 -222 212c0 211 159 324 332 324zM289 71c117 0 223 89 223 232c0 73 -45 138 -151 138c-117 0 -222 -89 -222 -232c0 -73 45 -138 150 -138z" />
    <glyph glyph-name="pi" unicode="&#x3c0;" horiz-adv-x="690" 
d="M84 0l91 428h-123l18 85h648l-18 -85h-136l-58 -277c-9 -45 -15 -83 45 -83c20 0 37 5 57 13l-15 -82c-24 -7 -47 -11 -66 -11c-106 0 -134 54 -113 150l62 290h-213l-89 -428h-90z" />
    <glyph glyph-name="rho" unicode="&#x3c1;" horiz-adv-x="615" 
d="M366 524c131 0 223 -77 223 -227c0 -209 -172 -309 -313 -309c-58 0 -120 21 -157 45l-48 -233h-90l100 474c34 163 119 250 285 250zM280 71c113 0 215 92 215 227c0 83 -51 143 -148 143c-133 0 -164 -98 -178 -164l-32 -156c28 -28 81 -50 143 -50z" />
    <glyph glyph-name="sigma1" unicode="&#x3c2;" horiz-adv-x="540" 
d="M140 220c0 -101 53 -124 173 -147c92 -18 150 -37 150 -120c0 -65 -32 -123 -53 -153h-84c38 61 49 103 49 129c0 40 -28 51 -84 61c-145 27 -243 64 -243 220c0 199 146 314 338 314c74 0 144 -19 175 -34l-17 -81c-34 15 -102 34 -166 34c-158 0 -238 -105 -238 -223z
" />
    <glyph glyph-name="sigma" unicode="&#x3c3;" horiz-adv-x="651" 
d="M299 -12c-174 0 -251 92 -251 226c0 169 108 299 314 299h317l-18 -85h-123c30 -31 51 -78 51 -144c0 -136 -93 -296 -290 -296zM304 71c127 0 198 94 198 202c0 78 -28 132 -66 155h-89c-133 0 -208 -89 -208 -196c0 -111 60 -161 165 -161z" />
    <glyph glyph-name="tau" unicode="&#x3c4;" horiz-adv-x="509" 
d="M547 513l-18 -85h-215l-60 -286c-9 -44 -6 -74 57 -74c34 0 73 7 94 13l-15 -82c-22 -5 -64 -11 -98 -11c-63 0 -132 26 -132 113c0 11 1 21 4 37l62 290h-184l18 85h487z" />
    <glyph glyph-name="upsilon" unicode="&#x3c5;" horiz-adv-x="610" 
d="M249 -12c-202 0 -199 124 -184 200l66 325h90l-63 -304c-18 -85 -17 -141 110 -141c144 0 185 107 203 207c15 88 4 179 -22 238h96c24 -62 32 -150 15 -250c-28 -166 -133 -275 -311 -275z" />
    <glyph glyph-name="phi" unicode="&#x3c6;" horiz-adv-x="787" 
d="M252 -200l38 182c-125 2 -252 56 -252 224c0 184 108 326 366 326l27 130h90l-27 -130c153 -5 253 -75 253 -221c0 -188 -111 -330 -367 -329l-38 -182h-90zM307 64l80 386c-158 0 -258 -71 -258 -236c0 -108 71 -144 178 -150zM477 450l-80 -386c168 -3 259 78 259 239
c0 98 -63 142 -179 147z" />
    <glyph glyph-name="chi" unicode="&#x3c7;" horiz-adv-x="522" 
d="M402 -200h-98l-98 274l-207 -274h-103l279 356l-136 357h96l106 -294l220 294h104l-293 -374z" />
    <glyph glyph-name="psi" unicode="&#x3c8;" horiz-adv-x="767" 
d="M606 513h96c24 -62 32 -150 15 -250c-28 -164 -131 -275 -324 -275h-19l-39 -188h-90l39 188h-25c-213 0 -210 124 -195 200l66 325h90l-63 -304c-17 -83 -17 -141 121 -141h22l123 594h90l-123 -594h22c157 0 198 107 216 207c15 88 4 179 -22 238z" />
    <glyph glyph-name="omega" unicode="&#x3c9;" horiz-adv-x="787" 
d="M367 86c-43 -64 -92 -98 -171 -98c-101 0 -158 61 -158 176c0 105 46 238 142 349h97c-73 -74 -148 -209 -148 -338c0 -80 41 -104 90 -104c62 0 105 46 120 121l41 200h90l-32 -155c-10 -49 -11 -61 -11 -88c0 -48 28 -78 98 -78c87 0 133 91 133 221
c0 80 -23 161 -64 221h96c41 -70 57 -147 57 -222c0 -168 -82 -303 -223 -303c-79 0 -141 34 -157 98z" />
    <glyph glyph-name="alphatonos" unicode="&#x3ac;" horiz-adv-x="633" 
d="M350 591l75 150h108l-119 -150h-64zM450 0l-7 40c-43 -33 -105 -52 -168 -52c-113 0 -227 61 -227 212c0 214 172 324 315 324c76 0 139 -27 165 -47l27 36h62l-106 -513h-61zM139 200c0 -96 70 -135 147 -135c58 0 120 22 161 58l57 277c-20 18 -72 41 -140 41
c-112 0 -225 -82 -225 -241z" />
    <glyph glyph-name="iotatonos" unicode="&#x3af;" horiz-adv-x="359" 
d="M168 591l75 150h108l-119 -150h-64zM231 513l-78 -371c-9 -44 -6 -74 57 -74c34 0 73 7 94 13l-15 -82c-22 -5 -64 -11 -98 -11c-63 0 -132 26 -132 113c0 11 1 21 4 37l80 375h88z" />
    <glyph glyph-name="iotadieresis" unicode="&#x3ca;" horiz-adv-x="359" 
d="M177 684l-20 -96h-98l20 96h98zM375 684l-20 -96h-98l20 96h98zM231 513l-78 -371c-9 -44 -6 -74 57 -74c34 0 73 7 94 13l-15 -82c-22 -5 -64 -11 -98 -11c-63 0 -132 26 -132 113c0 11 1 21 4 37l80 375h88z" />
    <glyph glyph-name="iotadieresistonos" unicode="&#x390;" horiz-adv-x="359" 
d="M176 591l50 150h108l-94 -150h-64zM26 591l20 96h98l-20 -96h-98zM332 591l20 96h98l-20 -96h-98zM231 513l-78 -371c-9 -44 -6 -74 57 -74c34 0 73 7 94 13l-15 -82c-22 -5 -64 -11 -98 -11c-63 0 -132 26 -132 113c0 11 1 21 4 37l80 375h88z" />
    <glyph glyph-name="upsilontonos" unicode="&#x3cd;" horiz-adv-x="610" 
d="M314 591l75 150h108l-119 -150h-64zM249 -12c-202 0 -199 124 -184 200l66 325h90l-63 -304c-18 -85 -17 -141 110 -141c144 0 185 107 203 207c15 88 4 179 -22 238h96c24 -62 32 -150 15 -250c-28 -166 -133 -275 -311 -275z" />
    <glyph glyph-name="upsilondieresis" unicode="&#x3cb;" horiz-adv-x="610" 
d="M318 684l-20 -96h-98l20 96h98zM516 684l-20 -96h-98l20 96h98zM249 -12c-202 0 -199 124 -184 200l66 325h90l-63 -304c-18 -85 -17 -141 110 -141c144 0 185 107 203 207c15 88 4 179 -22 238h96c24 -62 32 -150 15 -250c-28 -166 -133 -275 -311 -275z" />
    <glyph glyph-name="upsilondieresistonos" unicode="&#x3b0;" horiz-adv-x="610" 
d="M300 591l50 150h108l-94 -150h-64zM150 591l20 96h98l-20 -96h-98zM456 591l20 96h98l-20 -96h-98zM249 -12c-202 0 -199 124 -184 200l66 325h90l-63 -304c-18 -85 -17 -141 110 -141c144 0 185 107 203 207c15 88 4 179 -22 238h96c24 -62 32 -150 15 -250
c-28 -166 -133 -275 -311 -275z" />
    <glyph glyph-name="omicrontonos" unicode="&#x3cc;" horiz-adv-x="633" 
d="M358 591l75 150h108l-119 -150h-64zM380 524h1c125 0 222 -78 222 -212c0 -208 -159 -319 -333 -324c-125 0 -222 78 -222 212c0 211 159 324 332 324zM289 71c117 0 223 89 223 232c0 73 -45 138 -151 138c-117 0 -222 -89 -222 -232c0 -73 45 -138 150 -138z" />
    <glyph glyph-name="omegatonos" unicode="&#x3ce;" horiz-adv-x="787" 
d="M428 591l75 150h108l-119 -150h-64zM367 86c-43 -64 -92 -98 -171 -98c-101 0 -158 61 -158 176c0 105 46 238 142 349h97c-73 -74 -148 -209 -148 -338c0 -80 41 -104 90 -104c62 0 105 46 120 121l41 200h90l-32 -155c-10 -49 -11 -61 -11 -88c0 -48 28 -78 98 -78
c87 0 133 91 133 221c0 80 -23 161 -64 221h96c41 -70 57 -147 57 -222c0 -168 -82 -303 -223 -303c-79 0 -141 34 -157 98z" />
    <glyph glyph-name="epsilontonos" unicode="&#x3ad;" horiz-adv-x="522" 
d="M316 591l75 150h108l-119 -150h-64zM471 112l-18 -88c-40 -17 -109 -36 -185 -36c-129 0 -228 29 -228 133c0 70 38 125 117 145c-43 14 -68 44 -68 93c0 76 63 165 256 165c85 0 144 -13 192 -34l-17 -81c-43 17 -100 34 -188 34c-94 0 -154 -28 -154 -84
c0 -41 34 -57 109 -57h108l-18 -82h-112c-108 0 -133 -38 -133 -80c0 -45 44 -68 148 -68c73 0 147 21 191 40z" />
    <glyph glyph-name="etatonos" unicode="&#x3ae;" horiz-adv-x="607" 
d="M312 591l75 150h108l-119 -150h-64zM405 524c100 0 167 -33 167 -133c0 -22 -4 -44 -8 -65l-107 -526h-90l105 515c4 17 8 38 8 53c0 46 -28 75 -97 75c-77 0 -150 -37 -187 -65l-79 -378h-90l106 513h61l10 -51c40 27 119 62 201 62z" />
    <glyph glyph-name="Sevenroman" unicode="&#x2166;" horiz-adv-x="1151" 
d="M614 650h106c-121 -231 -247 -452 -398 -650h-94c-71 217 -120 433 -148 650h99c25 -182 63 -363 115 -545c124 180 226 363 320 545zM666 0l135 650h94l-135 -650h-94zM925 0l135 650h94l-135 -650h-94z" />
    <glyph glyph-name="anoteleia" unicode="&#x387;" horiz-adv-x="200" 
d="M54 416l20 97h100l-20 -97h-100z" />
    <glyph glyph-name="uni037E" unicode="&#x37e;" horiz-adv-x="230" 
d="M80 364l20 97h100l-20 -97h-100zM-78 -129l109 226h106l-129 -226h-86z" />
    <glyph glyph-name="Ohm" unicode="&#x2126;" horiz-adv-x="798" 
d="M296 0h-263l18 86h134c-56 45 -99 112 -99 210c0 208 131 366 381 366c196 0 304 -96 304 -268c0 -126 -63 -244 -164 -308h129l-18 -86h-260l18 87c117 48 203 159 203 301c0 125 -83 191 -221 191c-174 0 -279 -104 -279 -278c0 -125 81 -186 135 -213z" />
    <glyph glyph-name="increment" unicode="&#x2206;" horiz-adv-x="633" 
d="M368 650h102c16 -40 84 -272 128 -588l-13 -62h-605l13 62c178 325 340 548 375 588zM107 86h399c-23 150 -60 366 -103 475c-70 -86 -214 -326 -296 -475z" />
    <glyph glyph-name="micro" unicode="&#xb5;" horiz-adv-x="632" 
d="M509 0h-59l-9 51c-32 -27 -107 -63 -196 -63c-45 0 -90 13 -118 37l-46 -225h-90l150 713h90l-65 -316c-3 -14 -7 -34 -7 -48c0 -47 24 -80 106 -80c77 0 150 37 183 65l78 379h90z" />
    <glyph glyph-name="dieresistonos" unicode="&#x385;" horiz-adv-x="464" 
d="M150 591l50 150h108l-94 -150h-64zM0 591l20 96h98l-20 -96h-98zM306 591l20 96h98l-20 -96h-98z" />
    <glyph glyph-name="tonos" unicode="&#x384;" horiz-adv-x="209" 
d="M-2 591l75 150h108l-119 -150h-64z" />
    <glyph glyph-name="tonos.cap" horiz-adv-x="209" 
d="M-2 500l75 150h108l-119 -150h-64z" />
    </font>
</defs>
</svg>
